<svg width="1248" height="540" viewBox="0 0 1248 540" fill="none" xmlns="http://www.w3.org/2000/svg">
<path d="M1231.77 126.794L1205.18 31.205C1204.19 30.3824 1203.2 29.5872 1202.13 28.8194L1224.59 109.437C1220.12 97.5636 1215.84 89.447 1213.62 90.0229C1204.24 64.4117 1196.4 43.6541 1187.38 20.0173C1185.82 19.2769 1184.23 18.564 1182.58 17.8784C1187.63 54.8418 1190.64 78.9722 1193.74 108.011C1195.77 108.642 1197.77 109.3 1199.72 109.958C1198.1 97.5362 1197.83 95.5345 1196.04 82.5369C1200.81 84.3179 1205.46 86.3874 1209.97 88.7341L1211.29 92.3262C1211.02 92.7375 1210.69 93.2037 1210.39 93.7247C1208.34 97.0152 1206.01 100.379 1203.39 103.816L1229.99 199.405C1232.59 196.014 1235.02 192.49 1237.26 188.848C1242.93 178.921 1237.26 149.526 1229.94 125.341L1231.77 126.794ZM1194.65 72.7751C1193.14 62.41 1192.78 60.1889 1190.92 47.8221C1189.63 39.1296 1188.78 34.1116 1187.79 29.0113C1190.34 36.415 1190.34 36.415 1205.94 77.8205C1202.27 75.9422 1198.5 74.258 1194.65 72.7751ZM1233.8 177.962C1232.54 179.991 1231.06 182.075 1229.69 184.159L1209.43 111.274C1210.88 109.217 1212.17 107.161 1213.51 105.132C1213.98 104.304 1214.53 103.523 1215.16 102.801L1221.24 119.5C1222.59 120.268 1223.85 121.063 1225.08 121.859C1222.78 115.442 1220.59 109.382 1218.48 103.596C1219.57 105.172 1220.49 106.864 1221.22 108.642C1225.33 117.526 1230.84 138.64 1232.71 147.031C1237.26 166.966 1236.71 173.108 1233.8 177.962Z" fill="#242424"/>
<path d="M1155.93 9.37795C1154.8 35.5101 1153.62 52.5385 1151.05 79.4658L1130.15 4.38735C1127.88 4.03087 1125.57 3.72924 1123.21 3.40019L1149.81 98.9895L1157.22 100.031C1159.74 73.4332 1160.92 56.4322 1162.04 29.9985L1182.94 105.077C1184.83 105.543 1186.67 106.009 1188.42 106.503L1161.85 10.9684C1159.93 10.3925 1157.96 9.87153 1155.93 9.37795Z" fill="#242424"/>
<path d="M1137.12 86.4856C1130.73 85.8 1124.06 85.1968 1117.1 84.7306L1093.66 0.493576C1090.91 0.329051 1088.17 0.137105 1085.43 0L1112.03 95.5893C1121.97 96.1377 1131.37 96.8872 1140.22 97.8378L1137.12 86.4856Z" fill="#242424"/>
<path d="M943.855 102.746C954.092 101.594 964.146 100.552 974.018 99.6202L947.419 4.03087C937.986 4.90834 928.389 5.8955 918.682 6.99233C909.03 8.08917 900.557 9.73442 894.634 16.6171C877.798 36.6069 890.027 108.505 943.855 102.746ZM899.433 38.7732C900.365 20.8947 913.417 19.3592 922.055 18.3172C927.978 17.6591 933.846 17.0375 939.659 16.4525L959.923 89.3373C954.028 89.9132 948.05 90.5713 942.045 91.2294C936.04 91.8875 926.47 92.902 918.6 86.6227C904.862 75.764 898.775 49.6867 899.323 38.7732H899.433Z" fill="#242424"/>
<path d="M850.13 27.9693L858.219 57.1178C841.766 59.6679 824.903 62.6019 807.902 65.5634L811.028 76.7785C828.029 73.7074 844.801 70.8922 861.345 68.3329L870.394 100.882C852.077 103.624 833.403 106.859 814.51 110.314L817.718 121.639C840.715 117.435 863.301 113.687 885.475 110.397L858.85 14.8073C837.407 17.9881 815.534 21.6442 793.231 25.7757L796.385 37.1279C814.538 33.7643 832.453 30.7114 850.13 27.9693Z" fill="#242424"/>
<path d="M771.98 130.496C777.053 77.9851 780.069 45.3268 781.715 27.8048L768.333 30.3275C767.812 38.1973 764.467 86.7872 763.233 104.693C762.849 111.548 762.712 116.21 762.712 121.146C757.612 112.7 757.612 112.7 708.281 42.6395L695.448 45.3816C722.623 82.674 738.198 104.199 759.284 133.101L771.98 130.496Z" fill="#242424"/>
<path d="M706.609 144.755L680.01 49.1657L667.26 52.0997L693.858 147.689L706.609 144.755Z" fill="#242424"/>
<path d="M666.41 154.435L680.12 151.062C654.701 116.594 637.508 93.2311 616.394 64.7956L602.683 68.3878C598.351 103.834 594.037 139.289 589.741 174.753L604.301 170.695L607.51 138.64C620.964 134.984 634.428 131.456 647.901 128.056L666.41 154.435ZM608.606 127.233C609.429 118.623 609.429 118.623 611.349 98.112C612.171 89.4196 612.555 83.1402 612.665 76.4769C617.326 85.8 617.326 85.8 641.292 118.678C630.415 121.475 619.52 124.326 608.606 127.233Z" fill="#242424"/>
<path d="M538.025 86.3484C525.987 122.901 519.68 142.315 508.63 176.646L487.79 101.457L475.642 105.296L502.378 200.995L515.375 196.882C525.768 164.635 533.171 141.848 544.771 106.613L565.446 181.691L577.73 178.126L551.132 82.5644C546.827 83.7983 542.467 85.0048 538.025 86.3484Z" fill="#242424"/>
<path d="M412.465 231.542C436.732 222.74 461.466 214.24 486.501 206.096L483.183 194.688C472.708 198.089 462.307 201.553 451.978 205.081L428.643 120.926L416.386 125.122L439.831 209.359C429.575 213.015 419.402 216.671 409.311 220.327L412.465 231.542Z" fill="#242424"/>
<path d="M230.307 199.652L227.565 200.94C219.193 204.852 211.067 208.737 203.188 212.594C192.85 217.695 185.2 222.329 180.484 235.381C172.915 256.303 182.101 331.354 228.443 308.869C236.669 304.756 245.334 300.643 254.164 296.53L256.906 295.241L230.307 199.652ZM226.441 296.914C218.928 300.533 213.827 302.178 208.453 300.396C194.742 295.872 187.778 265.215 187.476 254.356C186.955 233.571 198.225 227.977 206.451 223.892C211.771 221.15 217.228 218.654 222.904 216.022L243.195 288.907C237.409 291.567 231.87 294.254 226.441 296.914Z" fill="#242424"/>
<path d="M148.209 254.356L156.435 283.505C144.462 290.214 133.219 296.859 122.708 303.44L125.834 314.6C136.327 308.056 147.56 301.42 159.534 294.693L168.583 327.214C155.311 334.672 142.935 341.984 131.455 349.15L134.636 360.503C148.584 351.691 163.876 342.716 180.511 333.575L153.913 237.986C137.808 246.834 122.945 255.545 109.326 264.118L112.48 275.47C123.521 268.56 135.431 261.522 148.209 254.356Z" fill="#242424"/>
<path d="M108.778 377.778C105.734 333.109 104.034 302.891 102.307 268.643C99.5645 270.315 97.124 272.015 94.6287 273.688C97.3708 310.706 99.1257 332.753 100.744 352.222C101.374 359.104 101.923 364.287 102.581 369.579C90.6527 344.434 76.8051 320.221 64.1915 295.543C62.2446 297.078 60.3526 298.559 58.4879 300.067C76.1196 333.959 87.938 355.923 102.361 382.33C104.418 380.849 106.584 379.313 108.778 377.778Z" fill="#242424"/>
<path d="M78.4778 400.976L51.8795 305.387C50.152 306.84 48.4793 308.293 46.834 309.719L73.4323 405.309C75.0776 403.883 76.7503 402.429 78.4778 400.976Z" fill="#242424"/>
<path d="M10.4191 350.988C14.9984 384.907 18.3711 406.707 24.3489 440.654L3.45415 365.493C3.07025 366.645 2.71378 367.769 2.38473 368.894L28.983 464.483C29.3121 463.276 29.696 462.07 30.1347 460.836C24.2392 427.273 20.8939 405.5 16.4242 371.169L37.319 446.248C38.0319 445.041 38.7997 443.807 39.5949 442.601L12.9966 347.012C12.0095 348.246 11.1868 349.617 10.4191 350.988Z" fill="#242424"/>
<path d="M27.9959 468.898L24.815 457.545C24.3009 460.257 24.0439 463.011 24.0473 465.772L0.574951 381.617C0.574951 382.686 0.574951 383.756 0.712056 384.798L24.1569 469.035C24.3292 471.238 24.6962 473.422 25.2538 475.561L28.4346 486.913L28.7637 488.092L28.3523 486.584C26.905 480.79 26.7832 474.745 27.9959 468.898Z" fill="#242424"/>
<path d="M52.6747 430.508C49.7681 429.603 47.026 428.616 44.4484 427.629C42.8854 417.95 42.1176 413.151 40.3079 401.826C43.7812 397.603 47.6932 393.307 52.044 388.938C57.2266 400.4 59.5025 405.391 63.6431 414.44L68.4417 409.888C51.9892 375.721 41.3773 352.66 29.504 326.501C28.1056 327.982 26.7619 329.435 25.5006 330.888C30.9848 369.826 35.2898 396.698 40.0885 425.929H39.8691L40.3627 427.711C40.966 431.413 41.5692 435.115 42.1999 438.899L43.1322 437.665L66.3852 521.518C70.5714 523.346 75.1416 524.973 80.0956 526.399C104.528 533.282 86.0185 472.106 74.8034 451.814C65.069 434.567 57.8298 432.263 52.6747 430.508ZM33.8091 360.612C32.4381 351.536 31.3961 345.147 30.2444 338.676C34.0285 349.178 34.5495 350.33 47.9309 379.807C44.4758 383.335 41.295 386.827 38.3884 390.282C36.2221 377.997 36.2221 377.997 33.6994 360.695L33.8091 360.612ZM82.1796 514.965C80.2277 515.615 78.108 515.547 76.2018 514.773C73.4598 513.868 70.7177 512.936 67.9756 512.031L47.7115 439.173C50.2891 440.133 52.9763 441.038 55.7733 441.915C78.752 449.346 90.1591 510.44 82.0699 515.047L82.1796 514.965Z" fill="#242424"/>
<path d="M114.344 523.356L105.268 490.834C115.085 492.315 125.706 493.503 137.131 494.399L134.033 483.239C122.589 482.325 111.968 481.127 102.169 479.647L93.9432 450.498C104.418 452.089 115.816 453.341 128.137 454.255L124.956 442.903C109.875 441.806 96.1643 440.179 83.8249 438.022L110.423 533.611C123.128 535.805 137.314 537.468 152.98 538.602L149.827 527.222C137.031 526.308 125.203 525.019 114.344 523.356Z" fill="#242424"/>
<path d="M187.284 529.58C184.021 522.725 182.019 518.776 179.387 513.923C171.49 499.061 159.616 476.822 142.396 443.89L135.952 443.561L133.21 443.396C149.032 473.066 163.373 499.582 185.694 540C188.792 540 191.918 540 195.072 540C195.401 510.44 195.784 484.089 196.772 444.164L186.873 444.356C186.489 517.241 186.873 522.944 187.284 529.58Z" fill="#242424"/>
<path d="M208.974 443.89L235.572 539.479L245.581 539.04L218.983 443.451L208.974 443.89Z" fill="#242424"/>
<path d="M260.58 440.709C259.154 472.737 258.057 499.006 256.714 538.437C260.361 538.245 264.008 537.998 267.682 537.752C267.901 527.88 268.148 518.036 268.368 508.164C279.501 507.342 290.844 506.345 302.397 505.175C306.73 512.003 312.131 520.504 320.248 533.172L332.999 531.746C313.53 502.68 296.556 477.151 272.152 439.694C268.285 440.051 264.419 440.407 260.58 440.709ZM296.227 495.194C286.877 496.099 277.636 496.894 268.56 497.607C269.986 459.958 269.985 459.958 268.916 450.251C272.207 456.339 275.607 462.125 280.241 469.446C288.083 482.224 289.482 484.527 296.172 495.194H296.227Z" fill="#242424"/>
<path d="M375.145 426.834L396.039 501.94C369.825 475.698 353.482 459.053 328.831 433.388L317.204 434.841L343.803 530.43L354.771 529.059L333.876 453.981C358.857 479.948 375.172 496.593 401.057 522.533L413.342 520.586L386.634 425.024L375.145 426.834Z" fill="#242424"/>
<path d="M467.965 499.061L444.547 414.851L432.208 417.127L455.762 501.391C445.58 503.219 435.48 505.048 425.462 506.876L428.616 518.228C452.636 514.17 477.077 509.599 501.939 504.517L498.786 493.165C488.384 495.267 478.11 497.233 467.965 499.061Z" fill="#242424"/>
<path d="M715.521 358.391C702.715 351.646 690.54 355.156 679.873 358.391C669.207 361.627 657.662 364.753 646.53 367.824L673.128 463.413C684.754 460.214 696.372 456.915 707.98 453.514C765.619 436.267 738.664 370.594 715.521 358.391ZM724.898 428.945C720.155 437.473 709.57 440.599 703.236 442.491C696.399 444.466 689.571 446.412 682.753 448.332L662.461 375.475C669.207 373.646 675.925 371.727 682.615 369.716C694.187 366.398 707.294 362.642 718.866 378.847C724.295 386.443 734.057 412.52 724.898 428.945Z" fill="#242424"/>
<path d="M781.523 418.416L772.474 385.894C789.95 380.227 807.262 374.396 824.409 368.4L821.31 357.212C804.145 363.19 786.833 369.021 769.375 374.707L761.149 345.558C779.795 339.507 798.259 333.274 816.539 326.857L813.386 315.478C790.992 323.357 768.324 330.952 745.382 338.264L771.98 433.854C795.617 426.322 818.998 418.48 842.123 410.327L838.942 398.974C820.076 405.647 800.937 412.127 781.523 418.416Z" fill="#242424"/>
<path d="M890.274 381.151C886.6 375.036 884.324 371.526 881.28 367.44C868.474 349.37 857.89 334.535 838.202 306.73L825.149 311.447C850.404 345.037 865.458 365.137 887.093 394.066C891.225 392.53 895.338 390.976 899.433 389.404C902.175 354.525 904.423 324.088 907.522 280.187L895.621 284.931C890.274 377.476 890.274 377.476 890.274 381.151Z" fill="#242424"/>
<path d="M921.918 274.209L948.516 369.798L959.841 365.082L933.243 269.493L921.918 274.209Z" fill="#242424"/>
<path d="M977.664 250.106C976.431 276.677 974.922 309.253 972.18 359.79L984.026 354.662C984.447 343.694 984.831 332.671 985.178 321.592C994.419 317.507 1003.52 313.366 1012.6 309.171L1019.4 305.963C1027.24 317.095 1033.11 325.459 1036.67 330.641C1040.62 328.813 1044.5 326.93 1048.3 324.993C1026.75 295.104 1013.53 277.116 989.401 244.841L977.664 250.106ZM1013.12 297.215L1009.66 298.888C1001.71 302.544 993.651 306.2 985.479 309.856C987.207 268.533 987.207 268.533 986.055 257.482C988.797 262.089 991.54 266.065 997.353 274.648L1013.12 297.215Z" fill="#242424"/>
<path d="M1076.87 200.31L1097.77 275.388C1076.82 254.164 1063 240.618 1040.87 219.641L1031.03 224.632L1057.62 320.221L1066.84 315.532L1045.94 240.454C1068.32 261.678 1082.17 275.224 1102.9 296.201C1105.83 294.555 1108.76 292.91 1111.62 291.237L1085.02 195.648L1076.87 200.31Z" fill="#242424"/>
<path d="M1145.37 257.345L1121.93 173.108C1119.54 174.671 1117.1 176.234 1114.63 177.797L1138.08 262.034C1131.93 265.928 1125.54 269.849 1118.88 273.798L1122.09 285.177C1138.05 275.726 1152.52 266.431 1165.5 257.29L1162.32 245.938C1156.91 249.704 1151.26 253.506 1145.37 257.345Z" fill="#242424"/>
<path d="M1246.97 151.638L1243.81 140.285C1244.6 145.344 1244.43 150.507 1243.32 155.504L1234.27 122.955C1234.68 120.937 1234.97 118.895 1235.12 116.841C1236.33 120.789 1237.59 124.765 1238.82 128.796C1239.56 131.819 1240.47 134.795 1241.56 137.708C1242.17 138.64 1242.74 139.627 1243.24 140.587C1238.27 121.173 1232.68 99.4557 1223.77 67.4829L1219.52 52.2368C1219.35 51.6336 1219.16 51.0029 1218.97 50.3996C1222.31 62.739 1226.34 77.5738 1231.94 99.154C1232.11 100.784 1232.15 102.425 1232.08 104.062C1229.8 96.6313 1227.03 87.6098 1223.85 77.2996C1224.14 74.1857 1224.08 71.0482 1223.66 67.949L1220.48 56.5968C1220.93 60.0094 1220.93 63.467 1220.48 66.8796C1217.61 57.7393 1214.44 47.7489 1210.96 36.9085C1210.19 35.9945 1209.37 35.0805 1208.49 34.1665C1210.8 41.1314 1214.94 53.745 1220.12 69.8136C1219.82 71.4315 1219.46 73.0767 1219 74.722L1245.59 170.311C1247.42 164.263 1247.89 157.887 1246.97 151.638ZM1235.15 111.603L1235.81 114.153L1239.51 128.604C1239.34 128.083 1237.86 123.12 1235.2 114.318C1235.23 113.413 1235.2 112.426 1235.15 111.603ZM1223.05 82.6192C1223.22 81.7783 1223.36 80.9283 1223.47 80.0691C1226.21 88.2953 1228.95 97.262 1231.91 106.613C1231.76 108.345 1231.5 110.067 1231.14 111.768L1223.05 82.6192Z" fill="#242424"/>
</svg>
