<svg width="220" height="220" viewBox="0 0 220 220" fill="none" xmlns="http://www.w3.org/2000/svg">
<path fill-rule="evenodd" clip-rule="evenodd" d="M81.2403 30.9832C37.6005 46.8668 15.0997 95.12 30.9832 138.76C46.8668 182.4 95.12 204.9 138.76 189.017C182.4 173.133 204.9 124.88 189.017 81.2403C173.133 37.6005 124.88 15.0997 81.2403 30.9832ZM30.1028 139.08C14.0423 94.9542 36.7938 46.1634 80.9198 30.1028C125.046 14.0423 173.837 36.7938 189.897 80.9198C205.958 125.046 183.206 173.837 139.08 189.897C94.9542 205.958 46.1634 183.206 30.1028 139.08Z" fill="#F8F8F8"/>
<path fill-rule="evenodd" clip-rule="evenodd" d="M83.1229 36.1557C42.3398 50.9995 21.3118 96.094 36.1557 136.877C50.9995 177.66 96.094 198.688 136.877 183.844C177.66 169.001 198.688 123.906 183.844 83.1229C169.001 42.3398 123.906 21.3118 83.1229 36.1557ZM35.2752 137.198C20.2544 95.9282 41.5331 50.2961 82.8024 35.2752C124.072 20.2544 169.704 41.5331 184.725 82.8024C199.746 124.072 178.467 169.704 137.198 184.725C95.9282 199.746 50.2961 178.467 35.2752 137.198Z" fill="#F8F8F8"/>
<path fill-rule="evenodd" clip-rule="evenodd" d="M213.338 72.388C234.111 129.46 204.684 192.566 147.612 213.338C90.54 234.111 27.4345 204.684 6.66193 147.612C-14.1106 90.54 15.316 27.4345 72.388 6.66193C129.46 -14.1106 192.566 15.316 213.338 72.388ZM146.811 211.137C202.667 190.807 231.467 129.046 211.137 73.1891C190.807 17.3327 129.046 -11.4671 73.1891 8.86296C17.3327 29.193 -11.4671 90.9544 8.86296 146.811C29.193 202.667 90.9544 231.467 146.811 211.137Z" fill="#F8F8F8"/>
<path d="M81.481 53.5783L115.255 146.372L80.5921 158.988L85.111 171.404L168.503 141.051L163.984 128.636L129.178 141.304L95.4037 48.5109L81.481 53.5783Z" fill="#F8F8F8"/>
<path d="M61.8599 187.597L56.657 195.007L55.1811 193.97L57.1112 187.492C57.2925 186.89 57.4313 186.442 57.5275 186.147C57.254 186.357 56.8446 186.661 56.2993 187.058L50.9052 190.968L49.586 190.041L54.7889 182.632L55.734 183.295L51.3794 189.497L57.8872 184.807L58.7717 185.428L56.4855 193.241L60.9147 186.933L61.8599 187.597Z" fill="#F8F8F8"/>
<path d="M44.7749 186.246L43.8982 185.43L46.5334 182.601L44.9517 181.127C43.9153 180.162 43.4127 179.336 43.4437 178.651C43.4717 177.962 43.7117 177.375 44.1635 176.89C44.6406 176.378 45.2335 176.092 45.9421 176.032C46.648 175.975 47.4755 176.388 48.4245 177.272L50.9461 179.621L44.7749 186.246ZM49.3748 179.55L47.7706 178.056C47.2192 177.542 46.7345 177.262 46.3162 177.216C45.8922 177.17 45.4907 177.35 45.1119 177.757C44.8537 178.034 44.7129 178.336 44.6895 178.663C44.6662 178.99 44.7497 179.29 44.9399 179.563C45.1302 179.836 45.5041 180.232 46.0614 180.752L47.2364 181.846L49.3748 179.55ZM38.986 180.854L38.1093 180.037L44.2805 173.412L45.1572 174.229L38.986 180.854Z" fill="#F8F8F8"/>
<path d="M39.2417 167.667L32.0329 173.145L29.9666 170.426C29.6029 169.947 29.3481 169.564 29.2022 169.277C28.9921 168.878 28.8798 168.495 28.8652 168.129C28.8472 167.765 28.9326 167.398 29.1213 167.027C29.3076 166.653 29.5793 166.33 29.9367 166.058C30.5497 165.593 31.2175 165.393 31.9401 165.459C32.6594 165.528 33.4064 166.072 34.1812 167.091L35.5861 168.94L38.5168 166.713L39.2417 167.667ZM34.7354 169.587L33.3192 167.723C32.8509 167.107 32.4036 166.756 31.9774 166.672C31.5511 166.587 31.1298 166.703 30.7135 167.019C30.4119 167.249 30.2131 167.521 30.1171 167.837C30.0153 168.152 30.0246 168.461 30.1451 168.762C30.2245 168.955 30.4287 169.268 30.7575 169.701L32.1587 171.545L34.7354 169.587Z" fill="#F8F8F8"/>
<path d="M34.2289 161.008L24.6886 162.754L24.0166 161.652L29.8172 153.774L30.5278 154.939L28.7365 157.269L30.7077 160.501L33.5665 159.922L34.2289 161.008ZM29.6945 160.714L28.0964 158.093L26.4476 160.206C25.9473 160.848 25.5245 161.357 25.1791 161.731C25.7347 161.528 26.3115 161.366 26.9095 161.248L29.6945 160.714Z" fill="#F8F8F8"/>
<path d="M26.9184 153.686L26.1509 152.789C26.5089 152.518 26.8037 152.118 27.0354 151.588C27.2652 151.054 27.2438 150.508 26.9711 149.949C26.6931 149.379 26.3275 149.001 25.8745 148.814C25.4215 148.628 24.9878 148.636 24.5733 148.838C24.1256 149.056 23.8552 149.404 23.7623 149.88C23.6656 150.357 23.7635 150.896 24.056 151.495L24.3078 152.012L23.3698 152.469C23.1279 151.974 22.9151 151.608 22.7314 151.372C22.544 151.138 22.2849 150.978 21.9543 150.892C21.6182 150.804 21.3003 150.833 21.0006 150.98C20.6453 151.153 20.4041 151.443 20.2768 151.848C20.1477 152.25 20.1978 152.686 20.4271 153.156C20.6275 153.567 20.9026 153.868 21.2525 154.059C21.5968 154.248 21.9663 154.316 22.3609 154.26C22.7518 154.207 23.0305 154.14 23.197 154.059L23.4676 155.205C21.615 155.793 20.2852 155.26 19.4781 153.606C19.0899 152.81 19.004 152.071 19.2206 151.388C19.4334 150.707 19.8358 150.222 20.4279 149.933C21.1864 149.563 21.9499 149.635 22.7183 150.148C22.6308 149.678 22.697 149.217 22.9168 148.767C23.1311 148.314 23.4843 147.967 23.9764 147.727C24.6758 147.386 25.395 147.372 26.134 147.685C26.8676 147.995 27.4528 148.599 27.8898 149.494C28.6409 151.033 28.3171 152.431 26.9184 153.686Z" fill="#F8F8F8"/>
<path d="M25.6712 145.092L17.1987 148.284L15.9945 145.088C15.7826 144.526 15.6477 144.086 15.5899 143.769C15.5025 143.327 15.504 142.928 15.5945 142.573C15.6812 142.219 15.8679 141.891 16.1547 141.59C16.44 141.284 16.7926 141.052 17.2126 140.894C17.9331 140.623 18.6301 140.622 19.3037 140.892C19.9735 141.163 20.5341 141.898 20.9856 143.096L21.8043 145.269L25.2488 143.971L25.6712 145.092ZM20.8044 145.646L19.9792 143.455C19.7063 142.731 19.3777 142.267 18.9933 142.064C18.6089 141.862 18.172 141.853 17.6827 142.037C17.3283 142.17 17.0599 142.375 16.8777 142.65C16.6902 142.923 16.6111 143.222 16.6405 143.545C16.6616 143.753 16.7679 144.111 16.9595 144.619L17.7761 146.787L20.8044 145.646Z" fill="#F8F8F8"/>
<path d="M22.7676 137.28L13.126 136.229L12.7965 134.981L20.6044 129.087L20.9529 130.407L18.5712 132.128L19.5377 135.788L22.4428 136.049L22.7676 137.28ZM18.5059 135.703L17.7223 132.735L15.5392 134.289C14.8763 134.762 14.3259 135.129 13.8879 135.389C14.4787 135.352 15.0775 135.362 15.6844 135.419L18.5059 135.703Z" fill="#F8F8F8"/>
<path d="M11.3114 128.612L10.4035 122.81L11.4591 122.644L12.1818 127.263L14.9398 126.832L14.6056 124.696C14.4822 123.907 14.4594 123.269 14.5374 122.782C14.6147 122.29 14.8409 121.872 15.2159 121.525C15.5869 121.18 16.049 120.964 16.6023 120.877C17.0538 120.806 17.4927 120.842 17.9191 120.984C18.3408 121.122 18.7069 121.371 19.0175 121.731C19.328 122.091 19.5583 122.75 19.7085 123.71L20.2565 127.213L11.3114 128.612ZM19.0645 126.187L18.6941 123.819C18.5942 123.18 18.3892 122.723 18.0792 122.446C17.7686 122.166 17.353 122.066 16.8323 122.148C16.4621 122.206 16.1673 122.345 15.9478 122.567C15.7283 122.789 15.6033 123.069 15.5729 123.407C15.5425 123.745 15.5887 124.307 15.7115 125.092L15.9588 126.673L19.0645 126.187Z" fill="#F8F8F8"/>
<path d="M18.9956 118.888L9.77245 115.888L9.70502 114.599L18.553 110.426L18.6243 111.789L15.9411 112.987L16.1389 116.767L18.9292 117.617L18.9956 118.888ZM15.1463 116.473L14.986 113.408L12.5314 114.482C11.7857 114.81 11.172 115.056 10.69 115.222C11.2757 115.307 11.8599 115.439 12.4424 115.619L15.1463 116.473Z" fill="#F8F8F8"/>
<path d="M18.7151 106.281L10.7365 105.95L10.613 108.931L9.54551 108.887L9.84246 101.716L10.91 101.76L10.786 104.753L18.7647 105.084L18.7151 106.281Z" fill="#F8F8F8"/>
<path d="M10.0371 99.4039L10.214 98.2189L14.0377 98.7898L14.3569 96.6519C14.566 95.251 14.962 94.3693 15.5448 94.0068C16.1283 93.6401 16.7478 93.5057 17.4034 93.6036C18.0957 93.7069 18.6672 94.0337 19.1179 94.5839C19.5645 95.1335 19.6921 96.0496 19.5006 97.3324L18.9917 100.741L10.0371 99.4039ZM18.1608 99.4053L18.4845 97.2369C18.5958 96.4917 18.5521 95.9336 18.3536 95.5626C18.1516 95.1869 17.7757 94.958 17.2259 94.8759C16.8513 94.82 16.5226 94.875 16.2397 95.0409C15.9568 95.2068 15.7567 95.4455 15.6395 95.7568C15.5222 96.0682 15.4074 96.6005 15.2949 97.3539L15.0578 98.942L18.1608 99.4053ZM11.2052 91.5792L11.3822 90.3942L20.3368 91.7311L20.1599 92.9161L11.2052 91.5792Z" fill="#F8F8F8"/>
<path d="M20.93 89.2994L12.1831 86.9613L13.0603 83.6798C13.239 83.0115 13.4715 82.5005 13.7579 82.1466C14.0413 81.7876 14.3983 81.5443 14.8288 81.4164C15.2565 81.2835 15.6711 81.2708 16.0729 81.3782C16.4468 81.4781 16.7717 81.6736 17.0476 81.9648C17.3235 82.2559 17.5081 82.6334 17.6015 83.0973C17.898 82.6097 18.271 82.2747 18.7204 82.0923C19.1708 81.9058 19.6506 81.8807 20.1598 82.0167C20.5695 82.1263 20.9279 82.3158 21.2351 82.5855C21.5395 82.8501 21.7531 83.1352 21.8759 83.4408C21.9988 83.7464 22.0584 84.1054 22.0547 84.5178C22.0481 84.9252 21.9704 85.4073 21.8215 85.9642L20.93 89.2994ZM16.1679 86.7863L16.6735 84.8949C16.8106 84.3818 16.8752 84.0048 16.8671 83.764C16.8583 83.4463 16.7721 83.1867 16.6086 82.9853C16.4461 82.7799 16.2118 82.6363 15.9055 82.5544C15.6151 82.4768 15.3419 82.4784 15.086 82.5591C14.826 82.6388 14.6217 82.7973 14.473 83.0345C14.3204 83.2708 14.1601 83.7031 13.9921 84.3316L13.5248 86.0797L16.1679 86.7863ZM20.2072 87.866L20.7893 85.6883C20.8893 85.3144 20.9455 85.0481 20.9581 84.8895C20.9816 84.6103 20.9616 84.3663 20.898 84.1575C20.8345 83.9487 20.7128 83.7585 20.5328 83.5868C20.3488 83.414 20.1176 83.2904 19.8392 83.216C19.513 83.1288 19.2083 83.1369 18.925 83.2401C18.6377 83.3423 18.4064 83.5298 18.2312 83.8026C18.0531 84.0704 17.8896 84.4827 17.7408 85.0396L17.2001 87.0622L20.2072 87.866Z" fill="#F8F8F8"/>
<path d="M23.0111 81.6144L15.7692 75.1631L16.2252 73.9556L26.0044 73.6873L25.5222 74.9642L22.5838 74.9835L21.2465 78.5253L23.4605 80.4241L23.0111 81.6144ZM20.4557 77.857L21.54 74.9855L18.8605 74.9837C18.0461 74.9842 17.385 74.9635 16.8771 74.9213C17.3795 75.2343 17.8613 75.59 18.3226 75.9887L20.4557 77.857Z" fill="#F8F8F8"/>
<path d="M26.797 71.9883L18.6971 67.9428L21.6223 62.0861L22.5781 62.5635L20.1883 67.3483L22.6691 68.5873L24.9071 64.1065L25.8575 64.5811L23.6194 69.062L26.3765 70.439L28.8601 65.4664L29.8159 65.9438L26.797 71.9883Z" fill="#F8F8F8"/>
<path d="M31.0249 63.7346L23.4329 58.8015L24.4155 57.2893L30.9587 58.9851C31.5669 59.1447 32.0201 59.2673 32.318 59.3528C32.0979 59.0871 31.7797 58.6888 31.3635 58.1581L27.2623 52.9081L28.1406 51.5565L35.7325 56.4896L35.1033 57.458L28.749 53.3291L33.6698 59.6641L33.0809 60.5704L25.1911 58.5666L31.6542 62.7661L31.0249 63.7346Z" fill="#F8F8F8"/>
<path d="M42.5951 43.4961L43.6261 42.8149C44.1839 43.6636 44.4338 44.5046 44.3758 45.3379C44.3176 46.1653 43.9708 46.9273 43.3354 47.6239C42.6777 48.3448 41.9962 48.7987 41.2908 48.9855C40.585 49.1666 39.8456 49.1218 39.0725 48.8513C38.3022 48.5777 37.5977 48.1496 36.9589 47.5668C36.2623 46.9314 35.7762 46.2455 35.5005 45.5092C35.2246 44.767 35.1761 44.029 35.3552 43.295C35.534 42.5553 35.8925 41.8904 36.4309 41.3003C37.0413 40.6311 37.725 40.2238 38.4819 40.0783C39.2388 39.9328 40.0078 40.0519 40.789 40.4358L40.1994 41.4945C39.5712 41.2057 39.0115 41.1075 38.5203 41.2C38.0291 41.2925 37.5795 41.5623 37.1716 42.0095C36.7027 42.5235 36.4332 43.0663 36.3633 43.6379C36.2961 44.2063 36.4071 44.7506 36.6961 45.2707C36.9822 45.788 37.3457 46.2478 37.7868 46.6502C38.3556 47.169 38.9279 47.5406 39.5036 47.7648C40.079 47.9832 40.6312 48.0132 41.1602 47.8549C41.6892 47.6966 42.1396 47.4136 42.5114 47.006C42.9637 46.5102 43.2036 45.96 43.2313 45.3554C43.2589 44.7509 43.0468 44.1311 42.5951 43.4961Z" fill="#F8F8F8"/>
<path d="M45.5481 44.9862L42.0604 35.9364L43.0184 35.0713L51.8367 39.3071L50.8237 40.2219L48.2021 38.8946L45.3924 41.432L46.4923 44.1335L45.5481 44.9862ZM44.9951 40.476L47.2731 38.4188L44.8913 37.1912C44.1669 36.8191 43.5885 36.4981 43.1562 36.2283C43.4598 36.7364 43.7254 37.2732 43.9531 37.8387L44.9951 40.476Z" fill="#F8F8F8"/>
<path d="M47.9625 30.8594L48.8393 30.217L53.0772 36.0008L52.7251 27.3698L53.6966 26.658L59.0478 33.9613L58.171 34.6037L53.944 28.8349L54.2802 37.4546L53.3138 38.1627L47.9625 30.8594ZM50.3203 26.4598L50.9331 26.0108C51.1874 26.4625 51.2683 26.8932 51.1756 27.3031C51.0862 27.7106 50.8306 28.0689 50.4089 28.3779C49.9837 28.6894 49.563 28.8292 49.1467 28.7974C48.7312 28.7598 48.3453 28.5501 47.9888 28.1681L48.6016 27.7191C48.8136 27.9109 49.029 28.0133 49.2479 28.0265C49.4677 28.0339 49.6939 27.9524 49.9263 27.7821C50.1954 27.585 50.359 27.3834 50.4173 27.1773C50.4765 26.9655 50.4442 26.7263 50.3203 26.4598Z" fill="#F8F8F8"/>
<path d="M62.8877 31.6169L58.791 24.7624L56.2305 26.2927L55.6823 25.3756L61.8425 21.6939L62.3906 22.611L59.8195 24.1477L63.9161 31.0023L62.8877 31.6169Z" fill="#F8F8F8"/>
<path d="M63.8832 20.5893L64.9714 20.0877L66.5897 23.5989L68.5528 22.6941C69.8391 22.1012 70.7936 21.9492 71.4163 22.2379C72.0427 22.525 72.4947 22.9695 72.7722 23.5715C73.0651 24.2072 73.105 24.8643 72.8919 25.5428C72.677 26.2176 71.9806 26.8265 70.8028 27.3693L67.673 28.8118L63.8832 20.5893ZM68.3346 27.3849L70.3258 26.4671C71.01 26.1518 71.4529 25.8094 71.6544 25.4399C71.8579 25.0651 71.8433 24.6252 71.6107 24.1204C71.4521 23.7764 71.2259 23.5316 70.9321 23.3859C70.6383 23.2403 70.3291 23.2037 70.0044 23.2763C69.6797 23.3489 69.1714 23.5446 68.4797 23.8634L67.0214 24.5356L68.3346 27.3849ZM71.0682 17.2777L72.1563 16.7762L75.9461 24.9988L74.858 25.5003L71.0682 17.2777Z" fill="#F8F8F8"/>
<path d="M80.8557 13.7625L81.9059 13.4822L83.755 20.4099L86.5602 12.2399L87.7238 11.9293L90.0587 20.677L89.0085 20.9573L87.1641 14.0475L84.3482 22.2012L83.1906 22.5102L80.8557 13.7625Z" fill="#F8F8F8"/>
<path d="M97.1994 19.3607L96.3667 10.3452L98.1625 10.1793L100.886 16.3657C101.138 16.942 101.322 17.3736 101.44 17.6604C101.512 17.323 101.627 16.8265 101.786 16.1709L103.365 9.6988L104.97 9.55055L105.803 18.5661L104.653 18.6723L103.956 11.1266L102.033 18.9143L100.957 19.0137L97.6406 11.5796L98.3494 19.2545L97.1994 19.3607Z" fill="#F8F8F8"/>
<path d="M108.229 14.1109C108.26 12.6084 108.688 11.4416 109.513 10.6105C110.337 9.77525 111.388 9.37097 112.664 9.39765C113.499 9.41512 114.249 9.63052 114.911 10.0438C115.574 10.4572 116.073 11.0256 116.408 11.7492C116.747 12.4687 116.907 13.2813 116.888 14.1869C116.869 15.1048 116.666 15.9222 116.281 16.6389C115.895 17.3557 115.359 17.8942 114.672 18.2546C113.985 18.6109 113.248 18.7808 112.462 18.7644C111.61 18.7466 110.853 18.5248 110.19 18.0992C109.528 17.6735 109.031 17.101 108.7 16.3816C108.369 15.6622 108.212 14.9053 108.229 14.1109ZM109.463 14.1552C109.441 15.246 109.715 16.1125 110.286 16.7545C110.862 17.3925 111.592 17.7208 112.477 17.7393C113.379 17.7581 114.126 17.4566 114.72 16.8348C115.318 16.2131 115.629 15.3198 115.653 14.1549C115.668 13.418 115.556 12.7733 115.317 12.2205C115.081 11.6638 114.726 11.2301 114.25 10.9196C113.779 10.605 113.245 10.4414 112.648 10.4289C111.801 10.4112 111.064 10.6882 110.438 11.2599C109.817 11.8276 109.492 12.7927 109.463 14.1552Z" fill="#F8F8F8"/>
<path d="M118.994 9.88054L124.823 10.6061L124.691 11.6663L120.051 11.0888L119.706 13.8589L121.852 14.1259C122.644 14.2246 123.264 14.3785 123.711 14.5877C124.162 14.7973 124.502 15.1301 124.732 15.5861C124.962 16.0379 125.042 16.5417 124.973 17.0973C124.917 17.5508 124.762 17.963 124.508 18.3339C124.259 18.7012 123.919 18.9846 123.487 19.184C123.056 19.3834 122.358 19.423 121.394 19.303L117.876 18.8651L118.994 9.88054ZM119.191 18.0019L121.569 18.2979C122.21 18.3777 122.706 18.3068 123.058 18.0849C123.413 17.8636 123.623 17.4915 123.688 16.9685C123.735 16.5967 123.681 16.2748 123.529 16.0026C123.376 15.7305 123.141 15.5333 122.824 15.4109C122.508 15.2884 121.955 15.1782 121.166 15.08L119.579 14.8824L119.191 18.0019Z" fill="#F8F8F8"/>
<path d="M129.249 11.3518L130.308 11.5962L128.696 18.5829L135.002 12.6793L136.176 12.9501L134.14 21.7722L133.081 21.5278L134.689 14.5592L128.381 20.4433L127.213 20.1739L129.249 11.3518Z" fill="#F8F8F8"/>
<path d="M139.823 14.0477L145.184 15.8917L142.239 24.4533L141.106 24.0636L143.703 16.5123L140.608 15.4477L139.092 19.857C138.784 20.7525 138.515 21.3938 138.286 21.7809C138.061 22.1694 137.774 22.4342 137.425 22.5755C137.077 22.7128 136.697 22.7105 136.285 22.5685C136.035 22.4828 135.752 22.333 135.433 22.119L135.972 21.1808C136.132 21.3229 136.278 21.4168 136.41 21.4623C136.667 21.5507 136.893 21.5216 137.087 21.375C137.282 21.2245 137.503 20.7911 137.75 20.0747L139.823 14.0477Z" fill="#F8F8F8"/>
<path d="M149.249 17.5156L150.337 18.0179L148.716 21.5278L150.678 22.4341C151.594 22.8571 152.208 23.2701 152.521 23.673C152.834 24.076 152.995 24.502 153.005 24.9512C153.016 25.4004 152.931 25.8194 152.752 26.2081C152.458 26.8435 151.984 27.3004 151.329 27.5786C150.675 27.8567 149.757 27.7231 148.576 27.1775L145.453 25.7352L149.249 17.5156ZM146.968 25.3124L148.958 26.2317C149.766 26.6046 150.356 26.7051 150.731 26.5332C151.11 26.3594 151.393 26.0706 151.58 25.6669C151.732 25.338 151.771 25.0181 151.696 24.7072C151.628 24.3943 151.461 24.136 151.197 23.9323C150.933 23.7287 150.448 23.4637 149.741 23.1374L148.283 22.4641L146.968 25.3124Z" fill="#F8F8F8"/>
<path d="M153.347 29.5207L157.932 21.7134L158.965 22.3201L157.082 25.5261L161.14 27.9091L163.023 24.7031L164.056 25.3097L159.471 33.1171L158.438 32.5104L160.599 28.8304L156.541 26.4474L154.38 30.1274L153.347 29.5207Z" fill="#F8F8F8"/>
<path d="M166.699 27.0361L167.656 27.7569L165.33 30.8451L167.057 32.1455C168.188 32.9976 168.774 33.7663 168.815 34.4515C168.859 35.1392 168.681 35.7477 168.283 36.2773C167.861 36.8364 167.302 37.1827 166.603 37.3164C165.907 37.4467 165.041 37.1218 164.005 36.3415L161.252 34.2683L166.699 27.0361ZM162.822 34.1751L164.574 35.4941C165.175 35.9474 165.687 36.1753 166.108 36.1778C166.534 36.1794 166.915 35.9583 167.249 35.5143C167.477 35.2117 167.585 34.8965 167.575 34.5688C167.564 34.241 167.449 33.9514 167.232 33.6998C167.014 33.4482 166.601 33.0933 165.992 32.635L164.71 31.669L162.822 34.1751ZM173.019 31.7956L173.976 32.5165L168.529 39.7486L167.572 39.0278L173.019 31.7956Z" fill="#F8F8F8"/>
<path d="M170.443 41.4765L176.686 34.9192L181.427 39.4332L180.69 40.207L176.817 36.5191L174.905 38.5275L178.532 41.9811L177.8 42.7505L174.172 39.2968L172.047 41.5288L176.073 45.3615L175.336 46.1353L170.443 41.4765Z" fill="#F8F8F8"/>
<path d="M187.613 46.3341L191.943 51.9873L184.755 57.4925L184.023 56.5364L190.362 51.6808L187.493 47.9349L181.154 52.7905L180.425 51.8393L187.613 46.3341Z" fill="#F8F8F8"/>
<path d="M185.813 59.0871L193.518 54.3317L195.311 57.238C195.627 57.7495 195.844 58.1553 195.961 58.4554C196.132 58.8727 196.206 59.2644 196.186 59.6304C196.168 59.9943 196.048 60.3517 195.824 60.7027C195.603 61.0571 195.301 61.3522 194.919 61.588C194.264 61.9924 193.58 62.1266 192.867 61.9908C192.158 61.8529 191.467 61.2391 190.794 60.1494L189.575 58.1734L186.442 60.1067L185.813 59.0871ZM190.484 57.6122L191.713 59.604C192.12 60.2627 192.531 60.6548 192.947 60.7802C193.363 60.9056 193.794 60.831 194.239 60.5563C194.561 60.3574 194.785 60.1053 194.911 59.8C195.043 59.4961 195.064 59.1884 194.973 58.8767C194.912 58.6769 194.739 58.3457 194.454 57.8833L193.238 55.9125L190.484 57.6122Z" fill="#F8F8F8"/>
<path d="M198.75 63.1661L199.223 64.1445L192.769 67.2686L201.322 68.4804L201.847 69.5644L193.697 73.5092L193.224 72.5309L199.661 69.4148L191.122 68.1894L190.6 67.111L198.75 63.1661Z" fill="#F8F8F8"/>
<path d="M203.278 73.0939L205.203 78.4268L196.687 81.5001L196.28 80.3731L203.791 77.6625L202.68 74.5836L198.294 76.1664C197.403 76.4878 196.735 76.6807 196.29 76.7451C195.847 76.8133 195.46 76.7557 195.131 76.5723C194.806 76.3876 194.57 76.0899 194.422 75.6794C194.332 75.4315 194.271 75.1166 194.238 74.7345L195.307 74.5656C195.296 74.7794 195.315 74.9522 195.362 75.0839C195.455 75.3395 195.619 75.497 195.855 75.5563C196.094 75.6142 196.571 75.5146 197.283 75.2574L203.278 73.0939Z" fill="#F8F8F8"/>
<path d="M201.896 83.3551C203.355 82.9952 204.593 83.1054 205.61 83.6858C206.63 84.2652 207.294 85.1745 207.599 86.4137C207.8 87.2252 207.786 88.0045 207.559 88.7518C207.332 89.499 206.913 90.1283 206.301 90.6397C205.694 91.154 204.951 91.5197 204.072 91.7366C203.18 91.9565 202.338 91.9733 201.546 91.7871C200.754 91.6009 200.094 91.2228 199.568 90.653C199.045 90.0822 198.69 89.415 198.502 88.6515C198.298 87.824 198.315 87.0352 198.554 86.285C198.793 85.5348 199.217 84.9065 199.826 84.4001C200.434 83.8937 201.125 83.5454 201.896 83.3551ZM202.174 84.5588C201.115 84.8201 200.349 85.31 199.877 86.0285C199.411 86.75 199.284 87.5405 199.496 88.3999C199.712 89.2754 200.197 89.919 200.951 90.3308C201.707 90.7466 202.651 90.8149 203.782 90.5359C204.497 90.3594 205.091 90.0836 205.562 89.7086C206.039 89.3367 206.365 88.8808 206.542 88.3411C206.723 87.8045 206.742 87.2463 206.6 86.6667C206.396 85.8432 205.938 85.2037 205.223 84.7481C204.513 84.2955 203.497 84.2324 202.174 84.5588Z" fill="#F8F8F8"/>
<path d="M209.525 98.1059L205.593 98.6214C205.67 99.2052 205.828 99.5913 206.069 99.7798C206.314 99.9719 206.855 100.185 207.692 100.42C208.312 100.592 208.753 100.742 209.015 100.87C209.281 101.001 209.516 101.205 209.718 101.481C209.924 101.757 210.051 102.073 210.098 102.428C210.148 102.816 210.176 103.057 210.18 103.152L209.151 103.287C209.146 103.251 209.138 103.173 209.127 103.054C209.114 102.923 209.105 102.843 209.102 102.814C209.052 102.435 208.923 102.165 208.715 102.005C208.507 101.842 208.087 101.679 207.455 101.517C206.772 101.34 206.299 101.172 206.037 101.011C205.78 100.85 205.549 100.598 205.346 100.255C205.26 100.864 204.8 101.503 203.966 102.173L201.22 104.415L201.028 102.945L203.268 101.125C203.861 100.64 204.272 100.244 204.501 99.9356C204.731 99.6273 204.813 99.2262 204.748 98.7322L200.547 99.2831L200.388 98.0645L204.588 97.5136C204.537 97.1217 204.387 96.7884 204.14 96.5136C203.896 96.2423 203.408 95.9514 202.673 95.6407L202.541 95.5833L199.907 94.4026L199.714 92.9269L202.945 94.3843C203.929 94.8283 204.539 95.3297 204.774 95.8885C204.862 95.5489 205.001 95.2628 205.191 95.0303C205.384 94.7973 205.816 94.4936 206.485 94.1193C207.092 93.7781 207.466 93.5049 207.605 93.2998C207.744 93.0947 207.79 92.8105 207.742 92.4471L207.667 91.9711L208.696 91.8362C208.71 91.88 208.744 92.1081 208.798 92.5204C208.85 92.9123 208.812 93.2619 208.687 93.5691C208.565 93.8798 208.393 94.1328 208.17 94.3283C207.95 94.5231 207.559 94.7882 206.997 95.1236C206.238 95.572 205.77 95.9157 205.594 96.1547C205.418 96.3979 205.364 96.8139 205.433 97.4028L209.365 96.8873L209.525 98.1059Z" fill="#F8F8F8"/>
<path d="M201.071 104.821L210.123 104.649L210.247 111.194L209.179 111.215L209.077 105.867L206.305 105.92L206.4 110.928L205.338 110.948L205.243 105.94L202.161 105.998L202.267 111.556L201.198 111.576L201.071 104.821Z" fill="#F8F8F8"/>
<path d="M201.102 114.157L210.126 114.903L210.027 116.097L206.322 115.791L205.934 120.481L209.639 120.787L209.541 121.981L200.517 121.235L200.616 120.041L204.869 120.393L205.257 115.702L201.004 115.351L201.102 114.157Z" fill="#F8F8F8"/>
<path d="M209.113 124.934L208.915 126.003L201.865 124.692L208.034 130.739L207.814 131.923L198.912 130.268L199.111 129.199L206.142 130.507L199.993 124.457L200.212 123.279L209.113 124.934Z" fill="#F8F8F8"/>
<path d="M196.359 139.276L205.049 141.817L206.176 137.964C206.402 137.19 206.495 136.578 206.455 136.128C206.419 135.68 206.239 135.278 205.914 134.921C205.589 134.565 205.188 134.316 204.71 134.177C204.093 133.996 203.515 134.044 202.976 134.319C202.436 134.595 201.987 135.133 201.629 135.933C201.571 135.586 201.495 135.313 201.399 135.113C201.189 134.687 200.896 134.256 200.522 133.821L198.599 131.618L198.176 133.064L199.647 134.743C200.071 135.231 200.389 135.624 200.602 135.923C200.815 136.221 200.952 136.471 201.013 136.673C201.073 136.88 201.099 137.078 201.09 137.269C201.08 137.407 201.031 137.624 200.944 137.921L200.554 139.255L196.695 138.126L196.359 139.276ZM201.55 139.546L202.273 137.074C202.427 136.548 202.6 136.153 202.794 135.888C202.991 135.624 203.231 135.449 203.513 135.365C203.799 135.281 204.082 135.28 204.363 135.362C204.774 135.482 205.068 135.729 205.247 136.103C205.423 136.481 205.418 136.992 205.229 137.636L204.425 140.386L201.55 139.546Z" fill="#F8F8F8"/>
<path d="M113.901 211.069L113.368 202.031L116.482 201.847C117.185 201.806 117.724 201.818 118.099 201.882C118.624 201.971 119.078 202.161 119.462 202.451C119.963 202.826 120.349 203.321 120.62 203.936C120.895 204.547 121.057 205.255 121.104 206.06C121.145 206.747 121.1 207.36 120.971 207.9C120.842 208.439 120.663 208.891 120.432 209.255C120.202 209.615 119.943 209.905 119.655 210.124C119.37 210.339 119.019 210.51 118.602 210.637C118.189 210.765 117.709 210.845 117.162 210.877L113.901 211.069ZM115.034 209.932L116.964 209.818C117.56 209.783 118.023 209.7 118.354 209.569C118.688 209.438 118.95 209.266 119.14 209.053C119.407 208.753 119.604 208.359 119.732 207.874C119.864 207.383 119.91 206.797 119.87 206.115C119.814 205.169 119.615 204.453 119.273 203.966C118.935 203.474 118.539 203.155 118.085 203.009C117.757 202.905 117.237 202.873 116.526 202.915L114.627 203.027L115.034 209.932Z" fill="#F8F8F8"/>
<path d="M124.909 210.25L123.384 201.326L129.837 200.223L130.017 201.276L124.745 202.177L125.212 204.911L130.149 204.067L130.328 205.114L125.391 205.958L125.91 208.995L131.389 208.059L131.569 209.112L124.909 210.25Z" fill="#F8F8F8"/>
<path d="M137.433 207.69L131.594 199.932L132.842 199.579L136.896 205.268C137.221 205.724 137.508 206.156 137.757 206.565C137.757 206.052 137.779 205.532 137.823 205.006L138.387 198.012L139.564 197.679L138.615 207.356L137.433 207.69Z" fill="#F8F8F8"/>
<path d="M144.906 205.344L141.775 196.849L142.899 196.435L146.03 204.93L144.906 205.344Z" fill="#F8F8F8"/>
<path d="M148.251 204.198L147.63 194.52L148.803 193.981L155.951 200.66L154.71 201.23L152.606 199.179L149.166 200.76L149.407 203.667L148.251 204.198ZM149.072 199.729L151.861 198.447L149.956 196.564C149.376 195.992 148.92 195.513 148.588 195.126C148.726 195.702 148.819 196.293 148.867 196.901L149.072 199.729Z" fill="#F8F8F8"/>
<path d="M158.388 199.405L153.724 191.644L154.777 191.011L162.515 194.654L158.853 188.562L159.838 187.97L164.502 195.73L163.449 196.363L155.708 192.715L159.373 198.813L158.388 199.405Z" fill="#F8F8F8"/>
<path d="M169.579 192.181L164.763 185.812L162.383 187.611L161.739 186.759L167.463 182.43L168.107 183.283L165.718 185.089L170.535 191.459L169.579 192.181Z" fill="#F8F8F8"/>
<path d="M175.65 181.159L175.152 179.724C176.242 179.376 177.066 179.166 177.623 179.093C176.779 178.191 176.216 177.558 175.932 177.194L177.109 176.304C177.498 176.852 177.944 177.57 178.445 178.459C178.79 177.756 179.232 177.013 179.772 176.23L181.017 177.101C180.502 177.848 179.942 178.509 179.339 179.084C179.886 179.121 180.739 179.281 181.896 179.563L181.444 180.99C180.806 180.799 179.996 180.498 179.011 180.085C179.188 181.151 179.276 181.999 179.276 182.629L177.796 182.663C177.839 181.414 177.901 180.563 177.983 180.11C177.183 180.502 176.405 180.852 175.65 181.159Z" fill="#F8F8F8"/>
<path d="M105.259 205.906L104.718 204.486C103.66 204.921 102.894 205.289 102.42 205.592C102.487 204.358 102.512 203.511 102.495 203.05L101.021 203.125C101.075 203.795 101.196 204.631 101.383 205.634C100.667 205.317 99.8506 205.032 98.9341 204.78L98.5397 206.247C99.4148 206.488 100.268 206.635 101.1 206.688C100.705 207.068 100.154 207.738 99.4488 208.698L100.713 209.5C101.078 208.945 101.506 208.193 101.994 207.244C102.544 208.174 103.022 208.88 103.427 209.363L104.583 208.438C103.747 207.508 103.152 206.896 102.798 206.602C103.663 206.388 104.484 206.156 105.259 205.906Z" fill="#F8F8F8"/>
<path d="M184.714 172.927L183.884 171.654C184.857 171.054 185.606 170.651 186.129 170.446C185.093 169.774 184.393 169.296 184.03 169.011L184.957 167.863C185.467 168.301 186.073 168.891 186.774 169.632C186.939 168.866 187.189 168.039 187.523 167.149L188.942 167.693C188.622 168.542 188.239 169.319 187.793 170.023C188.333 169.927 189.198 169.876 190.389 169.87L190.295 171.364C189.63 171.333 188.771 171.236 187.716 171.073C188.145 172.065 188.435 172.867 188.587 173.478L187.159 173.868C186.899 172.646 186.754 171.805 186.724 171.345C186.042 171.919 185.372 172.447 184.714 172.927Z" fill="#F8F8F8"/>
<path d="M93.0247 205.426L92.8426 203.917C91.7108 204.083 90.8784 204.256 90.3455 204.435C90.7078 203.254 90.9366 202.438 91.0318 201.987L89.5834 201.703C89.4744 202.367 89.3894 203.207 89.3285 204.226C88.7103 203.745 87.987 203.272 87.1586 202.806L86.4216 204.134C87.2127 204.579 88.0053 204.928 88.7996 205.18C88.3243 205.454 87.6284 205.971 86.712 206.732L87.7447 207.816C88.2339 207.365 88.8301 206.738 89.5334 205.936C89.8425 206.971 90.1354 207.772 90.4119 208.337L91.7568 207.719C91.1705 206.615 90.7409 205.878 90.4678 205.507C91.3595 205.508 92.2118 205.481 93.0247 205.426Z" fill="#F8F8F8"/>
<path d="M191.472 162.962L190.554 161.751C191.483 161.083 192.202 160.629 192.709 160.387C191.628 159.79 190.896 159.363 190.514 159.104L191.358 157.894C191.898 158.295 192.543 158.84 193.295 159.53C193.405 158.755 193.596 157.912 193.868 157.001L195.321 157.443C195.062 158.313 194.734 159.115 194.339 159.848C194.87 159.714 195.73 159.603 196.918 159.513L196.929 161.01C196.264 161.026 195.4 160.99 194.336 160.901C194.834 161.861 195.18 162.64 195.374 163.239L193.978 163.729C193.632 162.528 193.428 161.699 193.366 161.243C192.726 161.863 192.095 162.437 191.472 162.962Z" fill="#F8F8F8"/>
<path d="M81.4424 202.136L81.367 200.619C80.2263 200.705 79.3839 200.818 78.8396 200.959C79.2842 199.807 79.5699 199.009 79.6967 198.565L78.2718 198.181C78.1164 198.835 77.9724 199.667 77.8399 200.679C77.2571 200.156 76.5689 199.633 75.7754 199.109L74.9467 200.383C75.7044 200.883 76.4705 201.286 77.2451 201.594C76.7517 201.833 76.0212 202.3 75.0534 202.995L76.0072 204.148C76.5269 203.733 77.1658 203.15 77.9239 202.399C78.1593 203.454 78.395 204.273 78.631 204.857L80.0161 204.334C79.5091 203.192 79.1324 202.427 78.8862 202.037C79.7755 202.101 80.6276 202.134 81.4424 202.136Z" fill="#F8F8F8"/>
</svg>
