<svg width="800" height="800" fill="none" xmlns="http://www.w3.org/2000/svg"><g clip-path="url(#a)"><path fill="#31426E" d="M0 0h800v800H0z"/><path d="m673.553 323.15 1.061-1.061-1.061 1.061Zm.754 470.647-1.063-1.057 2.126 2.116-1.063-1.059ZM202.149 323.15l-1.061-1.061 1.061 1.061Zm0 471.404-1.061 1.061 1.061-1.061Zm470.645.757 1.058 1.063-2.116-2.127 1.058 1.064Zm-706.347-.758 1.06-1.06-1.06 1.06Zm0-707.106-1.061-1.061 1.06 1.06Zm707.106 0-1.06 1.06 1.06-1.06Zm-1.061 236.764c129.338 129.338 129.589 338.881.752 468.529l2.127 2.115c130.003-130.821 129.75-342.258-.757-472.766l-2.122 2.122Zm-469.283 0c129.589-129.589 339.694-129.589 469.283 0l2.122-2.122c-130.761-130.76-342.766-130.76-473.526 0l2.121 2.122Zm0 469.283C73.62 663.905 73.62 453.8 203.209 324.211l-2.121-2.122c-130.76 130.761-130.76 342.765 0 473.526l2.121-2.121Zm468.527.753c-129.648 128.835-339.189 128.584-468.527-.753l-2.121 2.121c130.507 130.507 341.942 130.76 472.763.76l-2.115-2.128Zm-.001.001c-194.736 193.921-509.804 193.669-704.228-.755l-2.121 2.121c195.594 195.594 512.557 195.848 708.466.76l-2.117-2.126Zm-704.228-.755c-194.676-194.677-194.676-510.309 0-704.986l-2.121-2.121c-195.848 195.848-195.848 513.38 0 709.228l2.121-2.121Zm0-704.986c194.677-194.676 510.309-194.676 704.986 0l2.121-2.121c-195.848-195.848-513.38-195.848-709.228 0l2.121 2.121Zm704.986 0c194.425 194.426 194.676 509.496.752 704.232l2.125 2.117c195.092-195.908 194.839-512.875-.756-708.47l-2.121 2.121Z" fill="#FFB8A8"/><path d="M671.125 792.124c-65.166 65.166-170.82 65.166-235.986 0s-65.166-170.82 0-235.986 170.82-65.166 235.986 0 65.166 170.82 0 235.986Z" stroke="#FFB8A8" stroke-width="3"/></g><defs><clipPath id="a"><path fill="#fff" d="M0 0h800v800H0z"/></clipPath></defs></svg>