<svg width="118" height="99" viewBox="0 0 118 99" fill="none" xmlns="http://www.w3.org/2000/svg">
<g filter="url(#filter0_d_829_174)">
<path d="M8.4834 12.944C8.4834 11.8252 8.91913 10.9021 9.7906 10.1748C10.7202 9.39161 11.8531 9 13.1893 9C13.8865 9 14.5837 9.16783 15.2809 9.50349C17.1981 12.4126 20.3354 16.0209 24.6927 20.3286C29.1082 24.5803 31.8097 27.3496 32.7974 28.6363C32.7974 27.2377 33.2912 26.0069 34.2789 24.944C35.3247 23.8251 36.5447 23.2657 37.9391 23.2657C38.6944 23.0419 39.653 23.0978 40.8149 23.4335C42.035 23.7692 42.8774 23.8251 43.3422 23.6013C43.9232 21.8111 45.2013 20.4965 47.1767 19.6573C49.152 18.7622 51.1854 18.3146 53.277 18.3146C54.7294 19.0979 55.7461 19.4895 56.3271 19.4895C56.9081 19.4895 57.2567 19.0419 57.3729 18.1468C57.8957 16.6363 58.9996 15.6853 60.6844 15.2937C62.4274 14.9021 64.4899 14.7063 66.8719 14.7063C69.4863 16.1608 71.694 18.3426 73.4951 21.2517C75.2961 24.1048 76.7776 26.4545 77.9396 28.3006C77.7072 29.1957 78.0267 30.5663 78.8982 32.4125C79.8277 34.2586 80.2925 35.3495 80.2925 35.6852C84.4175 30.6503 88.0777 26.4545 91.273 23.0978C94.5265 19.6853 98.2448 17.979 102.428 17.979C103.706 17.979 105.013 18.2307 106.349 18.7342C107.744 19.2377 108.557 20.6363 108.79 22.93C108.673 23.6013 108.005 24.2167 106.785 24.7762C105.623 25.2796 104.345 25.8111 102.951 26.3706C101.614 27.7691 100.191 30.2307 98.6805 33.7551C97.2281 37.2236 96.0371 39.4614 95.1075 40.4684C93.1903 43.7691 91.6216 47.6012 90.4016 51.9648C87.9034 55.2096 85.318 58.5382 82.6455 61.9508C79.973 65.3634 77.2133 68.1606 74.3665 70.3424C74.0179 70.9578 73.7855 71.5731 73.6693 72.1885C73.5532 72.8039 73.4951 73.5032 73.4951 74.2864C73.4951 74.9018 73.5532 75.7969 73.6693 76.9717C73.7855 78.0906 73.8436 78.9857 73.8436 79.657C73.8436 80.3283 73.7855 80.8878 73.6693 81.3353C72.2169 82.8458 71.113 83.9647 70.3578 84.692C69.6025 85.3633 67.3657 87.0136 63.6474 89.643C63.0665 89.8668 62.1659 90.0626 60.9459 90.2304C59.7839 90.3982 58.5348 90.4821 57.1986 90.4821C54.468 90.4821 51.7955 90.1465 49.181 89.4752C46.5666 88.7479 43.836 87.7129 40.9892 86.3703C40.5244 85.0836 40.1178 83.4612 39.7692 81.5032C39.4206 79.4892 39.1301 77.5032 38.8977 75.5452C35.7604 72.0766 33.2331 67.5452 31.3159 61.9508C28.992 53.6152 26.639 45.2516 24.257 36.86C19.6092 31.937 15.8037 27.7971 12.8407 24.4405C9.93585 21.0279 8.4834 17.1958 8.4834 12.944ZM10.1392 11.6014C9.9068 12.7203 9.7906 13.5874 9.7906 14.2028C9.7906 15.993 10.2554 17.6713 11.185 19.2377C12.1145 20.8041 13.4798 22.3706 15.2809 23.937C16.1523 24.0489 17.0238 23.7692 17.8953 23.0978C18.7667 22.4265 19.6382 21.7552 20.5097 21.0839C20.2192 21.8671 19.8125 22.4545 19.2896 22.8461C18.7667 23.2377 17.8662 23.8531 16.5881 24.6922C17.0529 26.7062 18.2148 28.3006 20.0739 29.4754C20.3644 28.6922 21.1778 27.5733 22.5141 26.1188C23.9084 24.6643 24.6056 23.4894 24.6056 22.5943C23.9665 21.923 23.3855 21.3356 22.8627 20.8321C22.3398 20.2727 21.8459 19.993 21.3812 19.993C21.0326 19.993 20.684 20.3006 20.3354 20.916L21.0326 18.8181C20.684 18.4825 19.6673 16.972 17.9824 14.2867C16.2976 11.6014 14.758 10.2587 13.3636 10.2587C12.2598 10.2587 11.185 10.7063 10.1392 11.6014ZM65.1289 15.7133C63.2117 16.0489 61.5559 16.4405 60.1616 16.8881C58.8253 17.2797 58.0991 18.2028 57.9829 19.6573L58.6801 35.3495C59.6096 35.6852 60.8878 35.7132 62.5145 35.4334C64.1413 35.0978 65.0708 34.93 65.3032 34.93C63.6184 36.2167 61.5269 36.86 59.0287 36.86C59.1448 37.5313 59.4644 38.5383 59.9873 39.881C60.5102 41.1677 60.8297 42.0068 60.9459 42.3984L63.6474 41.4754C64.8675 41.1397 65.8842 41.5313 66.6976 42.6502C67.511 43.7131 68.1791 44.5803 68.702 45.2516C69.6315 42.3984 70.1544 38.1467 70.2706 32.4964C70.3868 26.7901 70.5611 22.986 70.7935 21.0839C71.4907 21.5314 71.8974 22.3985 72.0136 23.6852C72.1298 24.916 72.275 26.0908 72.4493 27.2097L74.0179 24.6922C73.2046 22.8461 72.0426 21.1957 70.5321 19.7412C69.0215 18.2307 67.2205 16.8881 65.1289 15.7133ZM52.9284 19.3216C50.7787 19.6573 49.0939 20.0769 47.8738 20.5804C46.7119 21.0279 45.6661 21.923 44.7365 23.2657C45.6661 30.3705 46.6247 35.6572 47.6124 39.1257C48.6582 42.5383 50.8078 45.6712 54.0613 48.5243C54.0613 48.0767 54.3518 47.6851 54.9327 47.3495C55.5137 47.0138 55.9204 46.79 56.1528 46.6782C57.2567 46.2306 58.1572 46.1467 58.8544 46.4264C59.5515 46.7061 60.5682 47.2376 61.9045 48.0208L58.6801 41.4754C57.5762 42.2026 56.5885 42.7341 55.7171 43.0698C54.8456 43.4054 53.7998 43.5733 52.5798 43.5733C52.3474 43.6852 52.115 43.6012 51.8826 43.3215C51.6502 43.0418 51.534 42.846 51.534 42.7341C51.9988 42.5103 53.0736 42.2306 54.7584 41.895C56.5014 41.5033 57.6924 41.0278 58.3315 40.4684C57.5762 38.846 57.0533 37.1677 56.7628 35.4334C56.4723 33.6432 56.3271 31.5454 56.3271 29.1398C56.3271 27.8531 56.3271 26.5943 56.3271 25.3636C56.3271 24.0769 56.3852 22.8181 56.5014 21.5874C55.9204 20.0769 54.7294 19.3216 52.9284 19.3216ZM106.001 19.6573C105.362 19.5454 104.461 19.4895 103.299 19.4895C100.104 19.4895 97.2571 20.3846 94.7589 22.1748C92.2607 23.965 89.9949 26.2866 87.9615 29.1398C87.8453 29.8111 88.3972 30.7621 89.6172 31.9929C90.8954 33.1677 91.273 34.0908 90.7502 34.7621C89.8206 34.7621 88.9201 34.2027 88.0486 33.0838C87.2352 31.909 86.6543 31.2097 86.3057 30.9859C85.6085 31.6013 84.8532 32.3286 84.0398 33.1677C83.2846 34.0069 82.0355 35.7411 80.2925 38.3705C80.8735 40.1048 81.5126 41.839 82.2098 43.5733C82.9069 45.3075 83.9236 46.6782 85.2599 47.6851C83.8074 47.1257 82.6455 46.1467 81.774 44.7481C80.9025 43.2936 79.973 41.4194 78.9853 39.1257C78.0557 39.6852 77.591 40.5243 77.591 41.6432C77.591 42.818 77.591 43.9649 77.591 45.0838C77.4748 44.4124 77.1843 44.0208 76.7195 43.9089C76.7195 44.6921 76.8357 45.5313 77.0681 46.4264C77.3005 47.2656 77.591 48.2725 77.9396 49.4474C76.4871 47.1537 75.7609 44.6082 75.7609 41.811L70.7935 44.4124C70.6773 45.1956 70.2997 45.9509 69.6606 46.6782C69.0215 47.3495 68.4405 47.9089 67.9176 48.3565C66.2909 48.0208 64.6351 48.6082 62.9503 50.1187C61.2654 51.5732 59.842 52.3564 58.6801 52.4683C57.1114 53.0837 55.9495 54.1466 55.1942 55.6571C54.4389 57.1117 53.7417 58.9858 53.1027 61.2795C54.0903 63.3494 54.8456 64.9158 55.3685 65.9788C55.8914 66.9858 56.7628 68.2165 57.9829 69.6711C59.9582 70.0067 62.0207 70.1745 64.1703 70.1745C66.9009 70.1745 69.341 70.0067 71.4907 69.6711C73.9889 68.776 76.6323 66.706 79.4211 63.4613C82.2679 60.1606 85.347 56.4963 88.6586 52.4683C89.8206 48.7201 90.7502 45.9229 91.4473 44.0768C92.2026 42.2306 93.3065 40.2166 94.7589 38.0348L93.1031 37.3635C93.2193 37.0278 93.4517 36.86 93.8003 36.86C94.1489 36.86 94.5265 36.86 94.9332 36.86L93.8003 35.853C95.1366 35.853 96.0371 35.6852 96.5019 35.3495C97.4314 32.5523 98.8258 29.923 100.685 27.4615C102.544 24.9999 104.781 23.0978 107.395 21.7552L107.221 20.916L106.001 19.6573ZM26.5228 24.3566C26.2904 23.965 25.9418 23.7692 25.4771 23.7692C25.0123 23.7692 24.7218 24.0209 24.6056 24.5244C24.838 25.0838 24.6637 25.6992 24.0827 26.3706C23.5598 27.0419 23.1822 27.4894 22.9498 27.7132L22.6012 27.3775C23.066 26.93 23.2403 26.5943 23.1241 26.3706C22.8917 26.5943 22.4269 27.2377 21.7297 28.3006L22.9498 28.1328C21.6716 28.916 21.0326 29.6992 21.0326 30.4824C21.0326 31.2097 21.4973 31.9929 22.4269 32.8321C23.3565 33.6712 24.4894 34.6223 25.8256 35.6852C26.1742 35.4614 26.9586 34.5943 28.1786 33.0838C29.4568 31.5733 30.5025 30.6503 31.3159 30.3146L26.5228 24.3566ZM35.8476 25.3636C34.9761 25.8111 34.3951 26.4824 34.1046 27.3775C33.8141 28.2167 33.6689 29.2517 33.6689 30.4824C35.2375 36.1327 36.7481 40.7481 38.2005 44.3285C39.7111 47.853 42.616 50.1187 46.9152 51.1257C46.799 50.1187 47.0314 49.2795 47.6124 48.6082C48.1934 47.8809 49.0358 47.2376 50.1397 46.6782C49.5006 45.1677 48.8906 44.4124 48.3096 44.4124C48.3096 44.86 48.0191 45.2516 47.4381 45.5872C46.8571 45.867 46.5666 46.1187 46.5666 46.3425C45.579 46.6782 44.6203 46.846 43.6908 46.846C42.5869 46.846 41.7445 46.6222 41.1635 46.1747C42.2674 46.1747 43.1969 46.0628 43.9522 45.839C44.7075 45.5593 46.1599 44.86 48.3096 43.7411C47.4962 41.7831 46.6828 39.4614 45.8695 36.7761C45.1142 34.0908 44.2718 30.2866 43.3422 25.3636C42.0059 24.6922 40.6987 24.3566 39.4206 24.3566C38.0843 24.3566 36.8933 24.6922 35.8476 25.3636ZM74.1922 26.3706L74.0179 27.3775C74.1341 27.1538 74.1922 26.93 74.1922 26.7062V26.3706ZM75.238 27.7132C74.3084 28.7761 73.3789 29.895 72.4493 31.0698C71.5778 32.1887 71.3745 33.3635 71.8393 34.5943C72.7107 34.4824 73.6113 33.9789 74.5408 33.0838C75.4704 32.1887 76.1385 31.6852 76.5452 31.5733C76.7776 32.6922 75.9061 33.839 73.9308 35.0139C71.9555 36.1327 71.2583 37.3915 71.8393 38.7901C73.2917 39.0138 74.3084 39.1257 74.8894 39.1257C76.4581 39.1257 77.591 38.6502 78.2881 37.6992C78.4043 36.2446 77.9396 34.3425 76.8938 31.9929C75.9061 29.6433 75.3542 28.2167 75.238 27.7132ZM32.7974 31.909C31.8097 32.3565 30.764 32.9719 29.6601 33.7551C28.5563 34.5383 27.5105 35.2936 26.5228 36.0209C26.1742 37.2516 26.1452 38.3705 26.4357 39.3775C26.7262 40.3285 27.3071 41.7271 28.1786 43.5733C28.992 43.6852 30.212 43.4614 31.8388 42.9019C33.5236 42.2866 34.8599 42.1747 35.8476 42.5663C34.5113 40.6082 33.2622 38.6502 32.1002 36.6922C33.146 37.9789 34.0175 38.846 34.7146 39.2936C34.7146 38.3425 34.308 37.2516 33.4946 36.0209C32.6812 34.7341 32.2164 33.923 32.1002 33.5873L33.146 33.923L32.7974 31.909ZM73.6693 40.4684L72.1879 39.7971L71.665 40.4684H73.6693ZM61.5559 44.2446L62.776 47.0138C65.2742 47.2376 66.8138 46.7061 67.3948 45.4194C67.3948 44.0768 66.8138 43.4054 65.6518 43.4054C65.0127 43.4054 64.3156 43.5173 63.5603 43.7411C62.805 43.9649 62.1369 44.1327 61.5559 44.2446ZM32.2745 43.5733C30.5897 44.0208 29.4858 44.4404 28.9629 44.832C28.4401 45.2236 28.3529 45.8949 28.7015 46.846C30.9673 53.9508 33.2331 61.0557 35.499 68.1606C36.6609 70.4543 37.7648 72.1606 38.8106 73.2794C39.9144 74.3424 41.3669 74.8738 43.1679 74.8738C43.8651 74.8738 44.388 74.8179 44.7365 74.706C46.0728 74.706 47.6705 74.1745 49.5296 73.1116C51.4469 71.9927 52.8122 71.4333 53.6255 71.4333C53.277 71.9927 53.0155 72.4403 52.8412 72.7759C52.6669 73.1116 52.696 73.5032 52.9284 73.9508C54.0322 72.9438 54.5842 71.8529 54.5842 70.678C54.5842 69.5592 54.2065 68.4683 53.4512 67.4053C52.7541 66.2865 52.115 65.2235 51.534 64.2165C51.7664 62.1466 52.0569 60.0767 52.4055 58.0068C52.4055 57.6711 52.7831 56.8879 53.5384 55.6571C54.3518 54.3704 54.7584 53.5033 54.7584 53.0557C54.7584 52.3285 54.2646 51.797 53.277 51.4613C52.8122 52.2446 51.9116 52.7201 50.5754 52.8879C49.2972 52.9998 48.3677 53.1676 47.7867 53.3914C42.6741 51.6572 38.9848 48.6082 36.719 44.2446L32.2745 43.5733ZM58.5058 47.6851C58.3896 47.9089 57.6343 48.2166 56.2399 48.6082C54.9037 48.9998 54.6423 49.783 55.4556 50.9579C56.6176 51.2935 57.5762 51.2935 58.3315 50.9579C59.1448 50.6222 60.1035 50.1187 61.2073 49.4474C60.6844 48.832 60.2487 48.3285 59.9001 47.9369C59.5515 47.5453 59.0868 47.4614 58.5058 47.6851ZM50.8368 48.6921C50.6044 48.9159 49.9944 49.1956 49.0067 49.5313C48.0772 49.811 47.8448 50.3984 48.3096 51.2935H49.7039C50.343 50.9579 50.8659 50.6502 51.2726 50.3704C51.6793 50.0907 51.8245 49.6432 51.7083 49.0278L50.8368 48.6921ZM56.85 71.7689L56.5014 72.4403C56.7338 73.4473 56.9371 75.8808 57.1114 79.7409C57.2857 83.6011 58.041 86.4262 59.3772 88.2164C61.1783 88.3283 62.805 87.9926 64.2575 87.2094C65.768 86.4262 67.0462 85.2234 68.0919 83.6011C67.7434 83.0416 67.511 82.3703 67.3948 81.5871C67.2786 80.7479 67.2205 79.8808 67.2205 78.9857V76.0486C67.2205 75.6011 67.2205 75.0976 67.2205 74.5382C66.9881 74.0347 66.8719 73.727 66.8719 73.6151L62.2531 74.5382C60.3359 74.2584 59.261 73.671 59.0287 72.7759C59.3772 72.5522 59.813 72.5801 60.3359 72.8599C60.9168 73.1396 61.3235 73.2235 61.5559 73.1116C62.7179 73.1116 63.7346 73.0836 64.6061 73.0277C65.5356 72.9717 66.2909 72.72 66.8719 72.2724C63.7927 72.2724 60.4521 72.1046 56.85 71.7689ZM55.107 71.7689C54.7584 73.1116 54.5842 74.4822 54.5842 75.8808C54.5842 77.5032 54.7875 79.8249 55.1942 82.8458C55.6009 85.8668 55.8042 87.7689 55.8042 88.5521H57.9829C57.1114 86.7619 56.4723 83.8248 56.0657 79.7409C55.659 75.657 55.3394 72.9997 55.107 71.7689ZM69.0506 72.1046C69.1668 72.3284 68.7891 72.8319 67.9176 73.6151V77.3913C67.9176 80.0207 68.3534 81.8109 69.2249 82.7619C69.5734 81.4752 69.7477 80.2724 69.7477 79.1535C69.6315 76.9717 69.5734 75.2375 69.5734 73.9508V72.2724L69.0506 72.1046ZM51.534 73.6151C49.6168 74.5661 47.99 75.2934 46.6538 75.7969C45.3756 76.3004 44.0394 76.5521 42.645 76.5521C44.1556 76.5521 45.2304 76.4962 45.8695 76.3843C46.5666 76.2724 48.4548 75.7689 51.534 74.8738V73.6151ZM71.1421 73.9508V77.5591C71.1421 78.9577 71.2583 79.9367 71.4907 80.4962L71.1421 73.9508ZM53.277 74.8738C53.0446 76.4403 52.9284 77.699 52.9284 78.65C52.9284 81.6151 53.4222 84.3563 54.4099 86.8738C54.5261 86.3143 54.5842 85.3913 54.5842 84.1046C54.5842 82.7619 54.5261 81.2794 54.4099 79.657C54.2937 78.0347 54.1775 76.4403 54.0613 74.8738H53.277ZM52.0569 75.713C50.4882 76.2724 48.6582 76.8319 46.5666 77.3913C44.5332 77.8948 42.6741 78.2025 40.9892 78.3144L42.645 85.5311L53.277 88.2164L52.0569 75.713Z" fill="#CD4138"/>
</g>
<defs>
<filter id="filter0_d_829_174" x="0.126256" y="0.642858" width="117.02" height="98.1965" filterUnits="userSpaceOnUse" color-interpolation-filters="sRGB">
<feFlood flood-opacity="0" result="BackgroundImageFix"/>
<feColorMatrix in="SourceAlpha" type="matrix" values="0 0 0 0 0 0 0 0 0 0 0 0 0 0 0 0 0 0 127 0" result="hardAlpha"/>
<feOffset/>
<feGaussianBlur stdDeviation="4.17857"/>
<feColorMatrix type="matrix" values="0 0 0 0 0.803922 0 0 0 0 0.254902 0 0 0 0 0.219608 0 0 0 0.9 0"/>
<feBlend mode="normal" in2="BackgroundImageFix" result="effect1_dropShadow_829_174"/>
<feBlend mode="normal" in="SourceGraphic" in2="effect1_dropShadow_829_174" result="shape"/>
</filter>
</defs>
</svg>
