<svg width="76" height="135" viewBox="0 0 76 135" fill="none" xmlns="http://www.w3.org/2000/svg">
<g filter="url(#filter0_d_829_175)">
<path d="M40.6232 9.31988C41.7548 8.7986 42.9161 8.91444 44.1072 9.6674C45.2982 10.3624 46.1916 11.9263 46.7871 14.3589C47.4422 16.7916 47.8591 19.8034 48.0377 23.3945C48.2164 26.9276 48.3057 31.7639 48.3057 37.9035C48.3057 38.251 48.0973 39.4963 47.6804 41.6393C47.2635 43.7824 47.1147 45.3172 47.2338 46.244C49.199 44.1588 51.4621 43.1163 54.0229 43.1163C54.8567 43.1163 55.75 43.29 56.7029 43.6376C58.0726 45.5489 59.2041 47.6051 60.0975 49.8061C61.0503 51.9491 61.5268 54.0921 61.5268 56.2352C61.5268 57.799 61.2588 59.2181 60.7228 60.4923C61.6161 62.4037 62.5987 64.4019 63.6707 66.4871C64.8022 68.5722 66.0826 70.3098 67.5119 71.6999C67.5119 73.6112 66.8568 76.7968 65.5467 81.2567C64.296 85.7165 63.6707 88.9601 63.6707 90.9873C60.157 95.8526 56.6135 100.689 53.0403 105.496C51.611 105.67 50.5092 106.336 49.735 107.495C48.6631 110.448 47.8591 112.389 47.3231 113.315C46.7871 114.184 46.4596 115.777 46.3404 118.094C46.2213 120.411 45.6556 121.975 44.6432 122.785C39.6406 123.886 34.6976 124.957 29.8142 126C28.6231 126 27.164 125.768 25.4369 125.305C23.7099 124.842 21.3575 123.712 18.3798 121.917C15.4021 120.121 13.3772 118.992 12.3053 118.528C13.139 116.964 13.7941 114.445 14.2705 110.97C14.747 107.495 15.3723 104.975 16.1465 103.411C14.5385 99.4726 12.9306 95.505 11.3226 91.5086C9.7742 86.8749 9 82.6468 9 78.824C9 76.3335 9.35732 73.8429 10.072 71.3523C11.9182 62.6064 13.8239 53.7736 15.7892 44.8539C15.6105 43.8113 15.5212 42.9715 15.5212 42.3344V40.7705C16.2954 37.9324 16.8909 35.8183 17.3078 34.4283C17.7247 32.9803 18.4393 31.8798 19.4518 31.1268C19.8091 30.8951 20.4642 30.8372 21.417 30.953C22.3699 31.0689 23.0548 31.1268 23.4717 31.1268C24.3054 31.1268 24.8414 30.6345 25.0796 29.6498C25.3178 28.6652 25.4369 27.4489 25.4369 26.0009C25.3178 23.8578 25.2583 22.265 25.2583 21.2225C25.2583 19.4269 25.4965 18.0079 25.9729 16.9653C26.4494 15.8649 27.164 15.1409 28.1169 14.7933C29.1293 14.4458 29.8439 14.272 30.2608 14.272C30.7373 14.272 31.035 14.272 31.1541 14.272C33.179 14.272 34.7572 15.025 35.8887 16.5309C36.3651 14.6775 36.8118 13.1136 37.2287 11.8394C37.6455 10.5072 38.7771 9.6674 40.6232 9.31988ZM38.2113 11.5788C37.854 12.6792 37.6158 14.0693 37.4967 15.749C37.3775 17.3708 37.318 18.2975 37.318 18.5292C37.318 19.3401 37.3775 20.7591 37.4967 22.7863C37.6158 24.8135 37.6753 26.4063 37.6753 27.5647C38.4495 27.4489 39.8193 27.2172 41.7846 26.8697C43.8094 26.5222 45.3876 26.4063 46.5191 26.5222V16.9653C46.5191 16.3282 46.5191 15.6621 46.5191 14.9671C46.2809 14.1562 46.0427 13.1426 45.8045 11.9263C45.6258 10.652 44.3752 10.0149 42.0525 10.0149C40.6232 10.0149 39.3428 10.5362 38.2113 11.5788ZM29.2782 15.3146C28.0871 16.2993 27.2533 17.4287 26.7769 18.7029C26.36 19.9193 26.1516 21.4541 26.1516 23.3076C26.1516 24.0606 26.2111 25.3058 26.3303 27.0434C26.4494 28.7231 26.5089 30.0263 26.5089 30.953L31.8688 30.0842C33.2981 30.2001 34.1318 30.2001 34.3701 30.0842C34.3701 28.2887 34.4296 26.609 34.5487 25.0452C34.7274 23.4234 34.8763 21.7727 34.9954 20.093C34.9954 18.7029 34.9358 17.6604 34.8167 16.9653C34.1616 15.8649 32.3154 15.3146 29.2782 15.3146ZM46.5191 27.5647C45.2685 27.333 44.3454 27.2172 43.7498 27.2172C41.189 27.2172 39.1642 27.7674 37.6753 28.8679C36.3651 31.706 35.71 34.3124 35.71 36.6871C35.71 37.2663 35.8291 38.0483 36.0674 39.0329C37.0202 39.0329 38.6282 38.9171 40.8912 38.6854C43.1543 38.3958 44.3454 38.251 44.4645 38.251C45.2982 38.251 45.9831 38.3089 46.5191 38.4247C46.7573 37.6139 46.936 36.3107 47.0551 34.5151C47.1742 32.6617 47.2338 31.3006 47.2338 30.4318L46.5191 27.5647ZM33.8341 31.1268C32.4048 30.8951 31.3626 30.8372 30.7075 30.953C30.1119 31.0689 28.6529 31.5033 26.3303 32.2563C25.8538 33.0671 25.7049 34.0518 25.8836 35.2102C26.0623 36.3107 26.0325 37.5559 25.7943 38.946C25.5561 40.2782 25.4369 41.118 25.4369 41.4656C25.4369 42.1606 25.6156 42.8846 25.9729 43.6376L34.8167 42.1606L34.3701 32.2563L33.8341 31.1268ZM20.7024 31.9087C19.3326 32.1404 18.5287 32.8934 18.2904 34.1676L16.3252 43.6376C16.6825 44.1009 17.2185 44.3326 17.9331 44.3326C19.5411 44.3326 21.1788 44.3326 22.8463 44.3326C22.0126 44.3326 21.3575 44.3905 20.8811 44.5064C20.4046 44.8539 19.6304 45.1724 18.5584 45.462C17.546 45.7516 16.8611 46.0123 16.5038 46.244C16.5038 51.8622 15.5212 57.5094 13.5559 63.1856C15.4021 62.4906 17.3078 61.7376 19.2731 60.9267C21.2979 60.0579 22.9357 58.9864 24.1863 57.7122L24.7223 34.5151C24.4841 33.5884 24.0076 32.8355 23.293 32.2563C22.6379 31.6191 21.7744 31.5033 20.7024 31.9087ZM36.246 41.4656L36.0674 53.1944L36.6033 53.9763C37.0798 53.8605 37.854 53.7736 38.926 53.7157C40.0575 53.5998 41.0997 53.484 42.0525 53.3681C43.5414 53.3681 44.5836 53.3102 45.1791 53.1944C45.1791 51.4568 45.3876 49.1979 45.8045 46.4177C46.2809 43.5796 46.6382 41.4656 46.8764 40.0755C45.6258 39.8438 44.7027 39.7279 44.1072 39.7279C41.3081 39.7279 38.6877 40.3071 36.246 41.4656ZM34.3701 43.6376C33.0599 43.5217 31.3924 43.8403 29.3675 44.5932C27.3427 45.3462 26.092 45.7806 25.6156 45.8964C25.7347 49.835 25.9134 53.7157 26.1516 57.5384L33.6554 54.3238L35.174 45.7227L34.3701 43.6376ZM55.9882 44.5064C54.7971 44.2747 53.8145 44.1588 53.0403 44.1588C51.0154 44.1588 49.4968 44.8539 48.4844 46.244C48.2462 47.2286 48.1271 47.9526 48.1271 48.416C48.1271 49.2269 48.276 50.3853 48.5737 51.8912C48.8715 53.3971 49.0204 54.3238 49.0204 54.6713C49.4968 55.4822 49.735 57.0461 49.735 59.3629C49.735 61.6797 50.2412 63.3014 51.2537 64.2282C51.611 63.649 51.8492 63.3014 51.9683 63.1856C51.3728 62.8381 51.2537 62.172 51.611 61.1874C51.9683 60.1448 52.0874 59.276 51.9683 58.581C51.9683 56.9013 53.3083 56.0614 55.9882 56.0614C57.1197 55.9456 57.8344 56.4958 58.1322 57.7122C58.4299 58.8706 58.817 59.5077 59.2935 59.6235C59.5317 58.9285 59.7699 58.0886 60.0081 57.104C60.2463 56.0614 60.3654 54.9609 60.3654 53.8025C60.3654 52.1229 60.0081 50.6169 59.2935 49.2848L55.9882 44.5064ZM36.6033 54.6713L36.0674 55.0189C33.3874 55.3664 30.0822 56.6406 26.1516 58.8416C22.2806 61.0426 19.422 62.4326 17.5758 63.0118C14.6576 63.0118 12.8412 64.373 12.1266 67.0952C11.7097 70.8021 11.3822 73.3506 11.1439 74.7407C11.3822 74.7407 11.7097 74.5959 12.1266 74.3063C12.603 74.0167 12.9604 74.0456 13.1986 74.3932C11.3524 75.8412 10.4293 77.6946 10.4293 79.9535C10.4293 80.996 10.608 82.2124 10.9653 83.6025C11.3226 84.9346 11.6204 86.0061 11.8586 86.817C12.1564 87.57 13.139 90.495 14.8065 95.5919C16.5336 100.689 18.2607 103.672 19.9877 104.541C21.7744 105.351 22.9952 105.815 23.6503 105.931C24.365 106.047 25.1392 106.104 25.9729 106.104C27.2236 106.104 29.2484 105.786 32.0475 105.149C29.7248 106.828 27.0449 107.668 24.0076 107.668C22.9952 107.668 22.2508 107.61 21.7744 107.495L23.293 108.016C24.0076 108.132 24.9605 108.19 26.1516 108.19C27.8787 108.19 29.5462 107.784 31.1541 106.973C32.107 107.552 32.911 107.35 33.5661 106.365C34.2212 105.323 34.6381 104.801 34.8167 104.801L35.174 105.149C34.3998 109.782 33.715 114.416 33.1194 119.05C33.1194 119.86 33.2385 121.106 33.4768 122.785L32.9408 123.307C32.107 121.801 31.6901 120.208 31.6901 118.528C31.6901 117.833 31.8092 116.53 32.0475 114.619C32.2857 112.707 32.4048 111.636 32.4048 111.404C31.571 113.2 30.8861 115.459 30.3502 118.181C29.8737 120.903 29.5164 122.728 29.2782 123.654C31.6008 123.886 33.5959 123.799 35.2634 123.394C36.9904 122.988 38.658 122.496 40.2659 121.917C40.0277 120.353 40.3255 118.036 41.1592 114.966C42.0525 111.896 42.5588 109.811 42.6779 108.711H40.9806C40.2659 108.711 39.4917 108.624 38.658 108.45C37.8838 108.276 37.4371 107.784 37.318 106.973C39.0451 107.205 40.8317 107.379 42.6779 107.495C42.4397 106.915 41.7548 106.568 40.6232 106.452C39.5513 106.336 38.5091 106.075 37.4967 105.67C36.5438 105.207 35.7398 104.019 35.0847 102.108C34.4892 100.139 34.0127 98.6617 33.6554 97.677C34.1318 98.0825 34.6083 98.9223 35.0847 100.197C35.6207 101.413 36.0674 102.137 36.4247 102.369C36.0674 100.805 35.7398 99.2988 35.442 97.8508C35.1443 96.3449 34.9954 94.81 34.9954 93.2462C34.9954 92.2036 35.0549 91.3638 35.174 90.7266L33.6554 97.677L32.9408 96.982C32.8217 96.5186 32.7621 95.8236 32.7621 94.8969C32.7621 92.7538 33.3874 90.4081 34.6381 87.8596C35.9482 85.3111 36.9607 83.3708 37.6753 82.0386C40.2361 80.6485 42.4397 79.4901 44.2858 78.5634C46.132 77.5788 47.9484 76.9706 49.735 76.7389C50.271 76.2756 50.2115 75.0303 49.5564 73.0031C48.9608 70.9759 48.7822 69.6147 49.0204 68.9197L46.3404 69.9623L39.3726 71.6999C35.6803 73.9588 32.9408 75.8412 31.1541 77.3471C29.4271 78.7951 28.2062 80.7064 27.4916 83.0812H25.9729C26.3303 82.6178 26.3898 81.8649 26.1516 80.8223C25.9134 79.7218 25.9134 78.882 26.1516 78.3028L27.4916 80.301C30.2906 76.9416 33.5065 74.3352 37.1393 72.4818C40.8317 70.5704 44.9111 69.0645 49.3777 67.964L50.1817 66.0527C49.2884 65.5893 48.3057 65.3576 47.2338 65.3576C44.9111 65.7051 43.1841 65.8789 42.0525 65.8789C43.065 65.5314 44.1965 65.2128 45.4471 64.9232C46.7573 64.5757 47.8293 64.4019 48.6631 64.4019C48.6631 63.8227 48.6035 62.7222 48.4844 61.1005C48.3653 59.4208 48.3057 58.0886 48.3057 57.104C46.4596 56.6406 45.4174 55.9456 45.1791 55.0189L36.6033 54.6713ZM53.219 58.581C52.8616 58.9285 52.683 59.5077 52.683 60.3186C52.683 61.0715 52.8021 61.6797 53.0403 62.143L54.2016 61.448C54.0825 62.2589 53.5763 63.3883 52.683 64.8363C51.8492 66.2264 51.2834 67.3269 50.9857 68.1378C50.6879 68.8907 50.539 69.8464 50.539 71.0048C50.539 72.8003 50.9261 74.3932 51.7003 75.7832C52.4745 77.1154 53.7252 78.7372 55.4522 80.6485C54.6185 80.4168 53.9336 80.3589 53.3976 80.4748C53.5167 81.1698 53.6656 81.8069 53.8443 82.3861H52.3256C51.9683 82.9653 51.7897 83.5156 51.7897 84.0369C51.7897 84.6161 51.9981 85.4269 52.415 86.4695C52.8318 87.4541 53.0403 88.1202 53.0403 88.4677C52.0874 88.2361 51.4323 87.5121 51.075 86.2957C50.7177 85.0215 50.4795 84.0948 50.3604 83.5156C50.3604 82.7626 50.539 81.72 50.8963 80.3879C51.2537 78.9978 51.3728 78.0132 51.2537 77.434C45.2982 78.5924 40.5339 81.0829 36.9607 84.9057C36.246 87.3962 35.8887 90.2343 35.8887 93.4199C35.8887 96.3738 36.3651 99.154 37.318 101.76C38.4495 103.208 39.9384 104.135 41.7846 104.541C43.6903 104.946 45.9831 105.149 48.6631 105.149C51.1048 104.801 53.3976 102.948 55.5416 99.5884C57.6855 96.229 59.0553 94.2887 59.6508 93.7674C59.2935 93.0724 59.6508 92.4642 60.7228 91.943C61.8543 91.4217 62.4796 90.9004 62.5987 90.3791L65.1893 78.3028C64.8916 78.3028 64.3556 78.5055 63.5814 78.9109C62.8072 79.3164 62.301 79.5191 62.0627 79.5191C61.7054 79.5191 61.3779 79.1716 61.0801 78.4765C64.1769 77.6656 66.0231 75.8412 66.6186 73.0031C66.2613 72.1343 65.6658 71.2655 64.832 70.3967C64.0578 69.5279 63.1943 68.6011 62.2414 67.6165C61.5863 67.8482 60.7228 68.5143 59.6508 69.6147C58.5788 70.6573 57.5962 71.1786 56.7029 71.1786C55.9882 70.9469 55.214 70.3967 54.3803 69.5279C53.6061 68.6011 53.5465 67.5586 54.2016 66.4002C54.7971 65.4735 55.482 64.6336 56.2562 63.8806C57.0304 63.0698 57.8046 62.7802 58.5788 63.0118C56.9709 64.0544 55.9287 64.8074 55.4522 65.2707C54.9758 65.6762 54.678 66.4002 54.5589 67.4427C54.9162 68.8907 55.75 69.7306 57.0602 69.9623C57.5962 69.7306 58.1024 69.1224 58.5788 68.1378C60.3654 68.1378 61.2588 67.4427 61.2588 66.0527C61.2588 65.821 61.1397 65.1259 60.9014 63.9675C60.6632 62.7512 60.6632 61.9693 60.9014 61.6218C60.3059 61.1005 59.5912 60.8398 58.7575 60.8398C58.0428 60.8398 57.2686 61.0426 56.4349 61.448C55.6607 61.7955 55.0949 62.0272 54.7376 62.143C54.3803 61.3901 54.8567 60.7819 56.1669 60.3186C57.5366 59.8552 57.8344 59.1602 57.0602 58.2334C56.7029 58.0018 56.018 57.9438 55.0056 58.0597C54.0527 58.1755 53.4572 58.3493 53.219 58.581ZM17.9331 105.496C16.9803 106.713 16.2954 108.798 15.8785 111.752C15.5212 114.706 15.1639 116.559 14.8065 117.312C18.8562 119.281 22.9654 121.28 27.1342 123.307L29.9928 109.058C29.3973 109.058 28.3551 109.145 26.8662 109.319C25.4369 109.435 24.365 109.493 23.6503 109.493C22.6379 109.493 21.8339 109.435 21.2384 109.319C20.6428 109.145 20.226 108.479 19.9877 107.321C19.7495 106.104 19.0647 105.496 17.9331 105.496ZM43.0352 121.048L43.9285 120.266C43.9285 118.992 44.4049 116.617 45.3578 113.142C46.3702 109.609 46.8764 107.784 46.8764 107.668C45.9831 109.927 45.1196 112.215 44.2858 114.532C43.4521 116.849 43.0352 119.021 43.0352 121.048ZM29.6355 117.312C30.5288 114.416 31.3924 111.549 32.2261 108.711C31.6306 109.811 31.0946 111.143 30.6182 112.707C30.2013 114.213 29.8737 115.748 29.6355 117.312ZM41.1592 121.395C42.1717 118.441 42.9459 115.951 43.4818 113.924C44.0178 111.896 44.4049 110.159 44.6432 108.711C42.797 112.534 41.6952 115.14 41.3379 116.53C40.9806 117.862 40.921 119.484 41.1592 121.395ZM24.7223 71.3523C27.2831 71.1207 30.5288 70.2519 34.4594 68.7459C38.4495 67.1821 40.9806 66.2843 42.0525 66.0527C41.0997 66.2843 38.4495 67.2979 34.1021 69.0935C29.8142 70.8311 26.3303 71.6999 23.6503 71.6999C21.5659 71.6999 19.7197 71.8736 18.1118 72.2211C16.5634 72.5107 15.0447 73.061 13.5559 73.8719C15.0447 72.9451 16.5634 72.2501 18.1118 71.7867C19.7197 71.2655 21.1788 71.0048 22.489 71.0048C23.025 71.0048 23.7694 71.1207 24.7223 71.3523ZM50.8963 52.4993C51.7301 51.4568 53.0701 50.9355 54.9162 50.9355C56.2264 50.9355 57.2091 51.283 57.8642 51.9781L50.8963 52.4993ZM36.9607 56.4089C37.318 57.5094 37.1393 58.9285 36.4247 60.6661C36.3056 60.3186 36.4247 59.6525 36.782 58.6678C37.1393 57.6253 37.1989 56.8723 36.9607 56.4089ZM17.5758 54.6713C17.9331 53.9184 18.4989 53.3971 19.2731 53.1075C20.1068 52.8179 21.2384 52.6152 22.6677 52.4993C21.8339 52.6152 20.9108 52.9917 19.8984 53.6288C18.9455 54.208 18.1713 54.5555 17.5758 54.6713ZM58.9361 62.8381C59.7699 62.3747 60.3059 62.143 60.5441 62.143C59.7104 62.7222 59.1744 62.9539 58.9361 62.8381Z" fill="#CD4138"/>
</g>
<defs>
<filter id="filter0_d_829_175" x="0.642858" y="0.642858" width="75.2262" height="133.714" filterUnits="userSpaceOnUse" color-interpolation-filters="sRGB">
<feFlood flood-opacity="0" result="BackgroundImageFix"/>
<feColorMatrix in="SourceAlpha" type="matrix" values="0 0 0 0 0 0 0 0 0 0 0 0 0 0 0 0 0 0 127 0" result="hardAlpha"/>
<feOffset/>
<feGaussianBlur stdDeviation="4.17857"/>
<feColorMatrix type="matrix" values="0 0 0 0 0.803922 0 0 0 0 0.254902 0 0 0 0 0.219608 0 0 0 0.9 0"/>
<feBlend mode="normal" in2="BackgroundImageFix" result="effect1_dropShadow_829_175"/>
<feBlend mode="normal" in="SourceGraphic" in2="effect1_dropShadow_829_175" result="shape"/>
</filter>
</defs>
</svg>
