<svg width="69" height="135" viewBox="0 0 69 135" fill="none" xmlns="http://www.w3.org/2000/svg">
<g filter="url(#filter0_d_829_177)">
<path d="M38.1515 9.54758C39.1517 9.18253 40.0581 9 40.8708 9C43.0588 9 44.6528 9.94306 45.653 11.8292C46.1531 13.4111 46.5282 15.4797 46.7783 18.0351C47.0283 20.5905 47.1533 22.8112 47.1533 24.6973V28.9867C49.7164 33.2457 52.2481 39.7254 54.7486 48.4259C57.2491 57.1264 58.9995 62.7239 59.9997 65.2184C59.9997 70.9984 59.0308 76.7176 57.0929 82.376C55.2175 88.0343 53.6547 92.7192 52.4044 96.4306C51.2167 98.3167 50.404 100.568 49.9664 103.184C49.5288 105.8 49.31 108.721 49.31 111.945V117.239C47.7472 119.368 45.7468 121.163 43.3088 122.623C40.8708 124.023 37.1826 125.148 32.244 126L19.3039 122.441C19.3039 120.98 18.9913 118.608 18.3662 115.322C17.7411 111.976 17.4285 109.664 17.4285 108.386C14.7405 105.77 12.9276 103.062 11.9899 100.264C11.1147 97.4649 10.052 92.5367 8.80176 85.4789C8.80176 80.7332 9.14558 76.2309 9.83322 71.9719C10.5209 67.7129 11.6461 63.241 13.2089 58.5562C15.2718 57.5218 17.3035 56.4571 19.3039 55.3619C19.0539 53.8409 18.9288 52.6544 18.9288 51.8027C18.9288 50.525 19.2726 49.3994 19.9603 48.4259C20.7104 47.4524 21.6481 46.7527 22.7734 46.3268C23.9611 45.8401 25.4302 45.5967 27.1805 45.5967H29.1497C29.8998 46.3877 30.5875 47.3003 31.2126 48.3346C31.9002 49.369 32.5566 50.525 33.1817 51.8027C33.6818 50.525 33.9944 48.6693 34.1194 46.2356C34.2445 43.741 34.307 42.2808 34.307 41.8549L35.2447 32.9111C34.1194 29.4431 33.0255 25.8838 31.9627 22.2332C31.9627 20.1646 32.8692 18.5523 34.682 17.3963C34.9321 15.2668 35.2134 13.5936 35.526 12.3768C35.8385 11.0991 36.7137 10.156 38.1515 9.54758ZM38.7141 10.2777C36.9012 11.9204 36.2136 14.0499 36.6512 16.6661C38.4016 16.6661 40.0581 17.6092 41.621 19.4953C42.7462 21.1989 43.9652 22.8721 45.278 24.5148V19.8604C45.278 17.0008 45.0904 14.8713 44.7153 13.4719C44.3403 12.0117 43.5276 11.0991 42.2773 10.734C41.0896 10.3081 39.9019 10.156 38.7141 10.2777ZM35.8073 17.9438C34.0569 19.2215 33.1817 20.6513 33.1817 22.2332C33.1817 23.2676 33.7444 25.0016 34.8696 27.4353C36.0573 29.869 36.6512 31.39 36.6512 31.9984C37.1513 33.2153 37.9014 33.8237 38.9017 33.8237C41.3396 33.0936 43.7776 32.3635 46.2156 31.6334L43.1213 24.5148C42.1211 23.1154 41.0583 21.6856 39.9331 20.2254C38.8704 18.7044 37.4951 17.9438 35.8073 17.9438ZM46.9658 32.9111C45.4655 32.546 44.0277 32.6981 42.6524 33.3674C41.3396 34.0367 40.0894 34.7059 38.9017 35.3752C38.5266 36.1053 38.339 36.7137 38.339 37.2005C38.339 38.3565 38.6516 39.4516 39.2767 40.486C39.9644 41.5203 40.6208 42.5546 41.2459 43.5889L48.7474 41.1248L49.31 41.4899L45.653 43.0413L50.8103 42.0374C50.4353 40.5772 50.1852 39.4821 50.0602 38.752L46.9658 32.9111ZM36.2761 36.1053L36.6512 38.1131C36.9012 37.8697 36.9638 37.5047 36.8387 37.0179C36.7137 36.5312 36.5262 36.227 36.2761 36.1053ZM35.9948 39.8471C35.7448 40.4555 35.5572 41.4899 35.4322 42.9501C35.3072 44.3495 35.2447 45.3534 35.2447 45.9618V50.89L40.8708 50.7075C40.6208 48.8214 40.3082 47.3916 39.9331 46.4181C39.6206 45.3838 38.7766 43.1934 37.4013 39.8471H35.9948ZM51.1854 43.5889C50.8103 43.4672 50.2477 43.4064 49.4976 43.4064C48.0598 43.4064 46.747 43.5889 45.5593 43.954C44.434 44.319 43.0588 44.9275 41.4334 45.7793C41.9335 48.3955 42.3399 50.1903 42.6524 51.1638C42.965 52.0764 43.6526 52.9587 44.7153 53.8105C45.2154 53.6888 45.9656 53.6279 46.9658 53.6279C47.9035 53.6279 49.1225 53.8409 50.6228 54.2668C52.1856 54.6318 53.5296 54.936 54.6549 55.1794L53.9047 51.8027L51.1854 43.5889ZM23.1484 47.3307C21.2731 48.6693 20.4604 50.2816 20.7104 52.1677C22.4608 50.0382 24.7425 48.9735 27.5556 48.9735C28.7433 48.9735 29.5873 49.2169 30.0874 49.7036C29.5873 47.7566 28.2432 46.7832 26.0553 46.7832C25.1801 46.7832 24.2112 46.9657 23.1484 47.3307ZM26.4304 50.89C25.5552 51.1334 24.7738 51.5593 24.0861 52.1677C23.461 52.7761 22.8359 53.6583 22.2107 54.8144C21.7106 55.6661 21.8357 56.2137 22.5858 56.4571C23.336 56.7005 24.555 57.0047 26.2428 57.3697C25.9928 56.6396 26.2116 55.9095 26.8992 55.1794C27.5868 54.4493 28.337 53.6888 29.1497 52.8978C28.212 52.2894 27.3055 51.6201 26.4304 50.89ZM37.7764 51.6201C37.0263 51.8635 36.4011 52.046 35.901 52.1677C35.4635 52.2894 35.1821 52.5328 35.0571 52.8978C35.6822 53.2629 36.4637 53.3237 37.4013 53.0803C38.4016 52.837 39.433 52.5328 40.4957 52.1677C38.8079 51.8027 37.9014 51.6201 37.7764 51.6201ZM31.7752 53.8105C31.025 55.2098 30.3999 56.2137 29.8998 56.8222C29.3997 57.4306 28.6808 58.0694 27.7431 58.7387C26.7429 59.3471 25.4927 59.2254 23.9924 58.3736C22.5546 57.461 21.5856 57.1264 21.0855 57.3697V58.5562C23.7736 62.0242 26.3053 64.3666 28.6808 65.5835C31.0563 66.7395 33.2442 67.1349 35.2447 66.7699C35.2447 67.2566 34.8696 67.6217 34.1194 67.8651C33.7444 68.8385 33.9944 69.7207 34.8696 70.5117C35.8073 71.2418 36.6512 71.9111 37.4013 72.5195C37.1513 72.7629 36.9325 72.915 36.745 72.9758C36.5574 73.0367 36.4011 73.0671 36.2761 73.0671C36.4011 74.2231 36.9325 75.3791 37.8702 76.5351C38.8079 77.6303 39.5268 78.4821 40.0269 79.0905L39.6518 79.4555C38.2765 78.9688 37.0888 78.0562 36.0886 76.7176C35.1509 75.3183 34.4945 74.2535 34.1194 73.5234C29.9936 78.7559 27.9307 84.7793 27.9307 91.5936C27.9307 95.6092 28.6496 99.0468 30.0874 101.906C30.9625 102.028 32.4941 102.332 34.682 102.819C36.87 103.306 38.4641 103.549 39.4643 103.549C40.652 103.549 41.8085 103.367 42.9337 103.002C46.9345 100.75 49.31 97.8604 50.0602 94.3315C50.8103 90.7418 51.1854 85.7831 51.1854 79.4555C51.0604 79.6989 50.8416 79.8814 50.529 80.0031C50.2165 80.1248 49.8726 80.2465 49.4976 80.3682C50.1227 79.5164 50.6541 78.6037 51.0916 77.6303C51.5292 76.5959 51.748 75.6529 51.748 74.8011C51.748 74.3144 51.6855 73.8885 51.5605 73.5234L41.4334 60.929L38.7141 64.1232C37.2138 64.7317 36.2449 64.7925 35.8073 64.3058L40.3082 58.5562C39.6206 57.7652 38.214 56.883 36.0886 55.9095C34.0257 54.936 32.5879 54.2364 31.7752 53.8105ZM37.7764 54.2668C37.7764 54.7535 38.2453 55.1186 39.183 55.3619C40.1832 55.6053 40.5582 55.2402 40.3082 54.2668H37.7764ZM27.7431 56.6396C29.1809 55.9095 29.7123 55.1794 29.3372 54.4493C28.9621 54.571 28.5245 54.9056 28.0244 55.4532C27.5868 56.0008 27.4931 56.3963 27.7431 56.6396ZM48.7474 54.9969L46.2156 54.4493L45.8406 54.8144L48.7474 54.9969ZM41.621 54.8144C41.3709 55.0577 41.1834 55.4228 41.0583 55.9095C40.9333 56.3963 41.0583 56.7613 41.4334 57.0047C41.9335 57.0047 42.7462 56.4571 43.8714 55.3619C43.3713 54.8752 42.6212 54.6927 41.621 54.8144ZM55.405 57.7348C55.0299 57.6131 53.8109 57.2785 51.748 56.7309C49.7476 56.1833 48.2161 55.9095 47.1533 55.9095C45.653 55.9095 44.434 56.3963 43.4963 57.3697C43.2463 58.4041 43.5276 59.4992 44.3403 60.6552C45.2154 61.7504 45.9031 62.7239 46.4032 63.5757C46.9033 64.4275 47.8722 64.8534 49.31 64.8534C50.1852 64.8534 51.498 64.5491 53.2483 63.9407C55.0612 63.3323 56.4365 63.0281 57.3742 63.0281L56.8116 59.8339L55.405 57.7348ZM18.1787 57.3697C16.7409 58.039 15.4906 58.7083 14.4279 59.3775C13.3652 60.0468 12.8338 61.2028 12.8338 62.8456C12.4588 63.454 12.2712 64.1232 12.2712 64.8534C12.2712 65.766 12.5213 66.5874 13.0214 67.3175C13.5215 68.0476 14.2091 68.4126 15.0843 68.4126C13.9591 67.1958 13.3027 66.3744 13.1151 65.9485C12.9276 65.4618 12.9589 64.9142 13.2089 64.3058L13.9591 64.4883C13.9591 64.2449 13.9591 63.7582 13.9591 63.0281C13.9591 62.298 14.2091 61.8417 14.7092 61.6591C15.4594 65.553 16.5533 68.8081 17.9911 71.4243C19.4289 74.0406 20.5542 76.0484 21.3668 77.4477C22.1795 78.7863 23.1797 79.5772 24.3674 79.8206C23.8048 79.4555 23.5235 78.7254 23.5235 77.6303V75.5312C23.7736 73.8885 24.7425 73.3409 26.4304 73.8885C26.1803 72.0023 26.024 70.4813 25.9615 69.3253C25.899 68.1084 25.6177 66.8612 25.1176 65.5835C24.1799 64.975 23.2422 64.1232 22.3045 63.0281C21.3668 61.8721 19.9915 59.986 18.1787 57.3697ZM39.0892 62.4805L40.3082 60.3814L38.5266 62.663L39.0892 62.4805ZM57.3742 64.4883C54.6861 64.4883 51.8731 65.1271 48.935 66.4048L51.1854 69.3253C52.4982 69.3253 53.8422 68.9298 55.2175 68.1388C56.6553 67.3479 57.6867 66.8307 58.3119 66.5874L57.3742 64.4883ZM28.212 72.8846C28.462 70.2683 28.9621 68.5952 29.7123 67.8651C28.9621 67.5 28.337 67.3783 27.8369 67.5C27.3993 67.6217 27.1805 67.9259 27.1805 68.4126C27.4306 69.9337 27.7744 71.4243 28.212 72.8846ZM56.2489 68.9602H56.9991C57.2491 69.6295 56.7178 70.2075 55.405 70.6942C54.1548 71.181 53.4671 71.7285 53.3421 72.337C53.8422 73.493 54.0923 75.0445 54.0923 76.9914C53.9672 80.2769 53.8422 83.4711 53.7172 86.5741C54.8424 82.4368 55.7801 78.908 56.5303 75.9875C57.3429 73.0671 57.9368 70.5421 58.3119 68.4126C57.6867 68.291 57.2179 68.3214 56.9053 68.5039C56.5928 68.6864 56.374 68.8385 56.2489 68.9602ZM15.4594 70.5117C15.2093 70.39 14.7092 70.025 13.9591 69.4165C13.2089 68.7473 12.5525 68.7169 11.9899 69.3253C11.8649 70.1162 11.5211 71.9719 10.9584 74.8924C10.3958 77.8128 10.1145 80.0944 10.1145 81.7371V83.7449C11.3648 89.2207 12.4588 93.9056 13.3964 97.7995C14.3966 101.633 16.3033 104.796 19.1164 107.291H21.4606C23.3985 107.291 25.0863 107.078 26.5241 106.652C28.0244 106.226 29.2747 105.374 30.2749 104.097C27.7119 99.4119 26.4304 94.514 26.4304 89.4033C26.4304 86.7871 26.7429 84.5967 27.368 82.8323C26.8679 83.8058 26.3991 84.8401 25.9615 85.9353C25.5239 86.9696 25.3676 87.9126 25.4927 88.7644C25.6177 89.7988 25.6802 90.5593 25.6802 91.046C25.6802 91.6544 25.4927 92.0803 25.1176 92.3237C24.1799 91.3502 23.7111 90.1638 23.7111 88.7644C23.7111 87.5476 23.9298 86.3307 24.3674 85.1139C24.8675 83.8362 25.3676 82.5889 25.8677 81.3721L24.3674 81.7371C23.4297 80.8245 22.5858 80.3682 21.8357 80.3682C20.9605 80.3682 20.0228 81.0679 19.0226 82.4672C18.0849 83.8058 17.4285 84.5967 17.0534 84.8401L16.6784 84.2925L20.1478 79.273C19.2101 78.0562 18.3662 76.6568 17.6161 75.0749C16.8659 73.493 16.147 71.9719 15.4594 70.5117ZM30.2749 70.8768C29.6498 71.4852 29.7123 72.8541 30.4624 74.9836C30.9625 74.8619 31.4001 74.5881 31.7752 74.1622C32.2128 73.7364 32.7441 72.8237 33.3693 71.4243C33.1192 70.9376 32.6191 70.7247 31.869 70.7855C31.1813 70.8463 30.65 70.8768 30.2749 70.8768ZM25.6802 75.7137C24.93 75.9571 24.6175 76.4438 24.7425 77.174C24.9926 77.8432 25.3051 78.4821 25.6802 79.0905C26.6804 78.7254 27.243 78.0866 27.368 77.174C27.243 76.8089 27.0867 76.383 26.8992 75.8963C26.7117 75.4095 26.3053 75.3487 25.6802 75.7137ZM44.1527 104.736H45.653C45.653 104.431 45.653 104.097 45.653 103.732C44.7779 103.488 44.2778 103.823 44.1527 104.736ZM44.7153 117.969C45.0904 115.839 45.278 113.953 45.278 112.31C45.1529 109.573 45.0904 107.413 45.0904 105.831C44.4653 108.082 44.1527 110.394 44.1527 112.767C44.1527 114.714 44.3403 116.448 44.7153 117.969ZM34.8696 107.291C34.7446 106.804 34.5258 106.622 34.2132 106.743C33.9006 106.865 33.6193 106.987 33.3693 107.108V123.353C33.6193 123.353 34.1194 123.293 34.8696 123.171V107.291ZM35.9948 107.291C35.9948 108.569 35.9636 109.877 35.901 111.215C35.8385 112.493 35.8073 113.801 35.8073 115.14C35.8073 118.121 36.0886 120.676 36.6512 122.806L39.0892 122.441C40.777 122.076 41.9648 121.406 42.6524 120.433C43.3401 119.399 43.6839 118.151 43.6839 116.691C43.6839 115.657 43.4963 113.953 43.1213 111.58C42.7462 109.207 42.6837 107.534 42.9337 106.561L35.9948 107.291ZM31.5877 107.108C31.5877 108.995 31.5251 110.85 31.4001 112.676C31.2751 114.44 31.1501 116.204 31.025 117.969C31.025 119.855 31.2126 121.711 31.5877 123.536C32.4003 119.946 32.8067 116.539 32.8067 113.314L32.4316 107.108H31.5877ZM25.4927 110.12C24.7425 110.485 23.7111 110.668 22.3983 110.668C21.2731 110.668 20.5229 110.242 20.1478 109.39C20.1478 111.094 20.2729 113.132 20.5229 115.505C20.773 117.878 21.023 119.946 21.2731 121.711L29.7123 123.353C29.8373 122.623 29.9623 121.041 30.0874 118.608C30.2124 116.174 30.2749 114.896 30.2749 114.775V107.839L25.4927 110.12ZM25.4927 92.9626L28.212 100.355C27.6494 99.9899 27.1493 99.1989 26.7117 97.9821C26.2741 96.7044 25.8677 95.5179 25.4927 94.4228V92.9626ZM34.307 64.4883C34.682 63.3931 35.3697 62.298 36.3699 61.2028C37.4326 60.0468 38.5891 59.1646 39.8393 58.5562C38.7141 59.2863 37.6514 60.2902 36.6512 61.5679C35.7135 62.7847 34.9321 63.7582 34.307 64.4883ZM38.5266 65.2184C38.7766 64.2449 39.6831 63.3931 41.2459 62.663C40.9958 63.3931 40.0894 64.2449 38.5266 65.2184Z" fill="#CD4138"/>
</g>
<defs>
<filter id="filter0_d_829_177" x="0.444615" y="0.642858" width="67.912" height="133.714" filterUnits="userSpaceOnUse" color-interpolation-filters="sRGB">
<feFlood flood-opacity="0" result="BackgroundImageFix"/>
<feColorMatrix in="SourceAlpha" type="matrix" values="0 0 0 0 0 0 0 0 0 0 0 0 0 0 0 0 0 0 127 0" result="hardAlpha"/>
<feOffset/>
<feGaussianBlur stdDeviation="4.17857"/>
<feColorMatrix type="matrix" values="0 0 0 0 0.803922 0 0 0 0 0.254902 0 0 0 0 0.219608 0 0 0 0.9 0"/>
<feBlend mode="normal" in2="BackgroundImageFix" result="effect1_dropShadow_829_177"/>
<feBlend mode="normal" in="SourceGraphic" in2="effect1_dropShadow_829_177" result="shape"/>
</filter>
</defs>
</svg>
