<svg width="109" height="99" viewBox="0 0 109 99" fill="none" xmlns="http://www.w3.org/2000/svg">
<g filter="url(#filter0_d_829_176)">
<path d="M85.6926 11.4934L100.472 16.6584C99.9726 21.6453 99.5985 25.8901 99.3491 29.3928C99.0996 32.8955 97.8836 35.8045 95.7011 38.1199L89.9953 46.936H88.5922C85.412 44.5019 82.7306 42.4834 80.548 40.8804C78.3655 39.2775 75.9959 38.1199 73.4392 37.4074L71.1943 45.7783C70.446 46.5501 67.0786 49.6669 61.0922 55.1287C55.1682 60.5905 51.832 65.993 51.0837 71.3361C50.1483 72.5234 49.2753 74.8388 48.4647 78.2821C47.654 81.666 46.8745 83.922 46.1262 85.05C44.9414 85.7624 43.6631 86.1186 42.2912 86.1186C40.4828 86.1186 38.7368 85.5546 37.0531 84.4266C35.1824 82.5269 34.247 79.796 34.247 76.2339C34.247 75.0465 34.3405 73.7701 34.5276 72.4047C34.7147 70.9799 35.0576 69.5254 35.5565 68.0412C33.1245 68.2786 30.6926 68.4567 28.2606 68.5755C27.8864 68.6942 27.5123 68.4864 27.1381 67.9521C26.764 67.4178 26.3898 67.21 26.0157 67.3288C25.0803 68.5161 23.7084 72.3156 21.9 78.7273C20.154 85.0797 17.2855 88.998 13.2946 90.4821C11.2991 90.4821 9.70898 89.8885 8.52417 88.7011C11.5797 73.9779 14.7288 59.2547 17.9715 44.5316C18.2209 43.2848 18.0338 41.7116 17.4102 39.8118C16.849 37.8527 16.5684 36.5763 16.5684 35.9826C16.5684 35.3296 16.7555 34.5281 17.1296 33.5782C21.37 29.9568 27.2628 26.2463 34.8082 22.4468C42.3536 18.5879 48.0282 15.6789 51.832 13.7197C59.6268 12.1168 67.484 10.5436 75.4035 9C79.2073 9 82.637 9.83115 85.6926 11.4934ZM67.7334 11.3153C67.1098 11.4341 65.4885 11.7606 62.8694 12.2949C60.2504 12.7698 57.2884 13.3042 53.9834 13.8978C50.7407 14.4915 48.1841 15.8867 46.3133 18.0833C45.1285 18.6769 44.0996 19.2706 43.2266 19.8643C42.3536 20.3986 41.4494 20.6658 40.514 20.6658C38.3314 21.6156 35.5877 23.0998 32.2827 25.1183C28.9777 27.1368 26.421 28.621 24.6126 29.5709C25.3609 29.5709 26.4522 29.2444 27.8864 28.5913C29.3207 27.8789 30.2872 27.5227 30.7861 27.5227C29.9754 28.4132 28.2294 29.3928 25.548 30.4614C22.8666 31.4707 21.2764 32.8064 20.7776 34.4687C20.7776 37.6746 20.1852 41.5038 19.0004 45.9564C17.8779 50.3496 16.6308 55.2177 15.2589 60.5608C15.633 60.6796 16.1007 60.7686 16.6619 60.828C17.2232 60.8874 17.5038 61.0951 17.5038 61.4514C17.0049 61.9857 16.506 62.2528 16.0072 62.2528L17.1296 63.3214C17.0049 63.7964 16.5684 63.9745 15.8201 63.8557C15.0718 63.737 14.3859 65.1618 13.7623 68.1302C13.201 71.0986 12.4839 75.2543 11.6109 80.5974C11.6109 82.0816 11.798 83.5658 12.1721 85.05C11.4238 86.2374 10.7379 87.3653 10.1143 88.434C10.6132 88.9683 11.3615 89.2354 12.3592 89.2354C12.7334 89.2354 13.1075 89.2354 13.4817 89.2354C14.0429 88.998 14.5729 88.7605 15.0718 88.523C15.5707 88.2262 16.0695 87.7809 16.5684 87.1872C17.0673 86.5936 17.6597 85.6734 18.3456 84.4266C18.9692 82.6456 19.5928 80.8349 20.2164 78.9945C20.2164 78.1634 19.7798 77.4806 18.9068 76.9463C20.154 76.1152 21.1517 74.8091 21.9 73.028C22.7107 71.1876 23.4278 69.4066 24.0514 67.685C24.0514 67.3288 23.8331 67.121 23.3966 67.0616C22.9601 67.0022 22.5548 66.9132 22.1806 66.7944L21.9936 65.2806L24.9868 64.7463C26.1716 61.1248 27.3252 57.4143 28.4477 53.6148C28.4477 52.19 28.1359 50.9136 27.5123 49.7856C27.8864 49.4294 28.3853 49.5778 29.0089 50.2309C29.6948 50.8245 30.2872 50.9136 30.7861 50.498L29.7572 52.19C32.4386 52.7837 34.6211 51.9228 36.3048 49.6075C34.8082 48.7763 33.7793 48.0046 33.2181 47.2922C32.0956 47.2922 31.5344 46.8469 31.5344 45.9564C31.7838 45.1252 31.9709 44.4425 32.0956 43.9082C32.2203 43.3739 32.2203 42.8989 32.0956 42.4834C32.4698 42.4834 32.8439 42.8099 33.2181 43.4629C32.9686 45.244 34.0911 46.6985 36.5854 47.8265C39.0797 48.8951 40.514 49.934 40.8881 50.9433C40.7634 49.934 40.171 48.806 39.1109 47.5593C38.1132 46.2532 37.552 45.4221 37.4272 45.0659L41.6364 48.5389C41.6364 47.9452 41.387 47.1141 40.8881 46.0454C40.3893 44.9174 40.1398 44.0566 40.1398 43.4629C41.0129 44.6503 41.7923 45.5705 42.4783 46.2235C43.2266 46.8172 43.6007 47.5296 43.6007 48.3608C43.6007 48.9545 43.476 49.6669 43.2266 50.498C42.9771 51.2698 42.6965 52.279 42.3847 53.5258C42.0729 54.7131 40.857 57.8893 38.7368 63.0543C36.6166 68.2193 35.5565 72.1969 35.5565 74.9872C35.5565 77.3025 35.993 79.4991 36.866 81.577C37.4896 79.7366 38.0508 78.2227 38.5497 77.0354C39.1109 75.7886 40.1398 75.1653 41.6364 75.1653C44.1931 75.1653 45.7521 75.9668 46.3133 77.5697C47.311 74.6013 48.3088 71.6626 49.3065 68.7536C48.6829 68.8723 48.0282 68.9317 47.3422 68.9317C46.6563 68.9317 46.1886 68.9317 45.9392 68.9317C44.1308 68.9317 42.6965 68.5755 41.6364 67.8631C41.9482 67.7443 42.26 67.685 42.5718 67.685C42.8836 67.685 43.2266 67.685 43.6007 67.685L42.1041 66.4382C42.603 65.9039 43.2889 65.6368 44.1619 65.6368C44.7855 65.6368 45.7521 65.9336 47.0616 66.5273C48.4335 67.0616 49.5248 67.21 50.3354 66.9725C50.7096 65.0134 52.0191 62.5793 54.264 59.6703C56.5713 56.7613 57.8808 55.0693 58.1926 54.5944L56.4154 53.0805L53.5157 50.498C54.4511 50.7948 55.6671 51.3292 57.1637 52.1009C58.7226 52.8727 59.7515 53.2586 60.2504 53.2586C61.2481 53.2586 62.2147 52.6056 63.1501 51.2995C66.455 49.5778 68.9806 45.8673 70.7266 40.168C72.535 34.4094 74.5304 30.6989 76.713 29.0366C80.4545 28.6804 83.7595 29.3928 86.628 31.1738C89.4964 32.8955 92.1467 34.4391 94.5787 35.8045C95.9505 34.2016 96.8547 32.3909 97.2912 30.3724C97.7901 28.3539 98.0395 25.9495 98.0395 23.1592V18.6176C98.0395 17.6677 97.0106 17.0146 94.9528 16.6584C92.895 16.2429 89.5588 15.0555 84.9443 13.0964C80.3921 11.0779 76.7753 10.0686 74.0939 10.0686C71.7867 10.0686 69.6665 10.4842 67.7334 11.3153ZM79.7997 31.1738V31.9753L91.4919 40.7023C91.4919 40.5836 91.7413 40.2868 92.2402 39.8118C92.7391 39.2775 92.8638 38.8323 92.6144 38.4761C91.2425 36.695 89.5588 35.3296 87.5633 34.3797C85.5679 33.3704 82.98 32.3018 79.7997 31.1738ZM78.8643 33.0439C80.1115 34.2313 81.5458 35.4483 83.1671 36.695C84.8508 37.8824 86.3474 38.8026 87.6569 39.4556C86.9086 38.4464 85.8485 37.4074 84.4766 36.3388C83.1671 35.2108 81.2963 34.1125 78.8643 33.0439ZM18.9068 33.5782C18.408 34.0532 18.1585 34.5875 18.1585 35.1811C18.1585 35.8342 18.3456 36.3388 18.7198 36.695L18.9068 33.5782ZM79.7997 37.0512L76.9001 35.6264L80.7351 38.1199L79.7997 37.0512ZM84.5701 39.2775L89.5276 43.641C89.7147 43.5223 89.8082 43.4036 89.8082 43.2848C89.8082 43.1661 89.8706 42.8396 89.9953 42.3053C88.6858 41.8303 87.5633 41.296 86.628 40.7023C85.7549 40.1087 85.069 39.6337 84.5701 39.2775ZM37.4272 50.9433V51.6557C38.3626 51.6557 38.8303 51.5369 38.8303 51.2995C38.1444 51.062 37.6767 50.9433 37.4272 50.9433ZM30.599 54.5944L26.9511 65.2806L27.8864 66.7944C28.8842 67.0319 29.6636 67.1506 30.2249 67.1506C31.2226 67.1506 32.3139 66.9132 33.4987 66.4382C34.7458 65.9039 35.6812 65.518 36.3048 65.2806C37.4896 61.3029 38.7056 57.2956 39.9528 53.2586C38.8303 53.2586 37.9885 53.2586 37.4272 53.2586C37.1778 55.3365 36.8037 56.9394 36.3048 58.0674C35.8059 59.136 34.777 60.0859 33.2181 60.917C33.904 59.8484 34.5588 58.7501 35.1824 57.6221C35.8059 56.4348 36.1177 55.2177 36.1177 53.971C36.1177 53.3773 36.0554 52.9024 35.9307 52.5462C35.3071 52.7837 34.4029 53.1399 33.2181 53.6148C32.0956 54.0898 31.2226 54.4163 30.599 54.5944ZM44.1619 76.7682C43.2889 76.412 42.6342 76.2042 42.1977 76.1449C41.8235 76.0855 41.4494 76.2933 41.0752 76.7682C42.0106 77.54 43.1642 77.6587 44.5361 77.1244L44.1619 76.7682ZM39.0174 78.6383C38.6432 80.0631 38.4562 80.924 38.4562 81.2208C38.4562 81.8145 38.768 82.2894 39.3915 82.6456C40.8881 82.8831 42.0418 83.0018 42.8524 83.0018C43.6007 83.0018 44.2243 82.7644 44.7232 82.2894C45.3468 80.5677 45.3468 79.3507 44.7232 78.6383C44.349 78.8758 43.7254 78.8461 42.8524 78.5492C42.0418 78.2524 41.1999 77.9259 40.3269 77.5697C39.828 77.5697 39.3915 77.9259 39.0174 78.6383ZM38.082 82.6456C39.7033 84.486 41.4182 85.0797 43.2266 84.4266C41.7923 84.1892 40.7322 83.9814 40.0463 83.8033C39.3604 83.6252 38.7056 83.2393 38.082 82.6456ZM11.0497 85.5843V83.7142L10.3014 85.9405L11.0497 85.5843ZM43.6007 64.39C45.908 64.39 47.8099 65.1321 49.3065 66.6163L43.6007 64.39ZM75.7776 11.1372C76.6506 10.8998 77.6172 11.0185 78.6773 11.4934C79.9244 12.384 80.7975 13.0073 81.2963 13.3635L75.7776 11.1372ZM52.9545 51.6557L56.0412 52.7243C55.5423 52.843 55.0123 52.7837 54.4511 52.5462C53.9522 52.3087 53.4533 52.0119 52.9545 51.6557ZM66.6109 38.8323C67.3592 35.8045 68.4193 33.0439 69.7912 30.5505C71.2255 28.057 73.1586 26.0979 75.5905 24.6731C73.5327 26.3354 71.8179 28.8882 70.446 32.3315C70.3213 32.2128 70.2589 32.0347 70.2589 31.7972C69.4482 32.5096 68.7623 33.5782 68.2011 35.003C67.6399 36.3685 67.1098 37.6449 66.6109 38.8323ZM31.3473 60.3827C31.5967 60.5015 31.815 60.8577 32.0021 61.4514C32.1892 61.9857 32.5321 62.1044 33.031 61.8076C32.0333 62.5793 31.4097 62.4606 31.1602 61.4514L31.3473 60.3827Z" fill="#CD4138"/>
</g>
<defs>
<filter id="filter0_d_829_176" x="0.167027" y="0.642858" width="108.662" height="98.1965" filterUnits="userSpaceOnUse" color-interpolation-filters="sRGB">
<feFlood flood-opacity="0" result="BackgroundImageFix"/>
<feColorMatrix in="SourceAlpha" type="matrix" values="0 0 0 0 0 0 0 0 0 0 0 0 0 0 0 0 0 0 127 0" result="hardAlpha"/>
<feOffset/>
<feGaussianBlur stdDeviation="4.17857"/>
<feColorMatrix type="matrix" values="0 0 0 0 0.803922 0 0 0 0 0.254902 0 0 0 0 0.219608 0 0 0 0.9 0"/>
<feBlend mode="normal" in2="BackgroundImageFix" result="effect1_dropShadow_829_176"/>
<feBlend mode="normal" in="SourceGraphic" in2="effect1_dropShadow_829_176" result="shape"/>
</filter>
</defs>
</svg>
