<svg width="43" height="76" viewBox="0 0 43 76" fill="none" xmlns="http://www.w3.org/2000/svg">
<g filter="url(#filter0_d_893_1188)">
<path d="M22.9319 5.18044C23.5736 4.88639 24.2321 4.95173 24.9075 5.37648C25.5829 5.76856 26.0894 6.65072 26.4271 8.02298C26.7986 9.39525 27.035 11.0942 27.1363 13.12C27.2376 15.113 27.2883 17.8412 27.2883 21.3045C27.2883 21.5005 27.1701 22.203 26.9337 23.4119C26.6973 24.6208 26.6129 25.4866 26.6804 26.0094C27.7948 24.8332 29.0781 24.2451 30.5302 24.2451C31.003 24.2451 31.5095 24.3431 32.0499 24.5391C32.8266 25.6173 33.4682 26.7772 33.9748 28.0188C34.5151 29.2277 34.7852 30.4366 34.7852 31.6455C34.7852 32.5276 34.6333 33.3281 34.3293 34.0469C34.8359 35.1251 35.3931 36.2524 36.001 37.4286C36.6426 38.6048 37.3687 39.585 38.1791 40.3691C38.1791 41.4473 37.8077 43.2444 37.0647 45.7602C36.3556 48.276 36.001 50.1057 36.001 51.2492C34.0085 53.9937 31.9992 56.7219 29.973 59.4338C29.1625 59.5318 28.5378 59.9075 28.0988 60.561C27.4909 62.2273 27.035 63.3218 26.7311 63.8446C26.4271 64.3347 26.2414 65.2332 26.1739 66.5401C26.1063 67.847 25.7855 68.7292 25.2114 69.1866C22.3747 69.8074 19.5718 70.4119 16.8027 71C16.1273 71 15.2999 70.8693 14.3206 70.6079C13.3412 70.3465 12.0073 69.7094 10.3188 68.6965C8.63029 67.6837 7.4821 67.0466 6.87424 66.7852C7.34702 65.903 7.71849 64.4817 7.98866 62.5214C8.25882 60.561 8.6134 59.1397 9.05241 58.2575C8.14062 56.0358 7.22883 53.7977 6.31703 51.5433C5.43901 48.9294 5 46.5443 5 44.3879C5 42.983 5.20262 41.578 5.60786 40.1731C6.65474 35.2395 7.73538 30.2569 8.84979 25.2253C8.74848 24.6371 8.69783 24.1634 8.69783 23.804V22.9218C9.13684 21.3208 9.47454 20.1283 9.71093 19.3441C9.94732 18.5273 10.3526 17.9065 10.9267 17.4818C11.1293 17.3511 11.5007 17.3184 12.0411 17.3838C12.5814 17.4491 12.9697 17.4818 13.2061 17.4818C13.6789 17.4818 13.9829 17.2041 14.1179 16.6486C14.253 16.0932 14.3206 15.4071 14.3206 14.5902C14.253 13.3813 14.2192 12.4828 14.2192 11.8947C14.2192 10.8819 14.3543 10.0814 14.6245 9.49326C14.8946 8.87248 15.2999 8.46407 15.8402 8.26803C16.4143 8.07199 16.8195 7.97398 17.0559 7.97398C17.3261 7.97398 17.4949 7.97398 17.5625 7.97398C18.7107 7.97398 19.6056 8.39872 20.2472 9.24822C20.5174 8.20269 20.7706 7.32052 21.007 6.60171C21.2434 5.85024 21.8851 5.37648 22.9319 5.18044ZM21.5642 6.45469C21.3616 7.07547 21.2265 7.85962 21.159 8.80713C21.0915 9.72197 21.0577 10.2447 21.0577 10.3754C21.0577 10.8329 21.0915 11.6333 21.159 12.7769C21.2265 13.9204 21.2603 14.8189 21.2603 15.4724C21.6993 15.4071 22.476 15.2764 23.5905 15.0803C24.7386 14.8843 25.6335 14.8189 26.2752 14.8843V9.49326C26.2752 9.13386 26.2752 8.75812 26.2752 8.36605C26.1401 7.90863 26.005 7.33685 25.8699 6.65072C25.7686 5.93192 25.0595 5.57252 23.7424 5.57252C22.9319 5.57252 22.2059 5.86657 21.5642 6.45469ZM16.4987 8.56209C15.8233 9.11753 15.3505 9.75465 15.0804 10.4735C14.844 11.1596 14.7258 12.0254 14.7258 13.0709C14.7258 13.4957 14.7596 14.1982 14.8271 15.1783C14.8946 16.1259 14.9284 16.861 14.9284 17.3838L17.9677 16.8937C18.7782 16.959 19.251 16.959 19.3861 16.8937C19.3861 15.8808 19.4198 14.9333 19.4874 14.0511C19.5887 13.1363 19.6731 12.2051 19.7407 11.2576C19.7407 10.4735 19.7069 9.88534 19.6393 9.49326C19.2679 8.87248 18.221 8.56209 16.4987 8.56209ZM26.2752 15.4724C25.566 15.3417 25.0426 15.2764 24.7049 15.2764C23.2528 15.2764 22.1046 15.5868 21.2603 16.2075C20.5174 17.8085 20.1459 19.2788 20.1459 20.6184C20.1459 20.9451 20.2134 21.3862 20.3485 21.9416C20.8888 21.9416 21.8006 21.8763 23.0839 21.7456C24.3672 21.5822 25.0426 21.5005 25.1101 21.5005C25.5829 21.5005 25.9712 21.5332 26.2752 21.5986C26.4103 21.1411 26.5116 20.406 26.5791 19.3931C26.6466 18.3476 26.6804 17.5798 26.6804 17.0897L26.2752 15.4724ZM19.0821 17.4818C18.2717 17.3511 17.6807 17.3184 17.3092 17.3838C16.9715 17.4491 16.1441 17.6942 14.8271 18.1189C14.5569 18.5763 14.4725 19.1318 14.5738 19.7852C14.6751 20.406 14.6583 21.1085 14.5232 21.8926C14.3881 22.6441 14.3206 23.1179 14.3206 23.3139C14.3206 23.706 14.4219 24.1144 14.6245 24.5391L19.6393 23.706L19.3861 18.1189L19.0821 17.4818ZM11.6358 17.9229C10.8591 18.0536 10.4032 18.4783 10.2681 19.1971L9.15372 24.5391C9.35635 24.8005 9.66028 24.9312 10.0655 24.9312C10.9773 24.9312 11.906 24.9312 12.8516 24.9312C12.3788 24.9312 12.0073 24.9639 11.7371 25.0292C11.467 25.2253 11.028 25.405 10.4201 25.5683C9.84601 25.7317 9.45766 25.8787 9.25503 26.0094C9.25503 29.1787 8.69783 32.3643 7.58341 35.5662C8.63029 35.1742 9.71093 34.7494 10.8253 34.292C11.9735 33.8019 12.9022 33.1974 13.6114 32.4786L13.9153 19.3931C13.7802 18.8704 13.5101 18.4456 13.1048 18.1189C12.7334 17.7595 12.2437 17.6942 11.6358 17.9229ZM20.4498 23.3139L20.3485 29.9302L20.6525 30.3712C20.9226 30.3059 21.3616 30.2569 21.9695 30.2242C22.6111 30.1589 23.2021 30.0935 23.7424 30.0282C24.5867 30.0282 25.1776 29.9955 25.5153 29.9302C25.5153 28.95 25.6335 27.6757 25.8699 26.1074C26.1401 24.5065 26.3427 23.3139 26.4778 22.5297C25.7686 22.3991 25.2452 22.3337 24.9075 22.3337C23.3203 22.3337 21.8344 22.6604 20.4498 23.3139ZM19.3861 24.5391C18.6431 24.4738 17.6976 24.6535 16.5494 25.0782C15.4012 25.503 14.692 25.748 14.4219 25.8134C14.4894 28.0351 14.5907 30.2242 14.7258 32.3806L18.9808 30.5673L19.842 25.7154L19.3861 24.5391ZM31.6446 25.0292C30.9692 24.8985 30.412 24.8332 29.973 24.8332C28.8248 24.8332 27.9637 25.2253 27.3896 26.0094C27.2545 26.5648 27.187 26.9733 27.187 27.2346C27.187 27.6921 27.2714 28.3455 27.4402 29.195C27.6091 30.0445 27.6935 30.5673 27.6935 30.7633C27.9637 31.2207 28.0988 32.1029 28.0988 33.4098C28.0988 34.7167 28.3858 35.6316 28.9599 36.1543C29.1625 35.8276 29.2976 35.6316 29.3651 35.5662C29.0274 35.3702 28.9599 34.9945 29.1625 34.439C29.3651 33.8509 29.4327 33.3608 29.3651 32.9687C29.3651 32.0212 30.125 31.5475 31.6446 31.5475C32.2863 31.4821 32.6915 31.7925 32.8603 32.4786C33.0292 33.1321 33.2487 33.4915 33.5189 33.5568C33.6539 33.1648 33.789 32.691 33.9241 32.1356C34.0592 31.5475 34.1267 30.9267 34.1267 30.2732C34.1267 29.3257 33.9241 28.4762 33.5189 27.7247L31.6446 25.0292ZM20.6525 30.7633L20.3485 30.9594C18.8289 31.1554 16.9546 31.8742 14.7258 33.1158C12.5307 34.3573 10.9098 35.1415 9.8629 35.4682C8.20816 35.4682 7.17817 36.236 6.77293 37.7716C6.53654 39.8627 6.3508 41.3003 6.21572 42.0845C6.3508 42.0845 6.53654 42.0028 6.77293 41.8394C7.04309 41.6761 7.24571 41.6924 7.38079 41.8884C6.33392 42.7053 5.81048 43.7508 5.81048 45.025C5.81048 45.6131 5.91179 46.2993 6.11441 47.0834C6.31703 47.8349 6.48589 48.4393 6.62097 48.8968C6.78982 49.3215 7.34702 50.9715 8.29259 53.8467C9.27192 56.7219 10.2513 58.4046 11.2306 58.8947C12.2437 59.3521 12.936 59.6135 13.3074 59.6788C13.7127 59.7442 14.1517 59.7768 14.6245 59.7768C15.3337 59.7768 16.4818 59.5971 18.069 59.2377C16.752 60.1852 15.2323 60.659 13.5101 60.659C12.936 60.659 12.5139 60.6263 12.2437 60.561L13.1048 60.855C13.5101 60.9204 14.0504 60.9531 14.7258 60.9531C15.7051 60.9531 16.6507 60.7243 17.5625 60.2669C18.1028 60.5937 18.5587 60.4793 18.9302 59.9239C19.3016 59.3358 19.538 59.0417 19.6393 59.0417L19.842 59.2377C19.403 61.8516 19.0146 64.4654 18.6769 67.0792C18.6769 67.5366 18.7444 68.2391 18.8795 69.1866L18.5756 69.4807C18.1028 68.6312 17.8664 67.7327 17.8664 66.7852C17.8664 66.3931 17.934 65.658 18.069 64.5798C18.2041 63.5015 18.2717 62.8971 18.2717 62.7664C17.7989 63.7793 17.4105 65.0535 17.1066 66.5891C16.8364 68.1248 16.6338 69.154 16.4987 69.6767C17.8158 69.8074 18.9471 69.7584 19.8926 69.5297C20.872 69.301 21.8175 69.0233 22.7293 68.6965C22.5942 67.8144 22.7631 66.5075 23.2359 64.7758C23.7424 63.0441 24.0295 61.8679 24.097 61.2471H23.1346C22.7293 61.2471 22.2903 61.1981 21.8175 61.1001C21.3785 61.0021 21.1252 60.7243 21.0577 60.2669C22.037 60.3976 23.0501 60.4956 24.097 60.561C23.9619 60.2343 23.5736 60.0382 22.9319 59.9729C22.3241 59.9075 21.7331 59.7605 21.159 59.5318C20.6187 59.2704 20.1628 58.6006 19.7913 57.5224C19.4536 56.4115 19.1835 55.5784 18.9808 55.0229C19.251 55.2516 19.5212 55.7254 19.7913 56.4442C20.0952 57.1303 20.3485 57.5387 20.5511 57.6694C20.3485 56.7873 20.1628 55.9378 19.9939 55.1209C19.8251 54.2715 19.7407 53.4056 19.7407 52.5235C19.7407 51.9353 19.7744 51.4616 19.842 51.1022L18.9808 55.0229L18.5756 54.6309C18.508 54.3695 18.4743 53.9774 18.4743 53.4546C18.4743 52.2457 18.8289 50.9225 19.538 49.4849C20.281 48.0473 20.8551 46.9527 21.2603 46.2013C22.7124 45.4171 23.9619 44.7636 25.0088 44.2409C26.0557 43.6854 27.0857 43.3424 28.0988 43.2117C28.4027 42.9503 28.3689 42.2478 27.9975 41.1043C27.6597 39.9607 27.5584 39.1929 27.6935 38.8008L26.1739 39.389L22.2228 40.3691C20.129 41.6434 18.5756 42.7053 17.5625 43.5547C16.5832 44.3716 15.8909 45.4498 15.4856 46.7894H14.6245C14.8271 46.528 14.8609 46.1032 14.7258 45.5151C14.5907 44.8943 14.5907 44.4206 14.7258 44.0938L15.4856 45.2211C17.0728 43.326 18.8964 41.8558 20.9564 40.8102C23.0501 39.732 25.3634 38.8825 27.8961 38.2617L28.352 37.1835C27.8455 36.9222 27.2883 36.7915 26.6804 36.7915C25.3634 36.9875 24.384 37.0855 23.7424 37.0855C24.3165 36.8895 24.9581 36.7098 25.6673 36.5464C26.4103 36.3504 27.0181 36.2524 27.4909 36.2524C27.4909 35.9256 27.4571 35.3048 27.3896 34.39C27.3221 33.4425 27.2883 32.691 27.2883 32.1356C26.2414 31.8742 25.6504 31.4821 25.5153 30.9594L20.6525 30.7633ZM30.0743 32.9687C29.8717 33.1648 29.7704 33.4915 29.7704 33.9489C29.7704 34.3737 29.8379 34.7167 29.973 34.9781L30.6315 34.586C30.564 35.0435 30.2769 35.6806 29.7704 36.4974C29.2976 37.2816 28.9768 37.9023 28.8079 38.3598C28.6391 38.7845 28.5547 39.3236 28.5547 39.9771C28.5547 40.9899 28.7742 41.8884 29.2132 42.6726C29.6522 43.4241 30.3614 44.3389 31.3407 45.4171C30.8679 45.2864 30.4796 45.2537 30.1756 45.3191C30.2432 45.7112 30.3276 46.0706 30.4289 46.3973H29.5678C29.3651 46.724 29.2638 47.0344 29.2638 47.3285C29.2638 47.6552 29.382 48.1126 29.6184 48.7007C29.8548 49.2562 29.973 49.6319 29.973 49.8279C29.4327 49.6973 29.0612 49.2888 28.8586 48.6027C28.656 47.8839 28.5209 47.3611 28.4533 47.0344C28.4533 46.6097 28.5547 46.0215 28.7573 45.2701C28.9599 44.4859 29.0274 43.9305 28.9599 43.6038C25.5829 44.2572 22.8813 45.6621 20.8551 47.8186C20.4498 49.2235 20.2472 50.8245 20.2472 52.6215C20.2472 54.2878 20.5174 55.8561 21.0577 57.3264C21.6993 58.1432 22.5436 58.666 23.5905 58.8947C24.6711 59.1234 25.9712 59.2377 27.4909 59.2377C28.8755 59.0417 30.1756 57.9962 31.3913 56.1011C32.6071 54.2061 33.3838 53.1116 33.7215 52.8175C33.5189 52.4254 33.7215 52.0824 34.3293 51.7883C34.971 51.4943 35.3256 51.2002 35.3931 50.9061L36.8621 44.0938C36.6933 44.0938 36.3893 44.2082 35.9503 44.4369C35.5113 44.6656 35.2243 44.78 35.0892 44.78C34.8866 44.78 34.7008 44.5839 34.532 44.1919C36.288 43.7344 37.3349 42.7053 37.6726 41.1043C37.47 40.6142 37.1323 40.1241 36.6595 39.634C36.2205 39.1439 35.7308 38.6211 35.1905 38.0657C34.819 38.1964 34.3293 38.5721 33.7215 39.1929C33.1136 39.781 32.5564 40.0751 32.0499 40.0751C31.6446 39.9444 31.2056 39.634 30.7328 39.1439C30.2938 38.6211 30.26 38.033 30.6315 37.3796C30.9692 36.8568 31.3576 36.383 31.7966 35.9583C32.2356 35.5009 32.6746 35.3375 33.1136 35.4682C32.2018 36.0563 31.6109 36.4811 31.3407 36.7425C31.0705 36.9712 30.9017 37.3796 30.8341 37.9677C31.0368 38.7845 31.5095 39.2583 32.2525 39.389C32.5564 39.2583 32.8435 38.9152 33.1136 38.3598C34.1267 38.3598 34.6333 37.9677 34.6333 37.1835C34.6333 37.0528 34.5657 36.6608 34.4307 36.0073C34.2956 35.3212 34.2956 34.8801 34.4307 34.6841C34.093 34.39 33.6877 34.243 33.2149 34.243C32.8097 34.243 32.3707 34.3573 31.8979 34.586C31.4589 34.7821 31.1381 34.9128 30.9355 34.9781C30.7328 34.5534 31.003 34.2103 31.7459 33.9489C32.5226 33.6875 32.6915 33.2955 32.2525 32.7727C32.0499 32.642 31.6615 32.6093 31.0874 32.6747C30.5471 32.74 30.2094 32.838 30.0743 32.9687ZM10.0655 59.4338C9.5252 60.1199 9.13684 61.2961 8.90045 62.9624C8.69783 64.6288 8.49521 65.6743 8.29259 66.099C10.589 67.2099 12.9191 68.3371 15.283 69.4807L16.904 61.4432C16.5663 61.4432 15.9753 61.4922 15.131 61.5902C14.3206 61.6555 13.7127 61.6882 13.3074 61.6882C12.7334 61.6882 12.2775 61.6555 11.9398 61.5902C11.6021 61.4922 11.3657 61.1164 11.2306 60.463C11.0955 59.7768 10.7072 59.4338 10.0655 59.4338ZM24.2996 68.2064L24.8062 67.7654C24.8062 67.0466 25.0763 65.707 25.6167 63.7466C26.1908 61.7535 26.4778 60.7243 26.4778 60.659C25.9712 61.9332 25.4816 63.2238 25.0088 64.5307C24.536 65.8377 24.2996 67.0629 24.2996 68.2064ZM16.7013 66.099C17.2079 64.4654 17.6976 62.8481 18.1703 61.2471C17.8326 61.8679 17.5287 62.6194 17.2586 63.5015C17.0222 64.351 16.8364 65.2169 16.7013 66.099ZM23.2359 68.4025C23.81 66.7362 24.249 65.3312 24.5529 64.1877C24.8568 63.0441 25.0763 62.0639 25.2114 61.2471C24.1645 63.4035 23.5398 64.8738 23.3372 65.658C23.1346 66.4094 23.1008 67.3243 23.2359 68.4025ZM13.9153 40.1731C15.3674 40.0424 17.2079 39.5523 19.4367 38.7028C21.6993 37.8207 23.1346 37.3142 23.7424 37.1835C23.2021 37.3142 21.6993 37.886 19.2341 38.8989C16.8027 39.879 14.8271 40.3691 13.3074 40.3691C12.1255 40.3691 11.0786 40.4672 10.1668 40.6632C9.28881 40.8266 8.42767 41.137 7.58341 41.5944C8.42767 41.0716 9.28881 40.6795 10.1668 40.4182C11.0786 40.1241 11.906 39.9771 12.6489 39.9771C12.9529 39.9771 13.375 40.0424 13.9153 40.1731ZM28.7573 29.5381C29.2301 28.95 29.9899 28.6559 31.0368 28.6559C31.7797 28.6559 32.3369 28.8519 32.7084 29.244L28.7573 29.5381ZM20.8551 31.7435C21.0577 32.3643 20.9564 33.1648 20.5511 34.145C20.4836 33.9489 20.5511 33.5732 20.7538 33.0177C20.9564 32.4296 20.9902 32.0049 20.8551 31.7435ZM9.8629 30.7633C10.0655 30.3386 10.3863 30.0445 10.8253 29.8811C11.2981 29.7178 11.9398 29.6034 12.7502 29.5381C12.2775 29.6034 11.754 29.8158 11.1799 30.1752C10.6396 30.5019 10.2006 30.698 9.8629 30.7633ZM33.3162 35.3702C33.789 35.1088 34.093 34.9781 34.228 34.9781C33.7553 35.3048 33.4513 35.4355 33.3162 35.3702Z" fill="#CD4138"/>
</g>
<defs>
<filter id="filter0_d_893_1188" x="0.265626" y="0.265626" width="42.6479" height="75.4687" filterUnits="userSpaceOnUse" color-interpolation-filters="sRGB">
<feFlood flood-opacity="0" result="BackgroundImageFix"/>
<feColorMatrix in="SourceAlpha" type="matrix" values="0 0 0 0 0 0 0 0 0 0 0 0 0 0 0 0 0 0 127 0" result="hardAlpha"/>
<feOffset/>
<feGaussianBlur stdDeviation="2.36719"/>
<feColorMatrix type="matrix" values="0 0 0 0 0.803922 0 0 0 0 0.254902 0 0 0 0 0.219608 0 0 0 0.9 0"/>
<feBlend mode="normal" in2="BackgroundImageFix" result="effect1_dropShadow_893_1188"/>
<feBlend mode="normal" in="SourceGraphic" in2="effect1_dropShadow_893_1188" result="shape"/>
</filter>
</defs>
</svg>
