<svg width="68" height="56" viewBox="0 0 68 56" fill="none" xmlns="http://www.w3.org/2000/svg">
<g filter="url(#filter0_d_893_1187)">
<path d="M5.71875 7.37865C5.71875 6.74749 5.96583 6.22678 6.46 5.81653C6.98711 5.37471 7.62953 5.15381 8.38725 5.15381C8.78258 5.15381 9.17791 5.24848 9.57325 5.43783C10.6604 7.07885 12.4394 9.11434 14.9102 11.5443C17.414 13.9427 18.9459 15.5048 19.506 16.2307C19.506 15.4417 19.786 14.7474 20.3461 14.1478C20.9391 13.5167 21.6309 13.2011 22.4216 13.2011C22.8498 13.0749 23.3934 13.1064 24.0523 13.2958C24.7441 13.4851 25.2218 13.5167 25.4854 13.3905C25.8148 12.3806 26.5396 11.639 27.6597 11.1656C28.7798 10.6607 29.9329 10.4082 31.1189 10.4082C31.9425 10.85 32.519 11.0709 32.8485 11.0709C33.1779 11.0709 33.3756 10.8185 33.4415 10.3135C33.738 9.46148 34.3639 8.92499 35.3193 8.70409C36.3076 8.48318 37.4772 8.37273 38.8279 8.37273C40.3104 9.19324 41.5623 10.424 42.5835 12.065C43.6048 13.6745 44.4449 14.9999 45.1038 16.0413C44.972 16.5463 45.1532 17.3194 45.6474 18.3608C46.1745 19.4023 46.438 20.0176 46.438 20.207C48.7771 17.3668 50.8526 14.9999 52.6645 13.1064C54.5094 11.1814 56.6179 10.2189 58.9899 10.2189C59.7146 10.2189 60.4559 10.3609 61.2136 10.6449C62.0043 10.9289 62.4655 11.7179 62.5973 13.0118C62.5314 13.3905 62.1525 13.7376 61.4607 14.0532C60.8018 14.3372 60.077 14.637 59.2864 14.9526C58.5286 15.7415 57.7215 17.1301 56.8649 19.1182C56.0413 21.0748 55.366 22.3372 54.8389 22.9052C53.7517 24.7671 52.8622 26.9288 52.1704 29.3904C50.7538 31.2207 49.2877 33.0984 47.7723 35.0235C46.2569 36.9485 44.692 38.5264 43.0777 39.7572C42.88 40.1043 42.7483 40.4515 42.6824 40.7986C42.6165 41.1457 42.5835 41.5402 42.5835 41.982C42.5835 42.3292 42.6165 42.8341 42.6824 43.4968C42.7483 44.128 42.7812 44.6329 42.7812 45.0116C42.7812 45.3903 42.7483 45.7059 42.6824 45.9583C41.8588 46.8104 41.2328 47.4416 40.8046 47.8518C40.3763 48.2305 39.1079 49.1615 36.9995 50.6447C36.67 50.7709 36.1594 50.8814 35.4676 50.9761C34.8087 51.0707 34.1004 51.1181 33.3426 51.1181C31.7943 51.1181 30.2788 50.9287 28.7963 50.55C27.3138 50.1398 25.7654 49.556 24.1511 48.7986C23.8876 48.0727 23.657 47.1575 23.4593 46.053C23.2617 44.9169 23.0969 43.7966 22.9651 42.6921C21.1862 40.7355 19.7531 38.1793 18.6659 35.0235C17.3481 30.3213 16.0139 25.6034 14.6632 20.8697C12.0276 18.0926 9.86975 15.7573 8.18958 13.8638C6.54236 11.9388 5.71875 9.77706 5.71875 7.37865ZM6.65767 6.62126C6.52589 7.25242 6.46 7.74157 6.46 8.08871C6.46 9.09856 6.72355 10.0453 7.25067 10.9289C7.77778 11.8126 8.55197 12.6962 9.57325 13.5798C10.0674 13.6429 10.5616 13.4851 11.0557 13.1064C11.5499 12.7277 12.0441 12.349 12.5382 11.9703C12.3735 12.4122 12.1429 12.7435 11.8464 12.9644C11.5499 13.1853 11.0393 13.5325 10.3145 14.0058C10.5781 15.1419 11.2369 16.0413 12.2912 16.704C12.4559 16.2622 12.9171 15.6311 13.6748 14.8106C14.4655 13.9901 14.8608 13.3273 14.8608 12.8224C14.4984 12.4437 14.169 12.1124 13.8725 11.8283C13.576 11.5128 13.296 11.355 13.0324 11.355C12.8347 11.355 12.6371 11.5285 12.4394 11.8757L12.8347 10.6922C12.6371 10.5029 12.0605 9.65083 11.1052 8.13604C10.1498 6.62126 9.27675 5.86386 8.48608 5.86386C7.86014 5.86386 7.25067 6.11633 6.65767 6.62126ZM37.8396 8.94077C36.7524 9.13012 35.8135 9.35103 35.0228 9.60349C34.2651 9.8244 33.8533 10.3451 33.7874 11.1656L34.1827 20.0176C34.7098 20.207 35.4346 20.2228 36.3571 20.065C37.2795 19.8756 37.8066 19.781 37.9384 19.781C36.983 20.5068 35.797 20.8697 34.3804 20.8697C34.4463 21.2484 34.6275 21.8164 34.924 22.5738C35.2205 23.2997 35.4017 23.773 35.4676 23.9939L36.9995 23.4732C37.6913 23.2839 38.2678 23.5048 38.729 24.136C39.1903 24.7356 39.5691 25.2247 39.8656 25.6034C40.3927 23.9939 40.6892 21.5955 40.7551 18.4082C40.821 15.1893 40.9199 13.0433 41.0516 11.9703C41.447 12.2228 41.6776 12.712 41.7435 13.4378C41.8094 14.1321 41.8917 14.7948 41.9905 15.4259L42.88 14.0058C42.4188 12.9644 41.7599 12.0335 40.9034 11.2129C40.0468 10.3609 39.0256 9.60349 37.8396 8.94077ZM30.9212 10.9763C29.7023 11.1656 28.7469 11.4023 28.0551 11.6863C27.3962 11.9388 26.8032 12.4437 26.2761 13.2011C26.8032 17.209 27.3468 20.1912 27.9068 22.1478C28.4998 24.0728 29.7188 25.8401 31.5636 27.4496C31.5636 27.1971 31.7284 26.9762 32.0578 26.7868C32.3873 26.5975 32.6179 26.4713 32.7496 26.4081C33.3756 26.1557 33.8862 26.1083 34.2816 26.2661C34.6769 26.4239 35.2534 26.7237 36.0111 27.1655L34.1827 23.4732C33.5568 23.8835 32.9967 24.1833 32.5026 24.3726C32.0084 24.562 31.4154 24.6567 30.7236 24.6567C30.5918 24.7198 30.46 24.6724 30.3282 24.5147C30.1964 24.3569 30.1306 24.2464 30.1306 24.1833C30.3941 24.0571 31.0036 23.8993 31.959 23.7099C32.9473 23.489 33.6227 23.2208 33.9851 22.9052C33.5568 21.99 33.2603 21.0433 33.0956 20.065C32.9308 19.0551 32.8485 17.8717 32.8485 16.5147C32.8485 15.7889 32.8485 15.0788 32.8485 14.3845C32.8485 13.6587 32.8814 12.9486 32.9473 12.2544C32.6179 11.4023 31.9425 10.9763 30.9212 10.9763ZM61.0159 11.1656C60.6536 11.1025 60.1429 11.0709 59.484 11.0709C57.6721 11.0709 56.0578 11.5759 54.6412 12.5857C53.2246 13.5956 51.9398 14.9052 50.7867 16.5147C50.7208 16.8934 51.0338 17.4299 51.7256 18.1242C52.4504 18.7869 52.6645 19.3076 52.368 19.6863C51.8409 19.6863 51.3303 19.3707 50.8361 18.7395C50.3749 18.0768 50.0455 17.6823 49.8478 17.5561C49.4525 17.9033 49.0242 18.3135 48.563 18.7869C48.1347 19.2602 47.4264 20.2385 46.438 21.7218C46.7675 22.7001 47.1299 23.6784 47.5252 24.6567C47.9205 25.635 48.4971 26.4081 49.2548 26.9762C48.4312 26.6606 47.7723 26.1083 47.2781 25.3194C46.784 24.4989 46.2569 23.4417 45.6968 22.1478C45.1697 22.4634 44.9061 22.9368 44.9061 23.5679C44.9061 24.2306 44.9061 24.8776 44.9061 25.5087C44.8402 25.13 44.6755 24.9091 44.412 24.846C44.412 25.2878 44.4779 25.7612 44.6096 26.2661C44.7414 26.7395 44.9061 27.3075 45.1038 27.9703C44.2802 26.6764 43.8684 25.2405 43.8684 23.6626L41.0516 25.13C40.9857 25.5719 40.7716 25.9979 40.4092 26.4081C40.0468 26.7868 39.7174 27.1024 39.4209 27.3549C38.4984 27.1655 37.5595 27.4969 36.6041 28.349C35.6487 29.1695 34.8416 29.6113 34.1827 29.6744C33.2932 30.0215 32.6343 30.6211 32.2061 31.4732C31.7778 32.2937 31.3824 33.3509 31.0201 34.6448C31.5801 35.8124 32.0084 36.6961 32.3049 37.2957C32.6014 37.8637 33.0956 38.558 33.7874 39.3785C34.9075 39.5678 36.077 39.6625 37.296 39.6625C38.8444 39.6625 40.228 39.5678 41.447 39.3785C42.8636 38.8736 44.3625 37.7059 45.9439 35.8755C47.5582 34.0136 49.3042 31.9466 51.182 29.6744C51.8409 27.56 52.368 25.9821 52.7634 24.9407C53.1916 23.8993 53.8176 22.7632 54.6412 21.5324L53.7023 21.1537C53.7682 20.9644 53.9 20.8697 54.0976 20.8697C54.2953 20.8697 54.5094 20.8697 54.74 20.8697L54.0976 20.3017C54.8553 20.3017 55.366 20.207 55.6295 20.0176C56.1566 18.4397 56.9473 16.9565 58.0015 15.568C59.0558 14.1794 60.3241 13.1064 61.8066 12.349L61.7078 11.8757L61.0159 11.1656ZM15.948 13.8165C15.8162 13.5956 15.6185 13.4851 15.355 13.4851C15.0914 13.4851 14.9267 13.6271 14.8608 13.9112C14.9926 14.2267 14.8938 14.5739 14.5643 14.9526C14.2678 15.3313 14.0537 15.5837 13.9219 15.71L13.7242 15.5206C13.9878 15.2682 14.0866 15.0788 14.0207 14.9526C13.889 15.0788 13.6254 15.4417 13.2301 16.0413L13.9219 15.9467C13.1971 16.3885 12.8347 16.8303 12.8347 17.2721C12.8347 17.6823 13.0983 18.1242 13.6254 18.5975C14.1525 19.0709 14.7949 19.6074 15.5527 20.207C15.7503 20.0808 16.1951 19.5916 16.8869 18.7395C17.6117 17.8875 18.2047 17.3668 18.6659 17.1774L15.948 13.8165ZM21.2356 14.3845C20.7414 14.637 20.412 15.0157 20.2472 15.5206C20.0825 15.994 20.0002 16.5778 20.0002 17.2721C20.8897 20.4595 21.7462 23.063 22.5698 25.0827C23.4264 27.0709 25.0736 28.349 27.5115 28.917C27.4456 28.349 27.5774 27.8756 27.9068 27.4969C28.2363 27.0866 28.7139 26.7237 29.3399 26.4081C28.9775 25.5561 28.6316 25.13 28.3021 25.13C28.3021 25.3825 28.1374 25.6034 27.808 25.7928C27.4785 25.9505 27.3138 26.0926 27.3138 26.2188C26.7538 26.4081 26.2102 26.5028 25.6831 26.5028C25.0571 26.5028 24.5794 26.3766 24.25 26.1241C24.8759 26.1241 25.403 26.061 25.8313 25.9348C26.2596 25.777 27.0832 25.3825 28.3021 24.7513C27.8409 23.6468 27.3797 22.3372 26.9185 20.8224C26.4902 19.3076 26.0125 17.1616 25.4854 14.3845C24.7277 14.0058 23.9864 13.8165 23.2617 13.8165C22.5039 13.8165 21.8286 14.0058 21.2356 14.3845ZM42.9789 14.9526L42.88 15.5206C42.9459 15.3944 42.9789 15.2682 42.9789 15.1419V14.9526ZM43.5719 15.71C43.0448 16.3096 42.5177 16.9407 41.9905 17.6034C41.4964 18.2346 41.3811 18.8973 41.6446 19.5916C42.1388 19.5285 42.6494 19.2445 43.1765 18.7395C43.7037 18.2346 44.0825 17.9506 44.3131 17.8875C44.4449 18.5186 43.9507 19.1656 42.8306 19.8283C41.7105 20.4595 41.3152 21.1695 41.6446 21.9585C42.4682 22.0847 43.0448 22.1478 43.3742 22.1478C44.2637 22.1478 44.9061 21.8796 45.3015 21.3431C45.3674 20.5226 45.1038 19.4496 44.5108 18.1242C43.9507 16.7987 43.6378 15.994 43.5719 15.71ZM19.506 18.0768C18.9459 18.3293 18.3529 18.6764 17.727 19.1182C17.101 19.56 16.508 19.9861 15.948 20.3963C15.7503 21.0906 15.7339 21.7218 15.8986 22.2898C16.0633 22.8263 16.3927 23.6153 16.8869 24.6567C17.3481 24.7198 18.04 24.5936 18.9624 24.278C19.9178 23.9308 20.6755 23.8677 21.2356 24.0886C20.4778 22.9841 19.7695 21.8796 19.1107 20.775C19.7037 21.5009 20.1978 21.99 20.5932 22.2425C20.5932 21.706 20.3625 21.0906 19.9013 20.3963C19.4401 19.6705 19.1765 19.2129 19.1107 19.0236L19.7037 19.2129L19.506 18.0768ZM42.6824 22.9052L41.8423 22.5265L41.5458 22.9052H42.6824ZM35.8135 25.0354L36.5053 26.5975C37.9219 26.7237 38.7949 26.4239 39.1244 25.6981C39.1244 24.9407 38.7949 24.562 38.1361 24.562C37.7737 24.562 37.3783 24.6251 36.9501 24.7513C36.5218 24.8776 36.1429 24.9722 35.8135 25.0354ZM19.2095 24.6567C18.2541 24.9091 17.6282 25.1458 17.3317 25.3667C17.0352 25.5876 16.9857 25.9663 17.1834 26.5028C18.4682 30.5107 19.7531 34.5186 21.0379 38.5264C21.6968 39.8203 22.3227 40.7828 22.9157 41.414C23.5417 42.0136 24.3653 42.3134 25.3866 42.3134C25.7819 42.3134 26.0784 42.2818 26.2761 42.2187C27.0338 42.2187 27.9398 41.9189 28.994 41.3193C30.0811 40.6881 30.8553 40.3726 31.3166 40.3726C31.1189 40.6881 30.9706 40.9406 30.8718 41.13C30.773 41.3193 30.7894 41.5402 30.9212 41.7927C31.5472 41.2246 31.8601 40.6093 31.8601 39.9465C31.8601 39.3154 31.646 38.7 31.2177 38.1004C30.8224 37.4692 30.46 36.8696 30.1306 36.3016C30.2623 35.1339 30.4271 33.9663 30.6247 32.7986C30.6247 32.6093 30.8389 32.1675 31.2671 31.4732C31.7284 30.7474 31.959 30.2582 31.959 30.0058C31.959 29.5955 31.6789 29.2957 31.1189 29.1064C30.8553 29.5482 30.3447 29.8164 29.587 29.9111C28.8622 29.9742 28.3351 30.0689 28.0056 30.1951C25.1065 29.2168 23.0146 27.4969 21.7297 25.0354L19.2095 24.6567ZM34.0839 26.9762C34.018 27.1024 33.5897 27.276 32.7991 27.4969C32.0413 27.7178 31.8931 28.1596 32.3543 28.8223C33.0132 29.0117 33.5568 29.0117 33.9851 28.8223C34.4463 28.633 34.9899 28.349 35.6158 27.9703C35.3193 27.6231 35.0722 27.3391 34.8746 27.1182C34.6769 26.8973 34.4133 26.85 34.0839 26.9762ZM29.7352 27.5442C29.6034 27.6705 29.2575 27.8283 28.6975 28.0176C28.1704 28.1754 28.0386 28.5067 28.3021 29.0117H29.0928C29.4552 28.8223 29.7517 28.6488 29.9823 28.491C30.2129 28.3332 30.2953 28.0807 30.2294 27.7336L29.7352 27.5442ZM33.145 40.5619L32.9473 40.9406C33.0791 41.5087 33.1944 42.8814 33.2932 45.0589C33.3921 47.2364 33.8203 48.8301 34.5781 49.84C35.5993 49.9031 36.5218 49.7137 37.3454 49.2719C38.2019 48.8301 38.9267 48.1516 39.5197 47.2364C39.3221 46.9209 39.1903 46.5422 39.1244 46.1003C39.0585 45.627 39.0256 45.1378 39.0256 44.6329V42.9761C39.0256 42.7236 39.0256 42.4396 39.0256 42.124C38.8938 41.84 38.8279 41.6664 38.8279 41.6033L36.2088 42.124C35.1216 41.9662 34.5122 41.6349 34.3804 41.13C34.5781 41.0037 34.8251 41.0195 35.1216 41.1773C35.4511 41.3351 35.6817 41.3824 35.8135 41.3193C36.4724 41.3193 37.0489 41.3035 37.5431 41.272C38.0702 41.2404 38.4984 41.0984 38.8279 40.8459C37.0818 40.8459 35.1875 40.7513 33.145 40.5619ZM32.1566 40.5619C31.959 41.3193 31.8601 42.0925 31.8601 42.8814C31.8601 43.7966 31.9754 45.1063 32.2061 46.8104C32.4367 48.5145 32.552 49.5875 32.552 50.0293H33.7874C33.2932 49.0195 32.9308 47.3627 32.7002 45.0589C32.4696 42.7552 32.2884 41.2562 32.1566 40.5619ZM40.0633 40.7513C40.1292 40.8775 39.9151 41.1615 39.4209 41.6033V43.7335C39.4209 45.2167 39.668 46.2266 40.1621 46.7631C40.3598 46.0372 40.4586 45.3587 40.4586 44.7276C40.3927 43.4968 40.3598 42.5185 40.3598 41.7927V40.8459L40.0633 40.7513ZM30.1306 41.6033C29.0434 42.1398 28.121 42.5501 27.3632 42.8341C26.6385 43.1181 25.8807 43.2601 25.0901 43.2601C25.9466 43.2601 26.5561 43.2286 26.9185 43.1655C27.3138 43.1023 28.3845 42.8183 30.1306 42.3134V41.6033ZM41.2493 41.7927V43.8282C41.2493 44.6171 41.3152 45.1694 41.447 45.485L41.2493 41.7927ZM31.1189 42.3134C30.9871 43.197 30.9212 43.9071 30.9212 44.4436C30.9212 46.1161 31.2013 47.6625 31.7613 49.0826C31.8272 48.767 31.8601 48.2463 31.8601 47.5205C31.8601 46.7631 31.8272 45.9268 31.7613 45.0116C31.6954 44.0964 31.6295 43.197 31.5636 42.3134H31.1189ZM30.4271 42.7868C29.5376 43.1023 28.4998 43.4179 27.3138 43.7335C26.1608 44.0175 25.1065 44.1911 24.1511 44.2542L25.0901 48.3252L31.1189 49.84L30.4271 42.7868Z" fill="#CD4138"/>
</g>
<defs>
<filter id="filter0_d_893_1187" x="0.984376" y="0.419435" width="66.3472" height="55.433" filterUnits="userSpaceOnUse" color-interpolation-filters="sRGB">
<feFlood flood-opacity="0" result="BackgroundImageFix"/>
<feColorMatrix in="SourceAlpha" type="matrix" values="0 0 0 0 0 0 0 0 0 0 0 0 0 0 0 0 0 0 127 0" result="hardAlpha"/>
<feOffset/>
<feGaussianBlur stdDeviation="2.36719"/>
<feColorMatrix type="matrix" values="0 0 0 0 0.803922 0 0 0 0 0.254902 0 0 0 0 0.219608 0 0 0 0.9 0"/>
<feBlend mode="normal" in2="BackgroundImageFix" result="effect1_dropShadow_893_1187"/>
<feBlend mode="normal" in="SourceGraphic" in2="effect1_dropShadow_893_1187" result="shape"/>
</filter>
</defs>
</svg>
