<svg width="39" height="76" viewBox="0 0 39 76" fill="none" xmlns="http://www.w3.org/2000/svg">
<g filter="url(#filter0_d_893_1190)">
<path d="M21.6115 5.30889C22.1787 5.10296 22.6926 5 23.1535 5C24.3941 5 25.2981 5.53198 25.8652 6.59594C26.1488 7.4883 26.3615 8.65522 26.5033 10.0967C26.6451 11.5382 26.716 12.7909 26.716 13.8549V16.2746C28.1693 18.6771 29.605 22.3323 31.0229 27.2402C32.4408 32.1482 33.4333 35.3058 34.0005 36.7129C34.0005 39.9735 33.4511 43.1997 32.3522 46.3916C31.2887 49.5834 30.4025 52.2262 29.6936 54.3198C29.0201 55.3838 28.5593 56.6536 28.3111 58.1295C28.063 59.6053 27.9389 61.2527 27.9389 63.0717V66.0577C27.0527 67.2589 25.9184 68.2714 24.5359 69.0951C23.1535 69.8845 21.062 70.5195 18.2617 71L10.924 68.9922C10.924 68.1685 10.7467 66.8299 10.3923 64.9766C10.0378 63.0889 9.86055 61.7847 9.86055 61.0639C8.33629 59.5881 7.3083 58.0608 6.77659 56.482C6.28032 54.9033 5.67771 52.1232 4.96875 48.1419C4.96875 45.4649 5.16371 42.9251 5.55364 40.5226C5.94356 38.1201 6.58162 35.5975 7.46782 32.9547C8.6376 32.3713 9.78965 31.7707 10.924 31.1529C10.7822 30.2948 10.7113 29.6256 10.7113 29.1451C10.7113 28.4243 10.9063 27.7894 11.2962 27.2402C11.7216 26.6911 12.2533 26.2964 12.8913 26.0562C13.5648 25.7816 14.3979 25.6443 15.3904 25.6443H16.507C16.9324 26.0905 17.3223 26.6053 17.6768 27.1888C18.0667 27.7722 18.4389 28.4243 18.7934 29.1451C19.077 28.4243 19.2542 27.3775 19.3251 26.0047C19.396 24.5975 19.4315 23.7738 19.4315 23.5335L19.9632 18.4883C19.3251 16.532 18.7048 14.5242 18.1022 12.4649C18.1022 11.298 18.6162 10.3885 19.6441 9.73635C19.7859 8.5351 19.9454 7.59126 20.1227 6.90484C20.2999 6.18409 20.7962 5.65211 21.6115 5.30889ZM21.9305 5.72075C20.9025 6.64743 20.5126 7.84867 20.7607 9.32449C21.7533 9.32449 22.6926 9.85647 23.5788 10.9204C24.2169 11.8814 24.9081 12.8253 25.6525 13.7519V11.1264C25.6525 9.51326 25.5462 8.31201 25.3335 7.52262C25.1208 6.69891 24.66 6.18409 23.951 5.97816C23.2775 5.73791 22.604 5.65211 21.9305 5.72075ZM20.2822 10.0452C19.2897 10.766 18.7934 11.5725 18.7934 12.4649C18.7934 13.0484 19.1124 14.0265 19.7505 15.3994C20.424 16.7722 20.7607 17.6303 20.7607 17.9735C21.0443 18.6599 21.4697 19.0031 22.0369 19.0031C23.4193 18.5913 24.8018 18.1794 26.1843 17.7675L24.4296 13.7519C23.8624 12.9626 23.2598 12.156 22.6218 11.3323C22.0191 10.4743 21.2393 10.0452 20.2822 10.0452ZM26.6096 18.4883C25.7589 18.2824 24.9436 18.3682 24.1637 18.7457C23.4193 19.1232 22.7104 19.5008 22.0369 19.8783C21.8242 20.2902 21.7178 20.6334 21.7178 20.9079C21.7178 21.5601 21.8951 22.1778 22.2496 22.7613C22.6395 23.3448 23.0117 23.9282 23.3662 24.5117L27.6199 23.1217L27.9389 23.3276L25.8652 24.2028L28.7897 23.6365C28.577 22.8128 28.4352 22.195 28.3643 21.7831L26.6096 18.4883ZM20.5481 20.2902L20.7607 21.4228C20.9025 21.2855 20.938 21.0796 20.8671 20.805C20.7962 20.5304 20.6898 20.3588 20.5481 20.2902ZM20.3885 22.4009C20.2468 22.7441 20.1404 23.3276 20.0695 24.1513C19.9986 24.9407 19.9632 25.507 19.9632 25.8502V28.6303L23.1535 28.5273C23.0117 27.4633 22.8344 26.6568 22.6218 26.1076C22.4445 25.5242 21.966 24.2886 21.1861 22.4009H20.3885ZM29.0024 24.5117C28.7897 24.443 28.4706 24.4087 28.0453 24.4087C27.23 24.4087 26.4856 24.5117 25.8121 24.7176C25.174 24.9235 24.3941 25.2668 23.4725 25.7473C23.7561 27.2231 23.9865 28.2356 24.1637 28.7847C24.341 29.2995 24.7309 29.7972 25.3335 30.2777C25.6171 30.209 26.0425 30.1747 26.6096 30.1747C27.1413 30.1747 27.8326 30.2948 28.6833 30.5351C29.5695 30.741 30.3316 30.9126 30.9697 31.0499L30.5443 29.1451L29.0024 24.5117ZM13.104 26.6225C12.0406 27.3775 11.5798 28.287 11.7216 29.351C12.7141 28.1498 14.0079 27.5491 15.6031 27.5491C16.2766 27.5491 16.7551 27.6864 17.0387 27.961C16.7551 26.8627 15.993 26.3136 14.7523 26.3136C14.2561 26.3136 13.7066 26.4165 13.104 26.6225ZM14.965 28.6303C14.4688 28.7675 14.0257 29.0078 13.6357 29.351C13.2813 29.6942 12.9268 30.1919 12.5723 30.844C12.2887 31.3245 12.3596 31.6334 12.785 31.7707C13.2104 31.9079 13.9016 32.0796 14.8587 32.2855C14.7169 31.8736 14.841 31.4618 15.2309 31.0499C15.6208 30.6381 16.0462 30.209 16.507 29.7629C15.9753 29.4196 15.4613 29.0421 14.965 28.6303ZM21.3988 29.0421C20.9734 29.1794 20.619 29.2824 20.3354 29.351C20.0872 29.4196 19.9277 29.5569 19.8568 29.7629C20.2113 29.9688 20.6544 30.0031 21.1861 29.8658C21.7533 29.7285 22.3382 29.5569 22.9408 29.351C21.9837 29.1451 21.4697 29.0421 21.3988 29.0421ZM17.9958 30.2777C17.5704 31.0671 17.216 31.6334 16.9324 31.9766C16.6488 32.3198 16.2411 32.6802 15.7094 33.0577C15.1423 33.4009 14.4333 33.3323 13.5826 32.8518C12.7673 32.337 12.2178 32.1482 11.9342 32.2855V32.9547C13.4585 34.9111 14.8941 36.2324 16.2411 36.9189C17.5882 37.571 18.8288 37.7941 19.9632 37.5881C19.9632 37.8627 19.7505 38.0686 19.3251 38.2059C19.1124 38.7551 19.2542 39.2527 19.7505 39.6989C20.2822 40.1107 20.7607 40.4883 21.1861 40.8315C21.0443 40.9688 20.9203 41.0546 20.8139 41.0889C20.7076 41.1232 20.619 41.1404 20.5481 41.1404C20.619 41.7925 20.9203 42.4446 21.452 43.0967C21.9837 43.7145 22.3913 44.195 22.6749 44.5382L22.4622 44.7441C21.6824 44.4696 21.0089 43.9547 20.4417 43.1997C19.91 42.4103 19.5378 41.8097 19.3251 41.3978C16.9856 44.3494 15.8158 47.7472 15.8158 51.5912C15.8158 53.8565 16.2234 55.7956 17.0387 57.4087C17.535 57.4774 18.4035 57.649 19.6441 57.9235C20.8848 58.1981 21.7887 58.3354 22.3559 58.3354C23.0294 58.3354 23.6852 58.2324 24.3232 58.0265C26.5919 56.7566 27.9389 55.1263 28.3643 53.1357C28.7897 51.1107 29.0024 48.3136 29.0024 44.7441C28.9315 44.8814 28.8074 44.9844 28.6302 45.053C28.4529 45.1217 28.258 45.1903 28.0453 45.259C28.3997 44.7785 28.7011 44.2636 28.9492 43.7145C29.1973 43.131 29.3214 42.599 29.3214 42.1185C29.3214 41.844 29.2859 41.6037 29.215 41.3978L23.4725 34.2933L21.9305 36.0951C21.0798 36.4384 20.5303 36.4727 20.2822 36.1981L22.8344 32.9547C22.4445 32.5086 21.6469 32.0109 20.4417 31.4618C19.2719 30.9126 18.4566 30.5179 17.9958 30.2777ZM21.3988 30.5351C21.3988 30.8097 21.6647 31.0156 22.1964 31.1529C22.7635 31.2902 22.9762 31.0842 22.8344 30.5351H21.3988ZM15.7094 31.8736C16.5247 31.4618 16.826 31.0499 16.6134 30.6381C16.4007 30.7067 16.1525 30.8955 15.8689 31.2044C15.6208 31.5132 15.5676 31.7363 15.7094 31.8736ZM27.6199 30.9469L26.1843 30.6381L25.9716 30.844L27.6199 30.9469ZM23.5788 30.844C23.4371 30.9813 23.3307 31.1872 23.2598 31.4618C23.1889 31.7363 23.2598 31.9423 23.4725 32.0796C23.7561 32.0796 24.2169 31.7707 24.855 31.1529C24.5714 30.8783 24.146 30.7753 23.5788 30.844ZM31.3951 32.4914C31.1824 32.4228 30.4912 32.234 29.3214 31.9251C28.1871 31.6162 27.3186 31.4618 26.716 31.4618C25.8652 31.4618 25.174 31.7363 24.6423 32.2855C24.5005 32.8689 24.66 33.4867 25.1208 34.1388C25.6171 34.7566 26.007 35.3058 26.2906 35.7863C26.5742 36.2668 27.1236 36.507 27.9389 36.507C28.4352 36.507 29.1796 36.3354 30.1721 35.9922C31.2001 35.649 31.98 35.4774 32.5117 35.4774L32.1927 33.6755L31.3951 32.4914ZM10.2859 32.2855C9.47062 32.663 8.76166 33.0405 8.15905 33.4181C7.55644 33.7956 7.25513 34.4477 7.25513 35.3744C7.04245 35.7176 6.9361 36.0951 6.9361 36.507C6.9361 37.0218 7.07789 37.4852 7.36148 37.897C7.64506 38.3089 8.03498 38.5148 8.53125 38.5148C7.89319 37.8284 7.52099 37.365 7.41465 37.1248C7.3083 36.8502 7.32603 36.5413 7.46782 36.1981L7.89319 36.3011C7.89319 36.1638 7.89319 35.8892 7.89319 35.4774C7.89319 35.0655 8.03498 34.8081 8.31857 34.7051C8.74394 36.9017 9.36428 38.7379 10.1796 40.2137C10.9949 41.6895 11.6329 42.8221 12.0938 43.6115C12.5546 44.3666 13.1217 44.8128 13.7953 44.9501C13.4762 44.7441 13.3167 44.3323 13.3167 43.7145V42.5304C13.4585 41.6037 14.0079 41.2948 14.965 41.6037C14.8232 40.5398 14.7346 39.6817 14.6992 39.0296C14.6637 38.3432 14.5042 37.6396 14.2206 36.9189C13.6889 36.5756 13.1572 36.0951 12.6255 35.4774C12.0938 34.8253 11.3139 33.7613 10.2859 32.2855ZM22.1432 35.1685L22.8344 33.9844L21.8242 35.2714L22.1432 35.1685ZM32.5117 36.3011C30.9874 36.3011 29.3923 36.6615 27.7262 37.3822L29.0024 39.0296C29.7468 39.0296 30.5089 38.8065 31.2887 38.3604C32.104 37.9142 32.6889 37.6225 33.0434 37.4852L32.5117 36.3011ZM15.9753 41.0374C16.1171 39.5616 16.4007 38.6178 16.826 38.2059C16.4007 38 16.0462 37.9313 15.7626 38C15.5145 38.0686 15.3904 38.2402 15.3904 38.5148C15.5322 39.3728 15.7272 40.2137 15.9753 41.0374ZM31.8736 38.8237H32.299C32.4408 39.2012 32.1395 39.5273 31.3951 39.8019C30.6861 40.0764 30.2962 40.3853 30.2253 40.7285C30.5089 41.3806 30.6507 42.2558 30.6507 43.3541C30.5798 45.2075 30.5089 47.0093 30.438 48.7597C31.0761 46.4259 31.6078 44.4352 32.0331 42.7878C32.494 41.1404 32.8307 39.7161 33.0434 38.5148C32.6889 38.4462 32.4231 38.4633 32.2458 38.5663C32.0686 38.6693 31.9445 38.7551 31.8736 38.8237ZM8.74394 39.6989C8.60215 39.6302 8.31857 39.4243 7.89319 39.0811C7.46782 38.7036 7.09562 38.6864 6.77659 39.0296C6.70569 39.4758 6.51073 40.5226 6.1917 42.17C5.87267 43.8175 5.71315 45.1045 5.71315 46.0312V47.1638C6.42211 50.2527 7.04245 52.8955 7.57416 55.092C8.14133 57.2543 9.22249 59.039 10.8176 60.4462H12.1469C13.2458 60.4462 14.2029 60.326 15.0182 60.0858C15.8689 59.8455 16.5779 59.365 17.1451 58.6443C15.6917 56.0015 14.965 53.2387 14.965 50.3557C14.965 48.8799 15.1423 47.6443 15.4967 46.649C15.2132 47.1981 14.9473 47.7816 14.6992 48.3994C14.451 48.9828 14.3624 49.5148 14.4333 49.9953C14.5042 50.5788 14.5397 51.0078 14.5397 51.2823C14.5397 51.6256 14.4333 51.8658 14.2206 52.0031C13.6889 51.454 13.423 50.7847 13.423 49.9953C13.423 49.3089 13.5471 48.6224 13.7953 47.936C14.0788 47.2153 14.3624 46.5117 14.646 45.8253L13.7953 46.0312C13.2635 45.5164 12.785 45.259 12.3596 45.259C11.8633 45.259 11.3316 45.6536 10.7645 46.443C10.2327 47.1981 9.86055 47.6443 9.64786 47.7816L9.43517 47.4727L11.4025 44.6412C10.8708 43.9547 10.3923 43.1653 9.96689 42.273C9.54152 41.3806 9.13387 40.5226 8.74394 39.6989ZM17.1451 39.9048C16.7906 40.248 16.826 41.0203 17.2514 42.2215C17.535 42.1529 17.7831 41.9984 17.9958 41.7582C18.244 41.5179 18.5453 41.0031 18.8997 40.2137C18.7579 39.9391 18.4744 39.819 18.049 39.8533C17.6591 39.8877 17.3578 39.9048 17.1451 39.9048ZM14.5397 42.6334C14.1143 42.7707 13.937 43.0452 14.0079 43.4571C14.1497 43.8346 14.327 44.195 14.5397 44.5382C15.1068 44.3323 15.4259 43.9719 15.4967 43.4571C15.4259 43.2512 15.3372 43.0109 15.2309 42.7363C15.1245 42.4618 14.8941 42.4274 14.5397 42.6334ZM25.0145 59.0047H25.8652C25.8652 58.833 25.8652 58.6443 25.8652 58.4384C25.369 58.3011 25.0854 58.4898 25.0145 59.0047ZM25.3335 66.4696C25.5462 65.2683 25.6525 64.2043 25.6525 63.2777C25.5816 61.7332 25.5462 60.5148 25.5462 59.6224C25.1917 60.8923 25.0145 62.1965 25.0145 63.5351C25.0145 64.6334 25.1208 65.6115 25.3335 66.4696ZM19.7505 60.4462C19.6796 60.1716 19.5555 60.0686 19.3783 60.1373C19.201 60.2059 19.0415 60.2745 18.8997 60.3432V69.507C19.0415 69.507 19.3251 69.4727 19.7505 69.404V60.4462ZM20.3885 60.4462C20.3885 61.1669 20.3708 61.9048 20.3354 62.6599C20.2999 63.3806 20.2822 64.1185 20.2822 64.8736C20.2822 66.5554 20.4417 67.9969 20.7607 69.1981L22.1432 68.9922C23.1003 68.7862 23.7738 68.4087 24.1637 67.8596C24.5537 67.2761 24.7486 66.5725 24.7486 65.7488C24.7486 65.1653 24.6423 64.2043 24.4296 62.8658C24.2169 61.5273 24.1815 60.5834 24.3232 60.0343L20.3885 60.4462ZM17.8895 60.3432C17.8895 61.4072 17.854 62.454 17.7831 63.4836C17.7122 64.4789 17.6413 65.4742 17.5704 66.4696C17.5704 67.5335 17.6768 68.5803 17.8895 69.61C18.3503 67.585 18.5807 65.663 18.5807 63.844L18.368 60.3432H17.8895ZM14.4333 62.0421C14.0079 62.248 13.423 62.351 12.6786 62.351C12.0406 62.351 11.6152 62.1107 11.4025 61.6302C11.4025 62.5912 11.4734 63.741 11.6152 65.0795C11.757 66.4181 11.8988 67.585 12.0406 68.5803L16.826 69.507C16.8969 69.0951 16.9678 68.2028 17.0387 66.8299C17.1096 65.4571 17.1451 64.7363 17.1451 64.6677V60.755L14.4333 62.0421ZM14.4333 52.3635L15.9753 56.5335C15.6563 56.3276 15.3727 55.8814 15.1245 55.195C14.8764 54.4742 14.646 53.805 14.4333 53.1872V52.3635ZM19.4315 36.3011C19.6441 35.6833 20.0341 35.0655 20.6012 34.4477C21.2038 33.7956 21.8596 33.298 22.5686 32.9547C21.9305 33.3666 21.3279 33.9329 20.7607 34.6537C20.229 35.3401 19.7859 35.8892 19.4315 36.3011ZM21.8242 36.7129C21.966 36.1638 22.48 35.6833 23.3662 35.2714C23.2244 35.6833 22.7104 36.1638 21.8242 36.7129Z" fill="#CD4138"/>
</g>
<defs>
<filter id="filter0_d_893_1190" x="0.234376" y="0.265626" width="38.5005" height="75.4687" filterUnits="userSpaceOnUse" color-interpolation-filters="sRGB">
<feFlood flood-opacity="0" result="BackgroundImageFix"/>
<feColorMatrix in="SourceAlpha" type="matrix" values="0 0 0 0 0 0 0 0 0 0 0 0 0 0 0 0 0 0 127 0" result="hardAlpha"/>
<feOffset/>
<feGaussianBlur stdDeviation="2.36719"/>
<feColorMatrix type="matrix" values="0 0 0 0 0.803922 0 0 0 0 0.254902 0 0 0 0 0.219608 0 0 0 0.9 0"/>
<feBlend mode="normal" in2="BackgroundImageFix" result="effect1_dropShadow_893_1190"/>
<feBlend mode="normal" in="SourceGraphic" in2="effect1_dropShadow_893_1190" result="shape"/>
</filter>
</defs>
</svg>
