<svg width="63" height="56" viewBox="0 0 63 56" fill="none" xmlns="http://www.w3.org/2000/svg">
<g filter="url(#filter0_d_893_1189)">
<path d="M49.3081 6.56037L57.6884 9.47395C57.4056 12.2871 57.1934 14.6816 57.052 16.6574C56.9105 18.6333 56.221 20.2743 54.9834 21.5804L51.7479 26.5536H50.9523C49.149 25.1805 47.6285 24.0419 46.3909 23.1376C45.1533 22.2334 43.8096 21.5804 42.3598 21.1785L41.0868 25.9005C40.6625 26.3359 38.7531 28.0941 35.3585 31.1751C31.9992 34.2561 30.1075 37.3037 29.6832 40.3177C29.1528 40.9875 28.6577 42.2936 28.198 44.236C27.7383 46.1449 27.2963 47.4175 26.872 48.0538C26.2002 48.4557 25.4753 48.6566 24.6974 48.6566C23.6719 48.6566 22.6818 48.3384 21.7271 47.7021C20.6663 46.6305 20.1359 45.09 20.1359 43.0806C20.1359 42.4108 20.1889 41.6908 20.295 40.9205C20.4011 40.1168 20.5956 39.2963 20.8785 38.4591C19.4994 38.593 18.1204 38.6935 16.7413 38.7605C16.5292 38.8274 16.317 38.7102 16.1048 38.4088C15.8927 38.1074 15.6805 37.9902 15.4683 38.0572C14.9379 38.727 14.16 40.8703 13.1346 44.4872C12.1445 48.0705 10.5179 50.2808 8.25486 51.1181C7.12333 51.1181 6.22165 50.7832 5.5498 50.1134C7.28246 41.808 9.06815 33.5026 10.9069 25.1972C11.0483 24.494 10.9422 23.6065 10.5886 22.5348C10.2704 21.4297 10.1113 20.7097 10.1113 20.3748C10.1113 20.0064 10.2174 19.5543 10.4295 19.0184C12.834 16.9756 16.1756 14.8825 20.4541 12.7392C24.7327 10.5624 27.9505 8.92137 30.1075 7.81622C34.5275 6.912 38.9829 6.02453 43.4736 5.15381C45.6306 5.15381 47.5754 5.62266 49.3081 6.56037ZM39.1243 6.4599C38.7707 6.52688 37.8514 6.71107 36.3662 7.01247C34.8811 7.28039 33.2015 7.58179 31.3274 7.91669C29.4887 8.25158 28.0389 9.03858 26.9781 10.2777C26.3063 10.6126 25.7228 10.9475 25.2278 11.2824C24.7327 11.5838 24.22 11.7345 23.6896 11.7345C22.452 12.2703 20.8961 13.1076 19.022 14.2462C17.148 15.3848 15.6982 16.2221 14.6727 16.7579C15.0971 16.7579 15.7159 16.5737 16.5292 16.2053C17.3424 15.8035 17.8905 15.6025 18.1734 15.6025C17.7137 16.1049 16.7236 16.6574 15.2031 17.2602C13.6827 17.8296 12.781 18.5831 12.4981 19.5208C12.4981 21.3292 12.1622 23.4893 11.4903 26.001C10.8538 28.4792 10.1466 31.2253 9.36871 34.2394C9.58087 34.3064 9.84607 34.3566 10.1643 34.3901C10.4826 34.4236 10.6417 34.5408 10.6417 34.7417C10.3588 35.0431 10.0759 35.1938 9.79303 35.1938L10.4295 35.7966C10.3588 36.0646 10.1113 36.165 9.68695 36.0981C9.26263 36.0311 8.87367 36.8348 8.52006 38.5093C8.20182 40.1838 7.79518 42.528 7.30014 45.5421C7.30014 46.3793 7.40622 47.2165 7.61838 48.0538C7.19405 48.7236 6.80509 49.3599 6.45149 49.9627C6.73437 50.2641 7.15869 50.4148 7.72446 50.4148C7.93662 50.4148 8.14878 50.4148 8.36094 50.4148C8.67918 50.2808 8.97975 50.1469 9.26263 50.0129C9.54551 49.8455 9.82839 49.5943 10.1113 49.2594C10.3942 48.9245 10.7301 48.4054 11.119 47.7021C11.4726 46.6975 11.8262 45.676 12.1798 44.6379C12.1798 44.169 11.9323 43.7839 11.4373 43.4825C12.1445 43.0136 12.7102 42.2769 13.1346 41.2722C13.5943 40.234 14.0009 39.2293 14.3545 38.2581C14.3545 38.0572 14.2307 37.94 13.9832 37.9065C13.7357 37.873 13.5059 37.8228 13.2937 37.7558L13.1876 36.9018L14.8849 36.6004C15.5567 34.5575 16.2109 32.4645 16.8474 30.3211C16.8474 29.5174 16.6706 28.7974 16.317 28.1611C16.5292 27.9601 16.812 28.0438 17.1656 28.4122C17.5546 28.7471 17.8905 28.7974 18.1734 28.5629L17.59 29.5174C19.1104 29.8523 20.3481 29.3667 21.3028 28.0606C20.4541 27.5917 19.8707 27.1564 19.5525 26.7545C18.916 26.7545 18.5977 26.5033 18.5977 26.001C18.7392 25.5321 18.8452 25.147 18.916 24.8456C18.9867 24.5442 18.9867 24.2763 18.916 24.0419C19.1281 24.0419 19.3403 24.226 19.5525 24.5944C19.411 25.5991 20.0475 26.4196 21.4619 27.0559C22.8763 27.6587 23.6896 28.2448 23.9018 28.8141C23.831 28.2448 23.4951 27.6085 22.894 26.9052C22.3282 26.1684 22.01 25.6996 21.9393 25.4986L24.3261 27.4578C24.3261 27.1229 24.1846 26.654 23.9018 26.0512C23.6189 25.4149 23.4774 24.9293 23.4774 24.5944C23.9725 25.2642 24.4145 25.7833 24.8034 26.1517C25.2278 26.4866 25.4399 26.8885 25.4399 27.3573C25.4399 27.6922 25.3692 28.0941 25.2278 28.5629C25.0863 28.9983 24.9272 29.5676 24.7504 30.2709C24.5736 30.9407 23.8841 32.7324 22.6818 35.6459C21.4796 38.5595 20.8785 40.8033 20.8785 42.3773C20.8785 43.6834 21.126 44.9225 21.621 46.0947C21.9746 45.0565 22.2929 44.2025 22.5758 43.5327C22.894 42.8294 23.4774 42.4778 24.3261 42.4778C25.7759 42.4778 26.6599 42.9299 26.9781 43.8341C27.5439 42.1596 28.1096 40.5019 28.6754 38.8609C28.3218 38.9279 27.9505 38.9614 27.5615 38.9614C27.1726 38.9614 26.9074 38.9614 26.7659 38.9614C25.7405 38.9614 24.9272 38.7605 24.3261 38.3586C24.5029 38.2916 24.6797 38.2581 24.8565 38.2581C25.0333 38.2581 25.2278 38.2581 25.4399 38.2581L24.5913 37.5548C24.8742 37.2534 25.2631 37.1027 25.7582 37.1027C26.1118 37.1027 26.6599 37.2702 27.4024 37.6051C28.1803 37.9065 28.7991 37.9902 29.2588 37.8563C29.471 36.7511 30.2136 35.378 31.4865 33.737C32.7949 32.0961 33.5374 31.1416 33.7142 30.8737L32.7065 30.0197L31.0622 28.5629C31.5926 28.7304 32.2821 29.0318 33.1308 29.4671C34.0148 29.9025 34.5982 30.1202 34.8811 30.1202C35.4469 30.1202 35.995 29.7518 36.5254 29.015C38.3994 28.0438 39.8315 25.9508 40.8216 22.7358C41.8471 19.4873 42.9786 17.3942 44.2162 16.4565C46.3378 16.2556 48.2119 16.6574 49.8385 17.6621C51.465 18.6333 52.9679 19.504 54.3469 20.2743C55.1248 19.3701 55.6376 18.3486 55.8851 17.21C56.168 16.0714 56.3094 14.715 56.3094 13.141V10.5791C56.3094 10.0433 55.726 9.67488 54.5591 9.47395C53.3922 9.23952 51.5004 8.56973 48.8838 7.46458C46.3025 6.32594 44.2516 5.75662 42.7311 5.75662C41.4227 5.75662 40.2205 5.99104 39.1243 6.4599ZM45.9665 17.6621V18.1142L52.5966 23.0372C52.5966 22.9702 52.738 22.8027 53.0209 22.5348C53.3038 22.2334 53.3745 21.9823 53.2331 21.7813C52.4551 20.7766 51.5004 20.0064 50.3689 19.4705C49.2374 18.9012 47.7699 18.2984 45.9665 17.6621ZM45.4361 18.717C46.1433 19.3868 46.9566 20.0734 47.876 20.7766C48.8307 21.4464 49.6794 21.9655 50.4219 22.3339C49.9976 21.7646 49.3965 21.1785 48.6186 20.5757C47.876 19.9394 46.8152 19.3198 45.4361 18.717ZM11.4373 19.0184C11.1544 19.2864 11.013 19.5878 11.013 19.9227C11.013 20.291 11.119 20.5757 11.3312 20.7766L11.4373 19.0184ZM45.9665 20.9776L44.3223 20.1738L46.4969 21.5804L45.9665 20.9776ZM48.6716 22.2334L51.4827 24.6949C51.5888 24.6279 51.6418 24.5609 51.6418 24.494C51.6418 24.427 51.6772 24.2428 51.7479 23.9414C51.0054 23.6735 50.3689 23.3721 49.8385 23.0372C49.3434 22.7023 48.9545 22.4344 48.6716 22.2334ZM21.9393 28.8141V29.216C22.4697 29.216 22.7349 29.149 22.7349 29.015C22.3459 28.8811 22.0807 28.8141 21.9393 28.8141ZM18.0673 30.8737L15.9987 36.9018L16.5292 37.7558C17.0949 37.8897 17.5369 37.9567 17.8552 37.9567C18.4209 37.9567 19.0397 37.8228 19.7116 37.5548C20.4188 37.2534 20.9492 37.0358 21.3028 36.9018C21.9746 34.658 22.6642 32.3975 23.3714 30.1202C22.7349 30.1202 22.2575 30.1202 21.9393 30.1202C21.7978 31.2923 21.5857 32.1965 21.3028 32.8328C21.0199 33.4356 20.4365 33.9715 19.5525 34.4403C19.9414 33.8375 20.3127 33.218 20.6663 32.5817C21.0199 31.9119 21.1967 31.2253 21.1967 30.5221C21.1967 30.1872 21.1613 29.9193 21.0906 29.7183C20.737 29.8523 20.2243 30.0532 19.5525 30.3211C18.916 30.589 18.4209 30.7732 18.0673 30.8737ZM25.7582 43.382C25.2631 43.1811 24.8918 43.0639 24.6443 43.0304C24.4322 42.9969 24.22 43.1141 24.0078 43.382C24.5382 43.8174 25.1924 43.8843 25.9703 43.5829L25.7582 43.382ZM22.841 44.4369C22.6288 45.2407 22.5227 45.7263 22.5227 45.8937C22.5227 46.2286 22.6995 46.4965 23.0531 46.6975C23.9018 46.8314 24.5559 46.8984 25.0156 46.8984C25.4399 46.8984 25.7935 46.7644 26.0764 46.4965C26.43 45.5253 26.43 44.8388 26.0764 44.4369C25.8643 44.5709 25.5106 44.5541 25.0156 44.3867C24.5559 44.2192 24.0786 44.0351 23.5835 43.8341C23.3006 43.8341 23.0531 44.0351 22.841 44.4369ZM22.3105 46.6975C23.2299 47.7356 24.2023 48.0705 25.2278 47.7021C24.4145 47.5682 23.8134 47.451 23.4244 47.3505C23.0354 47.25 22.6642 47.0324 22.3105 46.6975ZM6.98189 48.3552V47.3003L6.55757 48.5561L6.98189 48.3552ZM25.4399 36.3995C26.7483 36.3995 27.8267 36.8181 28.6754 37.6553L25.4399 36.3995ZM43.6858 6.35943C44.1808 6.22547 44.7289 6.29245 45.3301 6.56037C46.0373 7.06271 46.5323 7.41435 46.8152 7.61528L43.6858 6.35943ZM30.744 29.216L32.4943 29.8188C32.2114 29.8858 31.9108 29.8523 31.5926 29.7183C31.3097 29.5844 31.0268 29.4169 30.744 29.216ZM38.4879 21.9823C38.9122 20.2743 39.5133 18.717 40.2912 17.3105C41.1045 15.9039 42.2007 14.7988 43.5797 13.995C42.4128 14.9327 41.4404 16.3728 40.6625 18.3152C40.5918 18.2482 40.5564 18.1477 40.5564 18.0138C40.0967 18.4156 39.7078 19.0184 39.3895 19.8222C39.0713 20.5924 38.7707 21.3125 38.4879 21.9823ZM18.4916 34.1389C18.6331 34.2059 18.7568 34.4068 18.8629 34.7417C18.969 35.0431 19.1635 35.1101 19.4464 34.9427C18.8806 35.378 18.527 35.3111 18.3856 34.7417L18.4916 34.1389Z" fill="#CD4138"/>
</g>
<defs>
<filter id="filter0_d_893_1189" x="0.815431" y="0.419435" width="61.6074" height="55.433" filterUnits="userSpaceOnUse" color-interpolation-filters="sRGB">
<feFlood flood-opacity="0" result="BackgroundImageFix"/>
<feColorMatrix in="SourceAlpha" type="matrix" values="0 0 0 0 0 0 0 0 0 0 0 0 0 0 0 0 0 0 127 0" result="hardAlpha"/>
<feOffset/>
<feGaussianBlur stdDeviation="2.36719"/>
<feColorMatrix type="matrix" values="0 0 0 0 0.803922 0 0 0 0 0.254902 0 0 0 0 0.219608 0 0 0 0.9 0"/>
<feBlend mode="normal" in2="BackgroundImageFix" result="effect1_dropShadow_893_1189"/>
<feBlend mode="normal" in="SourceGraphic" in2="effect1_dropShadow_893_1189" result="shape"/>
</filter>
</defs>
</svg>
