<svg width="26" height="26" viewBox="0 0 26 26" fill="none" xmlns="http://www.w3.org/2000/svg">
<path d="M8.14978 9C7.96026 10.2511 7.85714 11.5975 7.85714 13C7.85714 14.4025 7.96027 15.7489 8.14978 17M8.14978 9C8.85579 4.33923 10.7608 1 13 1M8.14978 9H1.68282M8.14978 9H17.8502M13 1C15.2392 1 17.1442 4.33923 17.8502 9M13 1C7.77512 1 3.33017 4.33923 1.68282 9M13 1C18.2249 1 22.6698 4.33923 24.3172 9M17.8502 9C18.0397 10.2511 18.1429 11.5975 18.1429 13C18.1429 14.4025 18.0397 15.7489 17.8502 17M17.8502 9H24.3172M1.68282 9C1.24062 10.2511 1 11.5975 1 13C1 14.4025 1.24062 15.7489 1.68282 17M24.3172 9C24.7594 10.2511 25 11.5975 25 13C25 14.4025 24.7594 15.7489 24.3172 17M17.8502 17C17.1442 21.6608 15.2392 25 13 25M17.8502 17H24.3172M17.8502 17H8.14978M13 25C10.7608 25 8.85579 21.6608 8.14978 17M13 25C18.2249 25 22.6698 21.6608 24.3172 17M13 25C7.77512 25 3.33017 21.6608 1.68282 17M8.14978 17H1.68282" stroke="white" stroke-width="2"/>
</svg>
