<svg width="34" height="34" viewBox="0 0 34 34" fill="none" xmlns="http://www.w3.org/2000/svg">
<path d="M10.533 11.6667C10.2804 13.3348 10.1429 15.1299 10.1429 17C10.1429 18.8701 10.2804 20.6652 10.533 22.3333M10.533 11.6667C11.4744 5.45231 14.0144 1 17 1M10.533 11.6667H1.91043M10.533 11.6667H23.467M17 1C19.9856 1 22.5256 5.45231 23.467 11.6667M17 1C10.0335 1 4.10689 5.45231 1.91043 11.6667M17 1C23.9665 1 29.8931 5.45231 32.0896 11.6667M23.467 11.6667C23.7196 13.3348 23.8571 15.1299 23.8571 17C23.8571 18.8701 23.7196 20.6652 23.467 22.3333M23.467 11.6667H32.0896M1.91043 11.6667C1.32082 13.3348 1 15.1299 1 17C1 18.8701 1.32082 20.6652 1.91043 22.3333M32.0896 11.6667C32.6792 13.3348 33 15.1299 33 17C33 18.8701 32.6792 20.6652 32.0896 22.3333M23.467 22.3333C22.5256 28.5477 19.9856 33 17 33M23.467 22.3333H32.0896M23.467 22.3333H10.533M17 33C14.0144 33 11.4744 28.5477 10.533 22.3333M17 33C23.9665 33 29.8931 28.5477 32.0896 22.3333M17 33C10.0335 33 4.10689 28.5477 1.91043 22.3333M10.533 22.3333H1.91043" stroke="#242424" stroke-width="2"/>
</svg>
